<svg xmlns="http://www.w3.org/2000/svg" width="200" height="150" viewBox="0 0 200 150" preserveAspectRatio="xMidYMid meet" shape-rendering="auto"><defs><clipPath id="imageBounds"><rect x="0" y="0" width="200" height="150"></rect></clipPath></defs><g clip-path="url(#imageBounds)"><path d="M-8.05,12.99 C-7.3,12.32 -4.85,10.13 -3.36,8.81 C-1.88,7.49 -0.32,6.03 1.22,4.74 C2.76,3.45 4.63,1.96 6.25,0.76 C7.87,-0.44 9.68,-1.66 11.34,-2.74 C12.99,-3.82 15.74,-5.46 16.58,-5.98 L16.61,-5.93 C15.8,-5.37 13.12,-3.61 11.54,-2.45 C9.96,-1.28 8.31,0.14 6.73,1.38 C5.16,2.62 3.26,4.07 1.68,5.3 C0.1,6.53 -1.58,7.85 -3.13,9.08 C-4.68,10.32 -7.22,12.41 -8,13.05 Z" fill="#333"></path><path d="M-7.58,22.16 C-6.87,21.51 -4.58,19.43 -3.16,18.11 C-1.73,16.79 -0.15,15.28 1.33,13.91 C2.81,12.54 4.52,10.9 6.08,9.57 C7.65,8.23 9.51,6.75 11.11,5.55 C12.72,4.35 14.46,3.13 16.14,2.08 C17.81,1.02 19.82,-0.09 21.58,-1.03 C23.33,-1.96 25.51,-3 27.13,-3.77 C28.74,-4.55 30.96,-5.53 31.69,-5.87 L31.72,-5.81 C31,-5.46 28.78,-4.46 27.21,-3.62 C25.63,-2.77 23.55,-1.57 21.88,-0.51 C20.2,0.54 18.34,1.84 16.74,2.97 C15.13,4.1 13.44,5.33 11.87,6.55 C10.3,7.77 8.53,9.32 6.93,10.6 C5.34,11.89 3.48,13.33 1.9,14.57 C0.32,15.82 -1.43,17.14 -2.94,18.36 C-4.45,19.58 -6.81,21.58 -7.55,22.19 Z" fill="#333"></path><path d="M-6.98,31.48 C-6.23,30.82 -3.73,28.68 -2.29,27.34 C-0.84,26 0.63,24.45 2.05,23.09 C3.47,21.72 5.08,20.16 6.57,18.82 C8.06,17.49 9.81,16.02 11.36,14.75 C12.9,13.49 14.62,12.07 16.21,10.9 C17.81,9.73 19.65,8.5 21.33,7.44 C23.01,6.38 24.98,5.22 26.72,4.27 C28.46,3.32 30.41,2.3 32.21,1.49 C34.02,0.68 36.11,-0.11 38.02,-0.81 C39.92,-1.52 42.75,-2.45 44.11,-2.91 C45.47,-3.38 46.12,-3.59 46.51,-3.72 L46.51,-3.71 C46.14,-3.55 45.5,-3.29 44.18,-2.73 C42.86,-2.17 40.1,-1.06 38.26,-0.22 C36.43,0.62 34.45,1.6 32.71,2.51 C30.97,3.42 29.1,4.49 27.4,5.46 C25.7,6.44 23.75,7.58 22.1,8.63 C20.44,9.69 18.63,10.9 17.05,12.05 C15.47,13.2 13.75,14.57 12.21,15.82 C10.67,17.07 8.97,18.57 7.44,19.84 C5.91,21.12 4.18,22.55 2.66,23.79 C1.14,25.03 -0.53,26.37 -2.06,27.6 C-3.6,28.84 -6.17,30.88 -6.95,31.5 Z" fill="#333"></path><path d="M-6.69,40.58 C-5.9,39.9 -3.26,37.73 -1.77,36.34 C-0.27,34.95 1.19,33.32 2.65,31.9 C4.12,30.48 5.85,28.84 7.38,27.45 C8.92,26.06 10.66,24.56 12.25,23.22 C13.83,21.88 15.7,20.35 17.31,19.1 C18.92,17.85 20.67,16.55 22.31,15.42 C23.94,14.3 25.81,13.13 27.53,12.06 C29.26,11 31.28,9.76 33.11,8.78 C34.95,7.81 37.17,6.77 39.01,5.96 C40.85,5.16 42.83,4.42 44.64,3.74 C46.45,3.06 48.46,2.34 50.33,1.71 C52.19,1.08 54.52,0.34 56.27,-0.22 C58.02,-0.78 60.48,-1.52 61.28,-1.77 L61.48,-1.19 C60.7,-0.89 58.29,0 56.57,0.64 C54.84,1.28 52.55,2.11 50.72,2.81 C48.9,3.52 46.92,4.31 45.15,5.03 C43.37,5.76 41.44,6.52 39.63,7.34 C37.82,8.17 35.68,9.25 33.86,10.2 C32.04,11.15 29.99,12.25 28.26,13.27 C26.53,14.28 24.69,15.43 23.06,16.52 C21.43,17.61 19.67,18.87 18.07,20.09 C16.47,21.31 14.61,22.83 13.04,24.17 C11.47,25.51 9.81,27.11 8.27,28.49 C6.73,29.87 4.97,31.47 3.4,32.78 C1.84,34.08 0.1,35.41 -1.51,36.66 C-3.12,37.91 -5.84,39.98 -6.66,40.62 Z" fill="#333"></path><path d="M-6.67,48.96 C-5.88,48.35 -3.29,46.44 -1.73,45.14 C-0.17,43.84 1.54,42.19 3.09,40.84 C4.64,39.49 6.4,38.01 7.95,36.7 C9.5,35.4 11.23,34 12.78,32.68 C14.33,31.36 16.06,29.76 17.63,28.47 C19.2,27.17 20.99,25.77 22.59,24.57 C24.19,23.38 25.99,22.12 27.63,21.02 C29.26,19.92 31.11,18.72 32.8,17.71 C34.5,16.7 36.43,15.61 38.22,14.71 C40.02,13.81 42.16,12.88 44.05,12.08 C45.93,11.29 48.18,10.46 50.03,9.74 C51.89,9.01 53.77,8.23 55.63,7.54 C57.5,6.85 59.75,6.07 61.68,5.4 C63.62,4.73 65.85,4.02 67.74,3.35 C69.62,2.68 72.13,1.7 73.47,1.2 C74.81,0.7 75.7,0.4 76.12,0.25 L76.48,1.16 C76.07,1.35 75.23,1.76 73.91,2.32 C72.59,2.89 70.11,3.97 68.23,4.69 C66.36,5.42 64.12,6.16 62.19,6.84 C60.25,7.53 58.01,8.3 56.14,8.96 C54.27,9.62 52.35,10.25 50.51,10.97 C48.66,11.68 46.47,12.6 44.62,13.42 C42.76,14.24 40.69,15.21 38.92,16.11 C37.16,17 35.25,18.02 33.57,19.01 C31.89,19.99 30.07,21.18 28.45,22.25 C26.82,23.32 25.02,24.54 23.43,25.71 C21.84,26.87 20.08,28.27 18.51,29.54 C16.93,30.81 15.16,32.34 13.61,33.65 C12.06,34.96 10.4,36.45 8.83,37.73 C7.26,39.02 5.44,40.44 3.79,41.69 C2.15,42.93 0.21,44.32 -1.45,45.5 C-3.11,46.68 -5.78,48.48 -6.6,49.05 Z" fill="#333"></path><path d="M-6.45,57.48 C-5.67,56.9 -3.13,55.07 -1.59,53.84 C-0.04,52.61 1.64,51.12 3.19,49.8 C4.74,48.49 6.52,46.95 8.08,45.63 C9.65,44.31 11.44,42.85 12.97,41.55 C14.49,40.25 16.05,38.82 17.6,37.52 C19.14,36.21 21.04,34.64 22.61,33.36 C24.18,32.09 25.85,30.7 27.4,29.52 C28.95,28.34 30.68,27.09 32.28,26.01 C33.87,24.92 35.64,23.73 37.36,22.74 C39.09,21.76 41.22,20.74 43.05,19.84 C44.88,18.94 46.98,17.93 48.82,17.12 C50.66,16.31 52.72,15.51 54.55,14.8 C56.38,14.08 58.39,13.32 60.25,12.65 C62.12,11.99 64.34,11.28 66.21,10.64 C68.07,10 70.08,9.32 71.92,8.63 C73.76,7.94 75.88,7.05 77.7,6.32 C79.52,5.59 81.48,4.88 83.27,4.07 C85.06,3.26 87.79,1.81 88.88,1.26 C89.97,0.72 89.91,0.75 90.1,0.65 L90.62,1.66 C90.43,1.77 90.52,1.75 89.43,2.33 C88.34,2.91 85.62,4.41 83.84,5.27 C82.05,6.13 80.1,6.97 78.27,7.72 C76.45,8.47 74.28,9.29 72.43,9.98 C70.58,10.67 68.56,11.38 66.7,12.04 C64.83,12.7 62.62,13.42 60.76,14.1 C58.91,14.78 56.91,15.55 55.1,16.27 C53.3,17 51.29,17.86 49.47,18.66 C47.65,19.46 45.55,20.41 43.73,21.27 C41.91,22.13 39.8,23.1 38.09,24.04 C36.39,24.99 34.63,26.14 33.05,27.2 C31.47,28.25 29.77,29.51 28.23,30.65 C26.68,31.8 24.96,33.1 23.39,34.35 C21.83,35.61 19.97,37.21 18.44,38.52 C16.91,39.83 15.35,41.25 13.83,42.55 C12.32,43.86 10.57,45.39 8.98,46.69 C7.39,48 5.53,49.48 3.89,50.69 C2.25,51.91 0.38,53.19 -1.27,54.28 C-2.92,55.37 -5.59,57.01 -6.42,57.53 Z" fill="#333"></path><path d="M-6.5,65.66 C-5.68,65.11 -2.95,63.36 -1.37,62.22 C0.22,61.07 1.85,59.72 3.39,58.5 C4.93,57.29 6.75,55.87 8.26,54.62 C9.77,53.38 11.34,52 12.84,50.72 C14.33,49.44 16.11,47.93 17.59,46.64 C19.07,45.36 20.6,43.96 22.09,42.68 C23.58,41.39 25.3,39.91 26.89,38.61 C28.48,37.31 30.36,35.78 32.01,34.55 C33.67,33.31 35.49,31.99 37.23,30.89 C38.97,29.79 41.04,28.61 42.87,27.66 C44.7,26.7 46.81,25.77 48.69,24.91 C50.57,24.05 52.75,23.05 54.64,22.28 C56.52,21.51 58.59,20.75 60.47,20.08 C62.35,19.41 64.52,18.75 66.41,18.11 C68.29,17.48 70.4,16.74 72.24,16.13 C74.08,15.51 76.05,14.9 77.9,14.25 C79.75,13.59 81.94,12.78 83.8,12.02 C85.66,11.26 87.72,10.4 89.55,9.51 C91.38,8.61 93.5,7.45 95.22,6.44 C96.95,5.44 98.96,4.11 100.35,3.22 C101.73,2.33 103.31,1.25 103.87,0.88 L104.51,1.81 C103.96,2.22 102.44,3.38 101.07,4.32 C99.71,5.27 97.71,6.66 95.97,7.7 C94.23,8.74 92.07,9.92 90.22,10.83 C88.37,11.73 86.27,12.61 84.39,13.38 C82.5,14.14 80.29,14.93 78.42,15.59 C76.56,16.25 74.57,16.87 72.73,17.5 C70.89,18.14 68.79,18.91 66.91,19.56 C65.03,20.2 62.86,20.86 61,21.53 C59.13,22.21 57.12,23.04 55.26,23.81 C53.39,24.57 51.19,25.47 49.33,26.32 C47.47,27.16 45.41,28.12 43.62,29.07 C41.82,30.03 39.8,31.2 38.08,32.27 C36.37,33.34 34.53,34.57 32.88,35.76 C31.23,36.95 29.36,38.45 27.77,39.72 C26.18,40.99 24.45,42.45 22.94,43.7 C21.44,44.96 19.86,46.28 18.38,47.56 C16.89,48.84 15.16,50.41 13.66,51.69 C12.16,52.96 10.54,54.32 8.99,55.54 C7.44,56.75 5.6,58.17 3.99,59.31 C2.38,60.44 0.58,61.59 -1.1,62.62 C-2.77,63.64 -5.61,65.23 -6.47,65.72 Z" fill="#333"></path><path d="M-6.39,74.44 C-5.51,73.89 -2.54,72.13 -0.88,70.98 C0.77,69.84 2.44,68.5 3.96,67.3 C5.48,66.1 7.13,64.76 8.62,63.52 C10.12,62.27 11.84,60.79 13.32,59.52 C14.8,58.24 16.37,56.85 17.88,55.54 C19.4,54.22 21.25,52.6 22.81,51.29 C24.36,49.97 26.08,48.55 27.6,47.31 C29.12,46.07 30.73,44.71 32.3,43.53 C33.86,42.34 35.72,41.02 37.39,39.9 C39.06,38.77 41,37.53 42.73,36.5 C44.45,35.48 46.42,34.41 48.17,33.5 C49.92,32.58 51.87,31.62 53.68,30.79 C55.49,29.97 57.58,29.11 59.48,28.36 C61.38,27.61 63.6,26.78 65.54,26.11 C67.47,25.43 69.63,24.75 71.57,24.13 C73.51,23.5 75.73,22.81 77.64,22.18 C79.55,21.55 81.68,20.86 83.52,20.17 C85.37,19.49 87.33,18.71 89.17,17.9 C91,17.08 93.2,16.03 94.98,15.08 C96.76,14.13 98.63,13.04 100.29,11.98 C101.94,10.91 103.72,9.59 105.3,8.43 C106.89,7.27 108.62,5.96 110.21,4.72 C111.8,3.49 114.21,1.5 115.24,0.7 C116.27,-0.1 116.42,-0.12 116.64,-0.27 L117.13,0.32 C116.93,0.5 116.85,0.61 115.89,1.49 C114.92,2.38 112.65,4.56 111.09,5.87 C109.54,7.18 107.77,8.5 106.16,9.68 C104.55,10.86 102.73,12.16 101.05,13.23 C99.38,14.31 97.48,15.42 95.68,16.4 C93.89,17.37 91.68,18.51 89.83,19.34 C87.97,20.17 85.95,20.9 84.08,21.56 C82.2,22.23 80.04,22.86 78.11,23.48 C76.19,24.11 73.98,24.84 72.05,25.49 C70.12,26.14 67.98,26.87 66.05,27.55 C64.12,28.22 61.88,28.96 60,29.69 C58.12,30.43 56.07,31.33 54.29,32.15 C52.51,32.97 50.59,33.94 48.86,34.84 C47.14,35.75 45.21,36.82 43.5,37.82 C41.79,38.82 39.84,39.98 38.18,41.07 C36.53,42.17 34.73,43.51 33.17,44.68 C31.62,45.84 29.97,47.12 28.45,48.34 C26.93,49.56 25.22,50.99 23.67,52.3 C22.11,53.6 20.25,55.2 18.72,56.51 C17.19,57.82 15.62,59.21 14.12,60.49 C12.63,61.77 10.91,63.27 9.38,64.5 C7.85,65.73 6.16,67.05 4.56,68.16 C2.96,69.27 1.13,70.4 -0.61,71.42 C-2.36,72.44 -5.42,74.04 -6.34,74.54 Z" fill="#333"></path><path d="M-6.75,82.28 C-5.88,81.79 -3,80.23 -1.3,79.2 C0.4,78.17 2.25,76.93 3.87,75.84 C5.5,74.76 7.25,73.57 8.87,72.41 C10.49,71.26 12.44,69.87 14,68.65 C15.57,67.42 17.17,66.01 18.66,64.75 C20.14,63.49 21.81,62.08 23.28,60.8 C24.75,59.52 26.39,58.02 27.85,56.73 C29.31,55.45 30.87,54.04 32.4,52.77 C33.92,51.5 35.76,49.97 37.36,48.77 C38.95,47.57 40.75,46.35 42.38,45.27 C44.01,44.19 45.82,43.03 47.56,42.03 C49.29,41.03 51.43,39.91 53.24,39.02 C55.05,38.12 57.05,37.19 58.86,36.43 C60.68,35.67 62.71,34.95 64.57,34.28 C66.42,33.61 68.59,32.86 70.45,32.24 C72.31,31.62 74.35,30.98 76.18,30.38 C78,29.78 80.01,29.12 81.85,28.49 C83.69,27.86 85.81,27.16 87.66,26.44 C89.51,25.73 91.62,24.86 93.42,24.01 C95.23,23.17 97.19,22.12 98.91,21.19 C100.64,20.26 102.58,19.23 104.22,18.2 C105.85,17.17 107.57,15.89 109.14,14.75 C110.72,13.61 112.54,12.25 114.06,11.05 C115.58,9.85 117.15,8.45 118.64,7.24 C120.13,6.03 121.82,4.71 123.4,3.46 C124.97,2.21 126.9,0.67 128.49,-0.56 C130.07,-1.8 132.53,-3.68 133.3,-4.27 L133.39,-4.17 C132.67,-3.51 130.37,-1.45 128.9,-0.08 C127.43,1.29 125.66,3.01 124.18,4.38 C122.7,5.74 121.12,7.2 119.64,8.45 C118.16,9.7 116.47,10.97 114.93,12.17 C113.38,13.38 111.6,14.81 110.01,15.97 C108.42,17.13 106.64,18.38 104.97,19.42 C103.3,20.46 101.35,21.55 99.59,22.47 C97.83,23.4 95.81,24.39 93.98,25.22 C92.15,26.05 90.03,26.96 88.16,27.68 C86.3,28.41 84.16,29.11 82.3,29.73 C80.45,30.35 78.41,30.95 76.58,31.55 C74.76,32.15 72.74,32.86 70.9,33.51 C69.06,34.16 66.9,34.93 65.07,35.61 C63.24,36.3 61.22,37.02 59.44,37.78 C57.65,38.54 55.69,39.48 53.91,40.37 C52.13,41.26 50.02,42.35 48.31,43.34 C46.59,44.32 44.8,45.46 43.19,46.52 C41.59,47.59 39.84,48.81 38.25,49.99 C36.66,51.16 34.81,52.62 33.28,53.86 C31.75,55.1 30.16,56.46 28.7,57.73 C27.24,59 25.6,60.5 24.14,61.79 C22.68,63.08 21.05,64.55 19.56,65.82 C18.08,67.09 16.43,68.48 14.85,69.72 C13.27,70.96 11.35,72.42 9.69,73.57 C8.04,74.71 6.24,75.89 4.52,76.87 C2.81,77.85 0.77,78.8 -1.02,79.69 C-2.82,80.58 -5.78,81.98 -6.68,82.42 Z" fill="#333"></path><path d="M-7.08,90.35 C-6.19,89.91 -3.29,88.57 -1.56,87.64 C0.17,86.7 2.05,85.5 3.74,84.5 C5.42,83.51 7.28,82.44 8.96,81.41 C10.63,80.38 12.56,79.24 14.2,78.09 C15.85,76.94 17.65,75.49 19.21,74.21 C20.78,72.93 22.44,71.42 23.99,70.09 C25.53,68.76 27.3,67.26 28.85,65.91 C30.39,64.57 32.09,63.03 33.64,61.7 C35.18,60.37 36.9,58.89 38.5,57.61 C40.11,56.33 41.98,54.93 43.65,53.72 C45.32,52.51 47.25,51.12 48.96,50.03 C50.68,48.95 52.57,47.87 54.36,46.91 C56.14,45.94 58.3,44.87 60.12,44.01 C61.94,43.14 63.85,42.24 65.73,41.49 C67.6,40.75 69.86,40.02 71.82,39.36 C73.78,38.71 76.03,37.99 77.96,37.38 C79.89,36.78 82.01,36.18 83.89,35.58 C85.77,34.97 87.82,34.32 89.71,33.61 C91.6,32.91 93.89,31.97 95.71,31.16 C97.53,30.34 99.33,29.44 101.08,28.54 C102.83,27.65 104.93,26.59 106.67,25.57 C108.41,24.54 110.28,23.28 111.94,22.14 C113.61,21.01 115.51,19.69 117.08,18.48 C118.65,17.28 120.29,15.9 121.78,14.63 C123.27,13.36 124.93,11.86 126.39,10.56 C127.86,9.25 129.42,7.79 130.94,6.46 C132.45,5.13 134.3,3.49 135.88,2.25 C137.45,1.01 139.19,-0.17 140.78,-1.28 C142.37,-2.38 145.01,-4.1 145.81,-4.64 L145.84,-4.6 C145.08,-4.01 142.53,-2.15 141.06,-0.91 C139.58,0.32 138.08,1.79 136.6,3.14 C135.13,4.49 133.34,6.16 131.85,7.52 C130.37,8.89 128.8,10.34 127.35,11.67 C125.89,12.99 124.23,14.51 122.74,15.8 C121.25,17.08 119.6,18.48 118.01,19.7 C116.42,20.92 114.52,22.3 112.82,23.43 C111.12,24.56 109.15,25.74 107.39,26.78 C105.62,27.82 103.57,29.01 101.79,29.92 C100.02,30.83 98.15,31.67 96.3,32.48 C94.46,33.29 92.15,34.26 90.24,34.98 C88.34,35.7 86.27,36.34 84.38,36.96 C82.5,37.58 80.4,38.22 78.47,38.83 C76.54,39.44 74.28,40.11 72.33,40.77 C70.38,41.42 68.15,42.19 66.29,42.91 C64.43,43.63 62.5,44.42 60.7,45.28 C58.91,46.13 56.82,47.28 55.07,48.26 C53.33,49.24 51.48,50.31 49.78,51.38 C48.09,52.45 46.16,53.77 44.5,54.94 C42.83,56.11 40.96,57.47 39.36,58.71 C37.76,59.96 36.05,61.41 34.5,62.72 C32.95,64.03 31.23,65.55 29.68,66.88 C28.12,68.21 26.34,69.71 24.79,71.03 C23.23,72.35 21.55,73.86 19.97,75.15 C18.4,76.44 16.58,77.9 14.94,79.09 C13.29,80.27 11.4,81.53 9.7,82.56 C8,83.59 6.08,84.64 4.31,85.52 C2.55,86.39 0.46,87.26 -1.36,88.04 C-3.17,88.82 -6.14,90.03 -7.05,90.4 Z" fill="#333"></path><path d="M-7.39,98.33 C-6.44,97.9 -3.29,96.52 -1.5,95.64 C0.28,94.76 2.04,93.79 3.76,92.85 C5.48,91.9 7.53,90.71 9.25,89.73 C10.97,88.74 12.85,87.77 14.51,86.68 C16.17,85.59 18.02,84.18 19.62,82.94 C21.21,81.71 22.97,80.27 24.5,78.97 C26.02,77.67 27.65,76.17 29.15,74.83 C30.65,73.49 32.35,71.92 33.87,70.58 C35.39,69.24 37.12,67.71 38.65,66.43 C40.17,65.15 41.81,63.79 43.42,62.59 C45.02,61.4 47.01,60.06 48.69,58.95 C50.37,57.83 52.2,56.65 53.92,55.64 C55.63,54.63 57.6,53.57 59.42,52.65 C61.24,51.74 63.38,50.72 65.28,49.92 C67.17,49.12 69.38,48.35 71.26,47.66 C73.15,46.98 75.19,46.29 77.05,45.64 C78.91,44.99 80.99,44.28 82.9,43.61 C84.82,42.94 87.14,42.11 89.02,41.43 C90.9,40.75 92.85,40.11 94.65,39.37 C96.46,38.64 98.5,37.7 100.29,36.85 C102.09,36.01 104.1,35.04 105.87,34.1 C107.64,33.15 109.62,32.03 111.34,30.97 C113.06,29.92 115,28.67 116.64,27.53 C118.27,26.38 119.99,25.05 121.55,23.84 C123.1,22.63 124.81,21.24 126.34,19.99 C127.87,18.74 129.6,17.33 131.12,16.05 C132.63,14.77 134.3,13.27 135.81,12 C137.32,10.72 139,9.3 140.53,8.07 C142.06,6.84 143.77,5.51 145.39,4.3 C147.02,3.1 149.02,1.64 150.7,0.53 C152.38,-0.58 154.16,-1.68 155.89,-2.65 C157.62,-3.61 160.62,-5.04 161.52,-5.49 L161.54,-5.46 C160.67,-4.95 157.75,-3.37 156.1,-2.29 C154.45,-1.2 152.81,0.08 151.22,1.3 C149.63,2.52 147.74,4.08 146.17,5.33 C144.6,6.59 142.92,7.91 141.41,9.16 C139.91,10.4 138.25,11.83 136.76,13.11 C135.26,14.38 133.57,15.85 132.06,17.14 C130.55,18.43 128.84,19.9 127.32,21.17 C125.79,22.44 124.09,23.88 122.52,25.09 C120.95,26.3 119.15,27.57 117.49,28.74 C115.84,29.9 113.93,31.28 112.18,32.35 C110.43,33.42 108.37,34.49 106.57,35.43 C104.77,36.38 102.75,37.42 100.93,38.26 C99.11,39.1 97.02,39.98 95.19,40.7 C93.36,41.42 91.4,42.09 89.5,42.75 C87.61,43.41 85.25,44.17 83.32,44.82 C81.4,45.48 79.33,46.18 77.48,46.85 C75.63,47.51 73.61,48.23 71.76,48.95 C69.91,49.68 67.77,50.55 65.9,51.35 C64.04,52.16 61.91,53.11 60.11,54 C58.31,54.89 56.37,55.93 54.67,56.9 C52.96,57.87 51.11,58.97 49.44,60.06 C47.78,61.16 45.86,62.55 44.27,63.73 C42.67,64.91 41,66.19 39.47,67.44 C37.94,68.69 36.24,70.23 34.71,71.55 C33.18,72.88 31.43,74.4 29.9,75.72 C28.38,77.04 26.72,78.49 25.19,79.81 C23.67,81.12 21.98,82.68 20.38,83.94 C18.78,85.2 16.86,86.57 15.2,87.69 C13.54,88.82 11.74,89.99 10,90.99 C8.26,91.98 6.11,93.09 4.31,93.91 C2.5,94.74 0.59,95.42 -1.28,96.14 C-3.15,96.86 -6.38,98.04 -7.35,98.41 Z" fill="#333"></path><path d="M-7.65,106.47 C-6.72,106.09 -3.67,104.89 -1.87,104.1 C-0.07,103.31 1.8,102.4 3.58,101.53 C5.36,100.66 7.47,99.62 9.27,98.66 C11.06,97.71 13.08,96.63 14.81,95.56 C16.53,94.49 18.43,93.13 20.03,91.98 C21.63,90.83 23.28,89.56 24.79,88.37 C26.3,87.18 27.95,85.84 29.47,84.54 C30.98,83.25 32.74,81.64 34.25,80.27 C35.76,78.91 37.37,77.35 38.89,76 C40.4,74.66 42.15,73.16 43.72,71.87 C45.28,70.58 47,69.16 48.67,67.95 C50.33,66.75 52.41,65.45 54.13,64.36 C55.84,63.27 57.61,62.16 59.38,61.16 C61.14,60.17 63.3,59.04 65.16,58.16 C67.03,57.28 69.14,56.45 71.04,55.67 C72.93,54.9 75.15,54.04 77.01,53.33 C78.88,52.63 80.86,51.9 82.68,51.24 C84.51,50.58 86.52,49.89 88.39,49.21 C90.27,48.52 92.55,47.66 94.42,46.96 C96.28,46.26 98.24,45.56 100.03,44.84 C101.83,44.12 103.82,43.27 105.64,42.46 C107.46,41.65 109.62,40.7 111.38,39.77 C113.15,38.83 114.99,37.71 116.68,36.64 C118.36,35.57 120.27,34.31 121.91,33.11 C123.55,31.91 125.34,30.43 126.93,29.13 C128.52,27.83 130.33,26.32 131.85,24.99 C133.37,23.66 134.95,22.18 136.46,20.83 C137.98,19.47 139.77,17.85 141.32,16.53 C142.87,15.22 144.57,13.82 146.15,12.61 C147.72,11.4 149.5,10.12 151.16,8.94 C152.82,7.77 154.81,6.33 156.53,5.25 C158.25,4.17 160.13,3.12 161.92,2.21 C163.71,1.3 165.84,0.34 167.71,-0.42 C169.57,-1.19 171.97,-1.99 173.59,-2.58 C175.22,-3.17 177.18,-3.87 177.87,-4.12 L177.9,-4.04 C177.23,-3.76 175.29,-2.99 173.71,-2.29 C172.13,-1.6 169.83,-0.6 168.04,0.29 C166.24,1.18 164.22,2.3 162.5,3.28 C160.77,4.25 158.95,5.32 157.26,6.4 C155.57,7.48 153.57,8.84 151.93,10.02 C150.3,11.2 148.59,12.53 147.05,13.76 C145.51,14.99 143.86,16.41 142.32,17.72 C140.77,19.02 138.95,20.6 137.42,21.94 C135.89,23.28 134.3,24.74 132.77,26.08 C131.24,27.42 129.47,28.99 127.87,30.31 C126.27,31.62 124.44,33.08 122.78,34.3 C121.13,35.53 119.25,36.9 117.54,37.98 C115.84,39.07 113.92,40.16 112.12,41.1 C110.32,42.04 108.15,43.06 106.3,43.86 C104.45,44.66 102.39,45.42 100.57,46.13 C98.75,46.85 96.8,47.63 94.93,48.31 C93.05,49 90.73,49.8 88.83,50.44 C86.93,51.07 84.87,51.64 83.05,52.29 C81.23,52.93 79.28,53.74 77.44,54.48 C75.6,55.21 73.4,56.07 71.54,56.88 C69.68,57.69 67.66,58.66 65.83,59.55 C64,60.43 61.83,61.45 60.09,62.41 C58.34,63.37 56.6,64.49 54.92,65.57 C53.24,66.65 51.23,68.01 49.56,69.18 C47.9,70.34 46.11,71.64 44.51,72.86 C42.91,74.07 41.1,75.49 39.55,76.79 C38.01,78.08 36.35,79.59 34.84,80.96 C33.34,82.33 31.64,84.02 30.15,85.36 C28.67,86.7 27.04,88.08 25.56,89.34 C24.08,90.59 22.51,92.03 20.91,93.21 C19.31,94.4 17.31,95.69 15.55,96.76 C13.79,97.83 11.75,98.95 9.91,99.87 C8.07,100.8 5.91,101.79 4.06,102.55 C2.2,103.3 0.19,103.93 -1.68,104.57 C-3.55,105.21 -6.67,106.23 -7.61,106.55 Z" fill="#333"></path><path d="M-7.99,114.43 C-7.06,114.06 -4,112.91 -2.18,112.14 C-0.36,111.38 1.61,110.47 3.37,109.64 C5.14,108.82 7.07,107.84 8.85,106.98 C10.63,106.11 12.78,105.18 14.5,104.24 C16.22,103.3 17.97,102.21 19.61,101.1 C21.25,99.99 23.15,98.53 24.77,97.3 C26.39,96.07 28.19,94.65 29.73,93.41 C31.28,92.17 32.91,90.83 34.4,89.56 C35.9,88.3 37.6,86.82 39.09,85.51 C40.58,84.2 42.23,82.66 43.73,81.35 C45.24,80.04 46.94,78.58 48.51,77.32 C50.08,76.05 51.95,74.62 53.56,73.44 C55.17,72.26 56.88,70.99 58.55,69.93 C60.22,68.87 62.23,67.72 64.01,66.81 C65.78,65.89 67.78,65 69.65,64.21 C71.51,63.42 73.74,62.58 75.65,61.86 C77.56,61.14 79.71,60.38 81.6,59.71 C83.5,59.05 85.64,58.36 87.5,57.71 C89.36,57.06 91.34,56.35 93.22,55.67 C95.1,54.98 97.37,54.12 99.23,53.4 C101.1,52.69 103.09,51.92 104.87,51.18 C106.65,50.43 108.59,49.6 110.34,48.74 C112.1,47.88 114.14,46.75 115.84,45.8 C117.54,44.85 119.36,43.83 120.97,42.78 C122.57,41.73 124.32,40.43 125.88,39.24 C127.44,38.04 129.21,36.59 130.73,35.3 C132.25,34.02 133.9,32.54 135.39,31.21 C136.88,29.87 138.53,28.32 140.06,26.97 C141.58,25.63 143.38,24.08 144.9,22.81 C146.42,21.55 148.05,20.22 149.58,19.05 C151.12,17.88 152.86,16.63 154.5,15.52 C156.15,14.42 158.11,13.2 159.87,12.14 C161.63,11.07 163.71,9.85 165.49,8.85 C167.28,7.85 169.2,6.78 171.03,5.88 C172.86,4.99 175.05,4.02 176.94,3.25 C178.82,2.47 180.95,1.72 182.81,1.06 C184.67,0.39 186.99,-0.4 188.56,-0.93 C190.13,-1.45 192,-2 192.65,-2.2 L192.78,-1.84 C192.14,-1.6 190.31,-0.95 188.77,-0.34 C187.23,0.28 184.98,1.25 183.16,1.99 C181.33,2.73 179.22,3.5 177.37,4.31 C175.52,5.12 173.4,6.18 171.59,7.07 C169.78,7.96 167.84,8.91 166.07,9.89 C164.3,10.87 162.27,12.12 160.54,13.19 C158.81,14.27 156.89,15.49 155.28,16.61 C153.67,17.72 151.97,18.99 150.46,20.15 C148.95,21.32 147.34,22.65 145.82,23.9 C144.3,25.16 142.5,26.71 140.96,28.03 C139.42,29.34 137.68,30.81 136.19,32.15 C134.69,33.49 133.13,35.08 131.61,36.4 C130.1,37.73 128.3,39.19 126.73,40.41 C125.16,41.63 123.4,42.96 121.79,44.06 C120.18,45.15 118.38,46.26 116.66,47.23 C114.94,48.2 112.82,49.29 111.02,50.12 C109.22,50.95 107.21,51.72 105.4,52.44 C103.59,53.17 101.59,53.97 99.71,54.66 C97.82,55.35 95.51,56.13 93.6,56.75 C91.7,57.37 89.67,57.96 87.79,58.55 C85.92,59.15 83.77,59.8 81.88,60.47 C80,61.13 77.88,61.94 76,62.71 C74.12,63.48 71.95,64.4 70.14,65.26 C68.33,66.12 66.42,67.14 64.7,68.09 C62.98,69.05 61.04,70.21 59.39,71.25 C57.74,72.29 56,73.45 54.39,74.59 C52.79,75.73 50.94,77.16 49.34,78.37 C47.75,79.59 45.98,80.94 44.43,82.18 C42.88,83.43 41.15,84.86 39.65,86.16 C38.15,87.47 36.51,89 35.04,90.32 C33.58,91.63 32.03,93.09 30.52,94.39 C29.01,95.69 27.24,97.19 25.61,98.44 C23.98,99.7 22.02,101.13 20.34,102.22 C18.66,103.32 16.84,104.33 15.1,105.29 C13.36,106.26 11.27,107.4 9.47,108.26 C7.66,109.12 5.64,109.98 3.81,110.67 C1.97,111.37 -0.12,112 -2,112.61 C-3.89,113.22 -7.01,114.19 -7.96,114.5 Z" fill="#333"></path><path d="M-8.3,122.2 C-7.36,121.84 -4.28,120.67 -2.45,119.93 C-0.62,119.18 1.34,118.33 3.13,117.55 C4.93,116.76 7,115.8 8.77,115 C10.55,114.2 12.46,113.45 14.22,112.55 C15.99,111.64 18.07,110.39 19.81,109.35 C21.54,108.3 23.41,107.11 25.06,106.02 C26.7,104.92 28.53,103.63 30.1,102.5 C31.67,101.37 33.34,100.15 34.9,98.94 C36.45,97.74 38.3,96.27 39.83,94.96 C41.35,93.65 42.93,92.09 44.43,90.77 C45.92,89.45 47.6,88.01 49.16,86.7 C50.71,85.39 52.57,83.83 54.14,82.59 C55.71,81.34 57.38,80.01 58.97,78.9 C60.55,77.8 62.33,76.69 64.05,75.68 C65.77,74.67 67.95,73.54 69.73,72.59 C71.5,71.65 73.38,70.62 75.13,69.78 C76.87,68.95 78.8,68.16 80.64,67.38 C82.48,66.59 84.72,65.65 86.62,64.89 C88.52,64.13 90.62,63.34 92.51,62.62 C94.39,61.91 96.53,61.12 98.39,60.44 C100.25,59.76 102.26,59.06 104.11,58.36 C105.96,57.67 108.12,56.88 109.94,56.09 C111.77,55.31 113.77,54.33 115.51,53.45 C117.24,52.56 119.09,51.54 120.77,50.55 C122.46,49.56 124.37,48.35 126.02,47.26 C127.67,46.17 129.51,44.89 131.07,43.73 C132.63,42.58 134.29,41.24 135.78,40.03 C137.28,38.81 138.91,37.45 140.43,36.15 C141.95,34.85 143.7,33.25 145.26,31.89 C146.81,30.54 148.58,28.99 150.16,27.69 C151.73,26.39 153.52,24.98 155.12,23.76 C156.72,22.55 158.48,21.21 160.16,20.11 C161.83,19 163.82,17.85 165.59,16.86 C167.36,15.87 169.4,14.85 171.22,13.92 C173.04,12.99 175.11,11.95 176.96,11.06 C178.82,10.18 180.93,9.19 182.83,8.4 C184.74,7.61 186.97,6.81 188.88,6.14 C190.79,5.46 192.86,4.79 194.79,4.18 C196.71,3.58 199.01,2.95 200.89,2.34 C202.78,1.74 205.67,0.73 206.58,0.42 L206.6,0.46 C205.71,0.84 202.91,2.08 201.07,2.84 C199.24,3.59 197.02,4.46 195.14,5.19 C193.26,5.93 191.24,6.72 189.34,7.41 C187.44,8.1 185.2,8.84 183.26,9.52 C181.33,10.19 179.11,10.87 177.23,11.65 C175.34,12.44 173.27,13.46 171.49,14.43 C169.71,15.39 167.77,16.59 166.08,17.68 C164.39,18.77 162.54,20.07 160.92,21.22 C159.29,22.37 157.52,23.63 155.95,24.85 C154.38,26.07 152.65,27.52 151.09,28.82 C149.54,30.13 147.77,31.66 146.21,33 C144.66,34.35 142.89,35.95 141.36,37.24 C139.83,38.54 138.17,39.86 136.66,41.09 C135.16,42.31 133.51,43.7 131.95,44.9 C130.39,46.09 128.56,47.45 126.9,48.57 C125.23,49.68 123.27,50.87 121.56,51.87 C119.84,52.87 117.97,53.91 116.21,54.8 C114.45,55.69 112.39,56.63 110.54,57.43 C108.69,58.23 106.52,59.07 104.66,59.78 C102.8,60.49 100.78,61.23 98.9,61.86 C97.02,62.49 94.81,63.12 92.9,63.74 C90.98,64.35 88.83,65.02 86.92,65.73 C85.01,66.43 82.75,67.31 80.93,68.12 C79.12,68.94 77.31,69.94 75.61,70.83 C73.9,71.71 72.02,72.69 70.29,73.67 C68.57,74.65 66.49,75.92 64.82,76.96 C63.15,78 61.41,79.09 59.84,80.17 C58.28,81.26 56.6,82.52 55.03,83.73 C53.45,84.94 51.58,86.46 50.01,87.73 C48.44,89 46.74,90.41 45.21,91.68 C43.67,92.95 41.98,94.37 40.44,95.67 C38.9,96.97 37.13,98.54 35.6,99.8 C34.07,101.06 32.44,102.35 30.88,103.53 C29.32,104.71 27.5,106.06 25.85,107.18 C24.19,108.3 22.28,109.49 20.51,110.54 C18.75,111.58 16.61,112.81 14.82,113.72 C13.02,114.63 11.11,115.46 9.3,116.22 C7.49,116.99 5.36,117.84 3.5,118.5 C1.65,119.16 -0.41,119.74 -2.3,120.34 C-4.19,120.94 -7.32,121.94 -8.28,122.24 Z" fill="#333"></path><path d="M-8.73,129.74 C-7.83,129.39 -4.93,128.33 -3.08,127.57 C-1.23,126.8 1,125.77 2.84,124.96 C4.69,124.15 6.65,123.27 8.46,122.5 C10.26,121.74 12.29,121 14.11,120.18 C15.93,119.37 18.03,118.37 19.8,117.41 C21.58,116.46 23.54,115.29 25.21,114.24 C26.87,113.18 28.6,111.93 30.2,110.8 C31.8,109.67 33.62,108.4 35.21,107.19 C36.8,105.97 38.62,104.48 40.13,103.21 C41.64,101.93 43.13,100.54 44.64,99.23 C46.14,97.92 47.96,96.36 49.53,95 C51.09,93.64 52.85,92.01 54.42,90.72 C55.99,89.43 57.74,88.08 59.34,86.92 C60.94,85.76 62.76,84.54 64.43,83.49 C66.09,82.43 68.04,81.26 69.75,80.3 C71.45,79.34 73.29,78.35 75.08,77.5 C76.86,76.64 79.04,75.73 80.88,74.96 C82.72,74.19 84.71,73.4 86.58,72.71 C88.45,72.01 90.64,71.3 92.55,70.61 C94.46,69.91 96.68,69.07 98.53,68.38 C100.39,67.69 102.3,67.02 104.15,66.29 C106,65.57 108.2,64.66 110.08,63.85 C111.96,63.04 114.08,62.09 115.89,61.23 C117.69,60.38 119.61,59.43 121.35,58.51 C123.09,57.58 125.03,56.47 126.75,55.45 C128.46,54.43 130.39,53.25 132.07,52.14 C133.75,51.04 135.61,49.77 137.24,48.55 C138.87,47.33 140.72,45.78 142.25,44.5 C143.78,43.22 145.3,41.84 146.81,40.55 C148.32,39.26 150.15,37.72 151.69,36.42 C153.24,35.11 154.94,33.61 156.48,32.39 C158.02,31.17 159.68,29.94 161.33,28.79 C162.97,27.64 165.04,26.3 166.76,25.22 C168.48,24.14 170.29,23.03 172.06,22.04 C173.83,21.05 176,19.97 177.82,19.05 C179.63,18.13 181.59,17.11 183.42,16.28 C185.26,15.45 187.44,14.56 189.3,13.87 C191.15,13.17 193.13,12.54 195.04,11.94 C196.95,11.34 199.31,10.68 201.23,10.1 C203.16,9.52 206.13,8.59 207.07,8.3 L207.11,8.43 C206.21,8.8 203.32,9.98 201.45,10.72 C199.58,11.46 197.29,12.33 195.43,13.05 C193.56,13.77 191.64,14.52 189.79,15.21 C187.94,15.9 185.74,16.65 183.87,17.36 C182,18.07 179.95,18.82 178.11,19.66 C176.27,20.5 174.12,21.6 172.37,22.6 C170.63,23.6 168.88,24.79 167.21,25.92 C165.55,27.05 163.55,28.47 161.95,29.65 C160.36,30.84 158.76,32.12 157.24,33.34 C155.72,34.56 153.96,35.97 152.43,37.29 C150.91,38.61 149.18,40.26 147.69,41.58 C146.2,42.89 144.64,44.23 143.1,45.51 C141.56,46.79 139.68,48.31 138.06,49.58 C136.44,50.84 134.65,52.25 132.97,53.4 C131.29,54.56 129.31,55.74 127.57,56.77 C125.82,57.79 123.84,58.89 122.07,59.82 C120.3,60.75 118.35,61.7 116.52,62.56 C114.69,63.42 112.54,64.4 110.64,65.21 C108.74,66.03 106.5,66.92 104.64,67.64 C102.78,68.37 100.88,69.08 99.01,69.75 C97.15,70.43 94.91,71.2 93,71.88 C91.09,72.55 88.92,73.31 87.06,73.98 C85.2,74.65 83.19,75.32 81.36,76.08 C79.54,76.83 77.43,77.84 75.67,78.68 C73.9,79.51 72,80.36 70.31,81.29 C68.62,82.23 66.73,83.45 65.1,84.52 C63.48,85.6 61.71,86.84 60.15,88.02 C58.59,89.19 56.91,90.58 55.34,91.86 C53.78,93.13 51.95,94.65 50.37,95.99 C48.79,97.32 46.99,98.9 45.47,100.19 C43.95,101.49 42.38,102.81 40.85,104.07 C39.33,105.34 37.5,106.85 35.92,108.1 C34.33,109.35 32.55,110.72 30.94,111.86 C29.33,113.01 27.55,114.22 25.85,115.26 C24.15,116.31 22.14,117.43 20.35,118.41 C18.56,119.39 16.47,120.5 14.66,121.39 C12.85,122.27 10.85,123.18 9.02,123.92 C7.19,124.66 5.14,125.35 3.22,125.99 C1.31,126.63 -1.05,127.3 -2.96,127.91 C-4.87,128.52 -7.79,129.5 -8.71,129.8 Z" fill="#333"></path><path d="M-9.18,137.31 C-8.25,136.94 -5.23,135.77 -3.38,135.01 C-1.52,134.26 0.6,133.37 2.43,132.61 C4.26,131.85 6.22,131.01 8.05,130.25 C9.88,129.49 12.02,128.65 13.86,127.88 C15.7,127.1 17.78,126.22 19.54,125.41 C21.31,124.6 23.15,123.73 24.9,122.81 C26.65,121.9 28.77,120.73 30.48,119.69 C32.19,118.66 33.97,117.44 35.58,116.32 C37.19,115.21 38.98,113.98 40.54,112.75 C42.11,111.52 43.82,109.93 45.35,108.63 C46.89,107.33 48.59,105.92 50.11,104.63 C51.64,103.34 53.33,101.86 54.89,100.56 C56.44,99.26 58.28,97.74 59.83,96.5 C61.38,95.27 63.01,94 64.59,92.84 C66.17,91.68 68.06,90.36 69.72,89.27 C71.37,88.19 73.24,87.05 74.94,86.06 C76.63,85.07 78.53,83.96 80.32,83.07 C82.1,82.18 84.24,81.26 86.07,80.49 C87.9,79.73 89.91,78.98 91.76,78.29 C93.62,77.6 95.73,76.85 97.65,76.19 C99.57,75.52 101.86,74.74 103.76,74.11 C105.66,73.48 107.65,72.9 109.52,72.23 C111.39,71.57 113.59,70.71 115.43,69.95 C117.27,69.19 119.21,68.36 121.02,67.48 C122.82,66.61 124.97,65.46 126.68,64.47 C128.4,63.48 130.15,62.42 131.75,61.32 C133.35,60.21 135.09,58.8 136.69,57.57 C138.3,56.35 140.17,54.95 141.79,53.68 C143.41,52.41 145.21,50.93 146.81,49.64 C148.4,48.34 150.19,46.85 151.78,45.55 C153.38,44.26 155.19,42.82 156.8,41.53 C158.41,40.23 160.24,38.72 161.86,37.48 C163.47,36.23 165.21,34.89 166.87,33.74 C168.54,32.6 170.58,31.36 172.27,30.32 C173.95,29.29 175.74,28.18 177.43,27.27 C179.12,26.37 181.08,25.48 182.83,24.67 C184.57,23.86 186.53,22.94 188.33,22.19 C190.13,21.44 192.22,20.63 194.07,19.98 C195.92,19.33 197.99,18.69 199.89,18.13 C201.8,17.56 204.98,16.7 205.95,16.42 L206,16.57 C205.07,16.94 201.99,18.13 200.15,18.86 C198.31,19.59 196.31,20.42 194.49,21.11 C192.67,21.81 190.55,22.51 188.75,23.22 C186.95,23.93 184.96,24.75 183.22,25.54 C181.49,26.32 179.56,27.23 177.89,28.13 C176.22,29.03 174.45,30.12 172.8,31.18 C171.15,32.24 169.23,33.61 167.58,34.75 C165.93,35.89 164.1,37.08 162.48,38.28 C160.86,39.49 159.04,41 157.44,42.29 C155.85,43.59 154.08,45.07 152.51,46.4 C150.94,47.73 149.19,49.26 147.62,50.6 C146.05,51.94 144.28,53.46 142.68,54.78 C141.08,56.1 139.26,57.6 137.63,58.84 C136.01,60.08 134.18,61.44 132.53,62.53 C130.88,63.62 129.09,64.66 127.34,65.65 C125.59,66.64 123.43,67.82 121.62,68.72 C119.8,69.63 117.86,70.53 116.01,71.31 C114.15,72.09 111.91,72.91 110.03,73.59 C108.15,74.27 106.18,74.95 104.27,75.58 C102.37,76.21 100.04,76.88 98.12,77.53 C96.19,78.17 94.09,78.91 92.25,79.6 C90.41,80.28 88.41,81.03 86.6,81.79 C84.79,82.56 82.7,83.51 80.94,84.39 C79.19,85.27 77.31,86.35 75.64,87.32 C73.96,88.29 72.11,89.4 70.47,90.46 C68.82,91.51 66.93,92.78 65.34,93.9 C63.76,95.02 62.12,96.22 60.57,97.44 C59.02,98.65 57.21,100.19 55.68,101.5 C54.14,102.81 52.47,104.31 50.97,105.63 C49.48,106.96 47.86,108.47 46.32,109.77 C44.78,111.07 42.95,112.54 41.36,113.77 C39.77,115 38.04,116.36 36.4,117.46 C34.76,118.56 32.84,119.63 31.1,120.65 C29.35,121.67 27.24,122.9 25.48,123.84 C23.72,124.79 21.87,125.69 20.1,126.55 C18.33,127.41 16.27,128.41 14.42,129.21 C12.57,130.01 10.4,130.87 8.53,131.55 C6.67,132.24 4.64,132.9 2.75,133.51 C0.87,134.13 -1.34,134.77 -3.25,135.38 C-5.16,136 -8.22,137.03 -9.17,137.34 Z" fill="#333"></path><path d="M-3.88,142.97 C-2.97,142.59 -0.03,141.37 1.8,140.62 C3.63,139.88 5.7,139.04 7.58,138.32 C9.46,137.61 11.63,136.89 13.54,136.17 C15.46,135.45 17.65,134.63 19.55,133.82 C21.44,133.01 23.57,132.04 25.37,131.12 C27.16,130.2 29.07,129.09 30.76,128.04 C32.45,127 34.32,125.72 35.91,124.59 C37.5,123.47 39.17,122.19 40.68,121.02 C42.19,119.85 43.83,118.56 45.36,117.29 C46.89,116.01 48.73,114.36 50.27,113.04 C51.81,111.73 53.45,110.37 54.98,109.07 C56.52,107.76 58.28,106.21 59.86,104.9 C61.44,103.6 63.28,102.14 64.86,100.91 C66.45,99.69 68.12,98.36 69.77,97.22 C71.41,96.09 73.41,94.84 75.14,93.8 C76.87,92.76 78.76,91.65 80.56,90.72 C82.35,89.79 84.5,88.84 86.38,88.01 C88.26,87.18 90.4,86.26 92.3,85.51 C94.2,84.77 96.39,84.02 98.25,83.37 C100.12,82.72 102.09,82.09 103.94,81.47 C105.8,80.84 108,80.12 109.84,79.48 C111.69,78.84 113.67,78.17 115.47,77.49 C117.27,76.8 119.31,75.98 121.09,75.2 C122.87,74.41 124.84,73.49 126.59,72.58 C128.34,71.68 130.32,70.56 132.01,69.54 C133.69,68.52 135.48,67.36 137.11,66.21 C138.73,65.07 140.56,63.63 142.18,62.38 C143.8,61.12 145.65,59.64 147.24,58.37 C148.83,57.1 150.53,55.72 152.11,54.43 C153.69,53.14 155.56,51.6 157.11,50.31 C158.67,49.01 160.32,47.6 161.84,46.34 C163.37,45.08 165.02,43.68 166.63,42.45 C168.25,41.22 170.24,39.79 171.93,38.64 C173.63,37.49 175.48,36.29 177.22,35.27 C178.96,34.24 180.99,33.13 182.81,32.22 C184.64,31.32 186.75,30.38 188.62,29.61 C190.49,28.83 192.64,28.03 194.5,27.36 C196.37,26.68 198.35,26 200.27,25.39 C202.19,24.78 205.5,23.83 206.5,23.54 L206.55,23.68 C205.58,24.05 202.37,25.3 200.51,26.04 C198.64,26.78 196.69,27.54 194.87,28.3 C193.05,29.06 190.97,29.98 189.14,30.8 C187.31,31.62 185.21,32.53 183.42,33.43 C181.62,34.34 179.64,35.43 177.92,36.44 C176.2,37.45 174.36,38.61 172.68,39.74 C171.01,40.88 169.07,42.33 167.45,43.53 C165.83,44.73 164.11,46.01 162.57,47.23 C161.03,48.45 159.38,49.84 157.84,51.15 C156.3,52.46 154.5,54.08 152.96,55.41 C151.41,56.75 149.75,58.21 148.17,59.51 C146.59,60.81 144.73,62.31 143.08,63.56 C141.43,64.81 139.53,66.18 137.87,67.33 C136.22,68.49 134.45,69.75 132.75,70.79 C131.04,71.82 128.98,72.89 127.21,73.81 C125.44,74.72 123.47,75.7 121.67,76.5 C119.88,77.31 117.81,78.13 116,78.84 C114.19,79.55 112.22,80.29 110.37,80.94 C108.52,81.58 106.29,82.27 104.43,82.88 C102.58,83.49 100.61,84.11 98.75,84.75 C96.89,85.39 94.71,86.15 92.82,86.86 C90.93,87.58 88.77,88.4 86.92,89.22 C85.06,90.04 82.99,91.06 81.23,92.01 C79.47,92.95 77.64,94.08 75.94,95.11 C74.23,96.14 72.24,97.34 70.59,98.43 C68.94,99.52 67.19,100.7 65.61,101.9 C64.03,103.1 62.28,104.63 60.72,105.94 C59.15,107.24 57.36,108.75 55.85,110.07 C54.34,111.4 52.82,112.91 51.29,114.24 C49.76,115.57 47.83,117.13 46.28,118.4 C44.73,119.68 43.12,121.04 41.59,122.22 C40.05,123.4 38.33,124.66 36.69,125.76 C35.06,126.86 33.11,128.08 31.38,129.09 C29.65,130.11 27.68,131.16 25.88,132.11 C24.07,133.07 21.98,134.18 20.09,135.06 C18.21,135.93 16.01,136.83 14.08,137.57 C12.16,138.31 9.98,139.06 8.06,139.69 C6.15,140.32 4,140.93 2.11,141.49 C0.21,142.05 -2.86,142.9 -3.8,143.17 Z" fill="#333"></path><path d="M-2.63,149.78 C-1.7,149.4 1.33,148.12 3.18,147.41 C5.03,146.7 7.1,146 8.94,145.35 C10.78,144.7 12.82,144.03 14.66,143.37 C16.51,142.71 18.6,141.97 20.47,141.2 C22.34,140.43 24.56,139.41 26.37,138.57 C28.18,137.74 30.06,136.87 31.78,135.96 C33.49,135.05 35.41,133.91 37.08,132.89 C38.76,131.87 40.62,130.69 42.23,129.59 C43.84,128.48 45.61,127.22 47.15,125.99 C48.69,124.77 50.38,123.24 51.87,121.93 C53.36,120.62 54.99,119.15 56.47,117.83 C57.95,116.5 59.58,114.98 61.12,113.65 C62.66,112.32 64.49,110.81 66.11,109.54 C67.72,108.27 69.56,106.9 71.22,105.73 C72.88,104.56 74.79,103.29 76.48,102.22 C78.18,101.15 80.05,100.06 81.82,99.07 C83.59,98.07 85.72,96.91 87.54,96.01 C89.37,95.11 91.37,94.24 93.2,93.44 C95.03,92.65 97.17,91.78 99,91.04 C100.83,90.3 102.82,89.5 104.65,88.8 C106.48,88.09 108.54,87.37 110.43,86.66 C112.33,85.94 114.62,85.06 116.49,84.34 C118.36,83.62 120.33,82.89 122.11,82.16 C123.88,81.42 125.81,80.57 127.58,79.75 C129.35,78.93 131.42,77.97 133.17,77.02 C134.92,76.07 136.87,74.88 138.53,73.8 C140.18,72.72 141.92,71.44 143.51,70.27 C145.1,69.09 146.92,67.66 148.47,66.44 C150.03,65.22 151.73,63.88 153.23,62.64 C154.73,61.41 156.33,60.03 157.86,58.74 C159.38,57.45 161.21,55.87 162.77,54.56 C164.33,53.25 166.05,51.83 167.6,50.57 C169.15,49.31 170.83,47.89 172.47,46.67 C174.11,45.45 176.12,44.02 177.84,42.97 C179.55,41.92 181.41,41.01 183.18,40.12 C184.95,39.22 187.08,38.22 188.92,37.37 C190.76,36.53 192.82,35.59 194.7,34.85 C196.58,34.12 198.76,33.4 200.65,32.78 C202.54,32.16 205.6,31.27 206.54,30.99 L206.58,31.11 C205.67,31.47 202.69,32.59 200.85,33.32 C199,34.05 196.9,34.91 195.05,35.69 C193.21,36.48 191.13,37.34 189.32,38.21 C187.51,39.09 185.45,40.19 183.75,41.16 C182.05,42.14 180.35,43.23 178.68,44.3 C177.02,45.37 175,46.71 173.35,47.87 C171.69,49.03 169.94,50.32 168.37,51.54 C166.8,52.75 165.08,54.16 163.53,55.46 C161.98,56.77 160.19,58.39 158.69,59.7 C157.18,61.02 155.6,62.42 154.1,63.68 C152.61,64.94 150.91,66.31 149.36,67.56 C147.81,68.81 146.01,70.3 144.4,71.48 C142.78,72.66 140.96,73.87 139.27,74.95 C137.59,76.03 135.63,77.28 133.86,78.25 C132.09,79.23 129.99,80.22 128.2,81.06 C126.41,81.91 124.47,82.77 122.68,83.52 C120.89,84.27 118.91,85.04 117.03,85.77 C115.16,86.51 112.85,87.4 110.95,88.11 C109.05,88.83 106.99,89.55 105.16,90.24 C103.33,90.92 101.35,91.7 99.51,92.4 C97.67,93.1 95.53,93.88 93.69,94.62 C91.85,95.35 89.84,96.15 88.01,96.99 C86.18,97.83 84.01,98.87 82.27,99.86 C80.52,100.84 78.73,102.04 77.09,103.15 C75.44,104.26 73.59,105.57 71.97,106.77 C70.36,107.97 68.56,109.36 66.98,110.64 C65.4,111.92 63.62,113.46 62.08,114.78 C60.54,116.09 58.87,117.57 57.36,118.85 C55.85,120.14 54.17,121.57 52.63,122.83 C51.08,124.08 49.26,125.47 47.71,126.7 C46.16,127.93 44.5,129.36 42.91,130.53 C41.33,131.71 39.48,132.97 37.8,134.03 C36.13,135.09 34.16,136.22 32.42,137.15 C30.69,138.07 28.78,138.95 26.96,139.8 C25.13,140.66 22.89,141.69 21,142.47 C19.11,143.26 17.02,144.06 15.16,144.7 C13.29,145.35 11.22,145.95 9.35,146.53 C7.49,147.11 5.4,147.76 3.5,148.31 C1.59,148.87 -1.58,149.73 -2.54,150 Z" fill="#333"></path><path d="M6.92,154.26 C7.87,153.92 10.96,152.84 12.83,152.15 C14.69,151.46 16.79,150.65 18.61,149.94 C20.43,149.22 22.39,148.45 24.19,147.69 C25.99,146.92 28.02,146.02 29.84,145.17 C31.66,144.31 33.79,143.32 35.58,142.34 C37.37,141.35 39.29,140.11 41.02,139 C42.75,137.88 44.76,136.56 46.4,135.37 C48.04,134.19 49.7,132.87 51.27,131.6 C52.85,130.34 54.69,128.83 56.23,127.47 C57.76,126.11 59.36,124.5 60.87,123.11 C62.38,121.72 64.11,120.13 65.67,118.77 C67.23,117.4 69.02,115.86 70.63,114.57 C72.24,113.29 74.09,111.89 75.72,110.72 C77.35,109.55 79.12,108.31 80.8,107.26 C82.49,106.2 84.46,105.06 86.23,104.1 C88.01,103.14 90.11,102.1 91.9,101.25 C93.7,100.39 95.67,99.53 97.44,98.77 C99.22,98 101.17,97.16 103.01,96.46 C104.85,95.77 107.03,95.06 108.96,94.42 C110.89,93.77 113.15,93.06 115.06,92.43 C116.96,91.81 119,91.15 120.87,90.51 C122.74,89.87 124.88,89.14 126.74,88.42 C128.61,87.69 130.75,86.84 132.55,85.98 C134.35,85.12 136.25,84.07 137.99,83.04 C139.73,82.01 141.77,80.68 143.43,79.55 C145.08,78.42 146.81,77.17 148.34,76 C149.87,74.82 151.48,73.49 153.01,72.21 C154.53,70.94 156.33,69.36 157.87,68.05 C159.41,66.74 161.14,65.29 162.65,64.01 C164.16,62.72 165.82,61.28 167.31,60.01 C168.8,58.74 170.42,57.32 171.97,56.06 C173.52,54.81 175.39,53.35 176.99,52.18 C178.59,51 180.27,49.8 181.98,48.74 C183.68,47.69 185.83,46.53 187.64,45.58 C189.45,44.64 191.46,43.64 193.28,42.83 C195.1,42.03 197.21,41.23 199.05,40.55 C200.88,39.87 203.85,38.89 204.77,38.57 L204.85,38.78 C203.96,39.16 201.06,40.34 199.28,41.13 C197.5,41.93 195.48,42.86 193.71,43.75 C191.94,44.63 189.97,45.65 188.22,46.65 C186.47,47.65 184.43,48.94 182.76,50.01 C181.09,51.07 179.4,52.2 177.78,53.31 C176.17,54.43 174.23,55.75 172.68,56.97 C171.13,58.18 169.54,59.64 168.07,60.92 C166.6,62.2 164.98,63.68 163.49,64.99 C162.01,66.31 160.32,67.8 158.79,69.13 C157.25,70.46 155.45,72.06 153.91,73.32 C152.36,74.59 150.67,75.87 149.11,77.04 C147.54,78.21 145.81,79.49 144.13,80.62 C142.45,81.75 140.37,83.05 138.61,84.1 C136.85,85.14 134.94,86.25 133.13,87.15 C131.32,88.06 129.2,89.01 127.32,89.77 C125.44,90.52 123.26,91.21 121.38,91.86 C119.5,92.51 117.46,93.19 115.56,93.83 C113.65,94.48 111.39,95.23 109.47,95.88 C107.55,96.53 105.38,97.24 103.55,97.92 C101.71,98.61 99.78,99.41 98.02,100.15 C96.25,100.9 94.3,101.75 92.53,102.59 C90.76,103.44 88.7,104.5 86.96,105.45 C85.21,106.41 83.28,107.53 81.62,108.57 C79.97,109.61 78.21,110.8 76.61,111.96 C75,113.12 73.2,114.53 71.6,115.81 C70.01,117.08 68.23,118.61 66.64,119.93 C65.05,121.24 63.25,122.74 61.66,124.03 C60.07,125.33 58.29,126.72 56.7,128.03 C55.11,129.33 53.31,130.91 51.74,132.19 C50.16,133.47 48.49,134.79 46.86,136.01 C45.23,137.24 43.29,138.69 41.57,139.86 C39.85,141.02 37.9,142.26 36.11,143.3 C34.32,144.33 32.24,145.48 30.39,146.33 C28.55,147.19 26.42,147.96 24.58,148.64 C22.73,149.32 20.72,149.99 18.86,150.6 C16.99,151.2 14.83,151.82 12.92,152.41 C11.01,153.01 7.89,154 6.94,154.3 Z" fill="#333"></path><path d="M29.08,153.98 C29.96,153.55 32.82,152.22 34.56,151.32 C36.3,150.41 38.22,149.3 39.94,148.31 C41.67,147.32 43.67,146.19 45.33,145.12 C47,144.06 48.77,142.78 50.36,141.66 C51.95,140.53 53.71,139.28 55.25,138.09 C56.79,136.9 58.48,135.52 59.98,134.23 C61.49,132.94 63.19,131.36 64.66,130.04 C66.13,128.72 67.7,127.28 69.17,125.97 C70.64,124.67 72.26,123.18 73.83,121.9 C75.4,120.62 77.3,119.18 78.98,117.99 C80.67,116.79 82.68,115.49 84.37,114.42 C86.06,113.36 87.83,112.23 89.55,111.31 C91.26,110.39 93.3,109.48 95.09,108.66 C96.89,107.84 98.95,106.94 100.77,106.16 C102.58,105.39 104.61,104.58 106.44,103.82 C108.28,103.07 110.36,102.2 112.25,101.46 C114.14,100.71 116.38,99.87 118.25,99.18 C120.12,98.48 122.13,97.78 123.95,97.11 C125.78,96.43 127.84,95.7 129.66,94.95 C131.49,94.21 133.59,93.29 135.37,92.46 C137.15,91.62 139.05,90.68 140.79,89.73 C142.52,88.78 144.56,87.58 146.22,86.52 C147.87,85.45 149.57,84.24 151.13,83.1 C152.68,81.95 154.39,80.62 155.92,79.37 C157.45,78.13 159.2,76.6 160.69,75.32 C162.19,74.05 163.72,72.7 165.24,71.4 C166.76,70.1 168.6,68.52 170.19,67.2 C171.78,65.88 173.6,64.42 175.18,63.16 C176.76,61.9 178.41,60.54 180.05,59.34 C181.69,58.14 183.7,56.78 185.43,55.66 C187.15,54.55 189.06,53.35 190.84,52.39 C192.62,51.43 194.97,50.38 196.55,49.67 C198.14,48.95 200.07,48.21 200.74,47.94 L201.07,48.65 C200.42,48.96 198.54,49.82 197.01,50.6 C195.47,51.38 193.2,52.55 191.45,53.52 C189.7,54.49 187.77,55.59 186.06,56.68 C184.35,57.77 182.38,59.13 180.76,60.32 C179.13,61.5 177.48,62.83 175.92,64.09 C174.36,65.35 172.58,66.85 171.02,68.19 C169.46,69.54 167.67,71.17 166.18,72.5 C164.68,73.82 163.18,75.2 161.68,76.49 C160.19,77.78 158.42,79.33 156.86,80.55 C155.29,81.78 153.5,83.05 151.91,84.18 C150.32,85.3 148.6,86.52 146.93,87.61 C145.26,88.7 143.24,89.99 141.49,90.98 C139.74,91.96 137.8,92.92 135.99,93.76 C134.18,94.61 132.04,95.47 130.2,96.23 C128.36,97 126.31,97.81 124.49,98.52 C122.66,99.24 120.67,99.99 118.79,100.69 C116.91,101.38 114.65,102.17 112.75,102.86 C110.84,103.55 108.72,104.27 106.88,104.98 C105.03,105.69 103.03,106.51 101.23,107.29 C99.44,108.07 97.42,109.03 95.66,109.88 C93.91,110.73 91.94,111.69 90.27,112.62 C88.59,113.55 86.84,114.63 85.18,115.69 C83.52,116.75 81.57,118.08 79.89,119.25 C78.22,120.42 76.31,121.81 74.71,123.02 C73.11,124.22 71.39,125.57 69.87,126.8 C68.35,128.03 66.73,129.41 65.22,130.69 C63.7,131.96 61.94,133.47 60.42,134.75 C58.9,136.03 57.23,137.44 55.73,138.69 C54.22,139.94 52.57,141.35 51.02,142.55 C49.46,143.75 47.71,145.12 46.02,146.18 C44.32,147.25 42.24,148.32 40.44,149.21 C38.64,150.1 36.58,150.96 34.77,151.73 C32.95,152.5 30.01,153.66 29.1,154.03 Z" fill="#333"></path><path d="M44.19,154.76 C44.98,154.22 47.55,152.53 49.14,151.39 C50.72,150.26 52.57,148.86 54.11,147.66 C55.65,146.46 57.26,145.1 58.76,143.89 C60.25,142.68 61.94,141.35 63.45,140.09 C64.96,138.84 66.7,137.31 68.21,136.03 C69.71,134.75 71.4,133.33 72.88,132.07 C74.35,130.81 75.94,129.38 77.43,128.16 C78.92,126.94 80.58,125.61 82.17,124.43 C83.77,123.25 85.7,121.85 87.41,120.77 C89.11,119.7 91.08,118.64 92.81,117.72 C94.55,116.79 96.43,115.84 98.24,115.01 C100.05,114.17 102.28,113.23 104.12,112.48 C105.96,111.74 107.95,111.03 109.75,110.36 C111.55,109.68 113.49,108.97 115.36,108.28 C117.24,107.59 119.55,106.75 121.46,106.07 C123.36,105.38 125.38,104.69 127.26,103.98 C129.14,103.28 131.35,102.43 133.2,101.66 C135.04,100.88 137.03,99.97 138.81,99.12 C140.58,98.27 142.55,97.3 144.26,96.35 C145.98,95.39 147.86,94.26 149.53,93.15 C151.2,92.05 153.12,90.62 154.7,89.44 C156.27,88.25 157.85,86.96 159.36,85.73 C160.86,84.5 162.62,83.02 164.11,81.75 C165.6,80.48 167.19,79.08 168.67,77.8 C170.14,76.51 171.77,75.03 173.31,73.73 C174.85,72.42 176.71,70.87 178.28,69.63 C179.85,68.39 181.52,67.12 183.12,65.95 C184.72,64.79 186.6,63.46 188.3,62.36 C190.01,61.26 191.97,60.02 193.79,59.08 C195.61,58.15 198.46,57.01 199.66,56.49 C200.86,55.98 201.05,55.97 201.31,55.87 L201.53,56.3 C201.29,56.45 201.16,56.59 200.02,57.2 C198.87,57.81 196.14,59.14 194.37,60.13 C192.6,61.12 190.66,62.29 188.97,63.38 C187.28,64.46 185.39,65.73 183.81,66.9 C182.23,68.06 180.62,69.38 179.09,70.65 C177.56,71.91 175.74,73.48 174.22,74.8 C172.7,76.12 171.08,77.6 169.6,78.89 C168.13,80.17 166.51,81.55 165,82.82 C163.5,84.09 161.74,85.57 160.22,86.8 C158.7,88.04 157.08,89.32 155.49,90.52 C153.9,91.72 151.96,93.19 150.28,94.32 C148.6,95.46 146.69,96.63 144.97,97.62 C143.24,98.61 141.26,99.64 139.47,100.5 C137.68,101.37 135.65,102.25 133.78,103.04 C131.91,103.82 129.69,104.71 127.8,105.41 C125.9,106.12 123.85,106.77 121.94,107.44 C120.03,108.11 117.71,108.94 115.83,109.6 C113.95,110.25 111.99,110.91 110.19,111.54 C108.38,112.17 106.38,112.82 104.56,113.56 C102.74,114.29 100.56,115.27 98.79,116.13 C97.02,117 95.18,117.99 93.5,118.94 C91.81,119.89 89.93,121.04 88.25,122.1 C86.57,123.16 84.6,124.45 82.99,125.57 C81.38,126.68 79.69,127.93 78.17,129.09 C76.66,130.25 75.01,131.59 73.51,132.82 C72.01,134.05 70.33,135.47 68.83,136.75 C67.32,138.03 65.58,139.55 64.08,140.83 C62.58,142.11 60.95,143.54 59.45,144.75 C57.94,145.96 56.27,147.29 54.67,148.42 C53.06,149.55 51.09,150.8 49.43,151.84 C47.76,152.87 45.08,154.38 44.25,154.87 Z" fill="#333"></path><path d="M58.51,154.09 C59.27,153.45 61.8,151.37 63.3,150.08 C64.79,148.79 66.34,147.33 67.84,146.03 C69.35,144.73 71.16,143.26 72.71,141.97 C74.25,140.67 75.98,139.25 77.52,137.95 C79.06,136.65 80.74,135.12 82.33,133.83 C83.92,132.54 85.79,131.11 87.45,129.88 C89.12,128.65 91.04,127.27 92.75,126.14 C94.46,125.01 96.42,123.78 98.17,122.82 C99.91,121.86 101.82,120.96 103.66,120.14 C105.49,119.31 107.73,118.37 109.62,117.64 C111.51,116.92 113.59,116.26 115.46,115.6 C117.33,114.95 119.48,114.2 121.32,113.56 C123.17,112.91 125.15,112.24 126.99,111.57 C128.83,110.91 131.01,110.16 132.84,109.42 C134.66,108.69 136.61,107.83 138.39,107 C140.16,106.17 142.16,105.17 143.94,104.25 C145.72,103.33 147.77,102.28 149.53,101.26 C151.29,100.23 153.26,98.93 154.92,97.83 C156.59,96.74 158.32,95.53 159.93,94.4 C161.54,93.26 163.42,91.95 164.99,90.74 C166.55,89.53 168.21,88.11 169.71,86.85 C171.21,85.59 172.85,84.16 174.38,82.87 C175.9,81.58 177.72,80.07 179.23,78.79 C180.74,77.5 182.26,76.1 183.8,74.85 C185.34,73.6 187.2,72.14 188.85,70.98 C190.51,69.81 192.42,68.59 194.15,67.57 C195.88,66.56 198.41,65.28 199.67,64.64 C200.93,64 201.64,63.76 202.02,63.59 L202.23,63.97 C201.88,64.19 201.24,64.6 200.06,65.35 C198.87,66.1 196.45,67.55 194.81,68.66 C193.16,69.76 191.36,71.07 189.75,72.26 C188.14,73.45 186.29,74.86 184.76,76.09 C183.23,77.31 181.68,78.66 180.17,79.92 C178.66,81.19 176.86,82.71 175.33,83.99 C173.8,85.26 172.13,86.66 170.6,87.89 C169.06,89.12 167.33,90.47 165.75,91.67 C164.16,92.88 162.29,94.23 160.69,95.41 C159.09,96.58 157.4,97.88 155.73,99.02 C154.07,100.16 152.04,101.46 150.27,102.52 C148.5,103.58 146.44,104.71 144.64,105.66 C142.84,106.61 140.82,107.63 139.01,108.45 C137.21,109.27 135.22,110.08 133.37,110.8 C131.53,111.53 129.34,112.31 127.49,112.98 C125.64,113.64 123.66,114.31 121.81,114.95 C119.96,115.58 117.81,116.27 115.95,116.93 C114.09,117.59 112.06,118.34 110.19,119.07 C108.32,119.8 106.09,120.69 104.27,121.49 C102.45,122.29 100.56,123.15 98.82,124.06 C97.08,124.97 95.1,126.09 93.39,127.16 C91.67,128.24 89.76,129.6 88.1,130.8 C86.43,132 84.57,133.4 82.98,134.67 C81.4,135.95 79.72,137.46 78.21,138.78 C76.7,140.1 75.08,141.63 73.55,142.94 C72.02,144.26 70.23,145.76 68.66,147 C67.1,148.24 65.39,149.52 63.79,150.69 C62.18,151.85 59.46,153.69 58.64,154.27 Z" fill="#333"></path><path d="M67.57,156.69 C68.29,156.02 70.68,153.81 72.11,152.46 C73.54,151.11 75.1,149.62 76.52,148.25 C77.94,146.89 79.45,145.29 80.96,143.93 C82.47,142.57 84.36,141 85.94,139.75 C87.52,138.5 89.21,137.24 90.84,136.12 C92.47,134.99 94.38,133.75 96.11,132.72 C97.84,131.69 99.87,130.58 101.65,129.68 C103.42,128.78 105.41,127.86 107.19,127.07 C108.97,126.28 110.99,125.46 112.79,124.73 C114.59,124.01 116.59,123.25 118.44,122.53 C120.29,121.82 122.43,120.96 124.33,120.25 C126.23,119.53 128.45,118.74 130.31,118.04 C132.17,117.34 134.09,116.62 135.93,115.87 C137.77,115.13 140,114.21 141.82,113.4 C143.64,112.59 145.57,111.67 147.33,110.79 C149.09,109.91 151.07,108.88 152.8,107.9 C154.54,106.92 156.52,105.74 158.17,104.68 C159.81,103.61 161.48,102.38 163.06,101.22 C164.63,100.05 166.43,98.66 167.99,97.41 C169.56,96.16 171.31,94.68 172.84,93.41 C174.37,92.13 176.05,90.73 177.56,89.44 C179.07,88.14 180.73,86.58 182.26,85.31 C183.78,84.04 185.51,82.71 187.08,81.51 C188.66,80.31 190.44,78.92 192.1,77.83 C193.76,76.73 195.7,75.63 197.46,74.65 C199.22,73.67 202.17,72.17 203.1,71.72 C204.02,71.26 203.22,71.78 203.25,71.79 L203.34,71.95 C203.34,71.97 204.18,71.54 203.33,72.11 C202.47,72.67 199.64,74.36 197.98,75.48 C196.32,76.59 194.56,77.89 192.96,79.05 C191.37,80.21 189.59,81.55 188.03,82.74 C186.48,83.93 184.78,85.25 183.24,86.48 C181.7,87.71 179.94,89.16 178.41,90.42 C176.88,91.69 175.2,93.1 173.65,94.37 C172.11,95.64 170.34,97.1 168.78,98.37 C167.22,99.65 165.46,101.12 163.89,102.33 C162.32,103.53 160.64,104.81 158.99,105.92 C157.34,107.03 155.35,108.28 153.59,109.28 C151.84,110.28 149.81,111.3 148.02,112.18 C146.24,113.06 144.27,113.97 142.42,114.78 C140.57,115.59 138.32,116.52 136.46,117.26 C134.6,118 132.65,118.69 130.79,119.4 C128.93,120.1 126.73,120.97 124.83,121.67 C122.93,122.38 120.75,123.12 118.9,123.8 C117.05,124.48 115.06,125.22 113.27,125.92 C111.48,126.62 109.47,127.4 107.71,128.18 C105.94,128.95 103.99,129.88 102.24,130.78 C100.49,131.68 98.49,132.79 96.78,133.81 C95.06,134.82 93.15,136.01 91.54,137.12 C89.93,138.23 88.27,139.5 86.73,140.76 C85.18,142.03 83.41,143.7 81.86,145.01 C80.32,146.31 78.61,147.68 77.09,148.92 C75.57,150.16 73.89,151.52 72.36,152.76 C70.84,154 68.33,156.06 67.57,156.69 Z" fill="#333"></path><path d="M81.34,154.51 C82.09,153.79 84.58,151.4 86.06,150.03 C87.55,148.67 89.06,147.23 90.59,145.96 C92.13,144.69 94,143.27 95.64,142.08 C97.28,140.9 99.15,139.6 100.83,138.57 C102.52,137.53 104.43,136.5 106.2,135.62 C107.96,134.73 110.04,133.81 111.88,133.02 C113.72,132.23 115.79,131.41 117.67,130.69 C119.55,129.97 121.76,129.17 123.63,128.52 C125.5,127.87 127.48,127.25 129.34,126.62 C131.2,125.99 133.37,125.27 135.24,124.58 C137.11,123.88 139.16,123.03 141.02,122.28 C142.87,121.53 145.01,120.7 146.85,119.89 C148.69,119.09 150.74,118.15 152.49,117.26 C154.24,116.37 156.07,115.36 157.76,114.34 C159.44,113.32 161.42,112.01 163.02,110.88 C164.63,109.76 166.25,108.54 167.8,107.32 C169.35,106.1 171.2,104.59 172.72,103.28 C174.24,101.96 175.82,100.44 177.31,99.12 C178.79,97.79 180.48,96.34 182.01,95.01 C183.53,93.69 185.29,92.11 186.84,90.82 C188.4,89.53 190.13,88.14 191.74,86.97 C193.35,85.79 195.23,84.49 196.9,83.45 C198.58,82.42 201.03,81.15 202.2,80.51 C203.38,79.87 203.91,79.62 204.24,79.46 L204.29,79.54 C203.99,79.75 203.51,80.1 202.42,80.86 C201.33,81.62 199.04,83.13 197.47,84.28 C195.9,85.44 194.17,86.89 192.62,88.11 C191.06,89.33 189.31,90.65 187.75,91.92 C186.19,93.19 184.41,94.72 182.88,96.03 C181.34,97.34 179.65,98.79 178.16,100.11 C176.67,101.43 175.07,102.95 173.55,104.29 C172.03,105.62 170.21,107.21 168.66,108.46 C167.11,109.71 165.46,110.93 163.85,112.09 C162.24,113.26 160.3,114.68 158.6,115.73 C156.9,116.78 154.99,117.77 153.21,118.67 C151.43,119.57 149.36,120.56 147.49,121.36 C145.63,122.16 143.45,122.97 141.56,123.67 C139.67,124.37 137.54,125.06 135.65,125.73 C133.76,126.39 131.61,127.18 129.76,127.83 C127.91,128.47 125.93,129.09 124.07,129.74 C122.21,130.39 120.01,131.16 118.14,131.87 C116.28,132.59 114.23,133.43 112.41,134.22 C110.6,135 108.53,135.88 106.79,136.76 C105.05,137.65 103.19,138.69 101.54,139.73 C99.89,140.77 98.09,142.1 96.46,143.26 C94.84,144.43 92.97,145.82 91.38,147 C89.8,148.17 88.13,149.39 86.55,150.62 C84.97,151.85 82.3,154.04 81.49,154.69 Z" fill="#333"></path><path d="M94.72,152.21 C95.51,151.58 98.02,149.5 99.67,148.28 C101.32,147.05 103.31,145.6 105.01,144.53 C106.72,143.46 108.55,142.51 110.33,141.56 C112.11,140.62 114.24,139.48 116.13,138.62 C118.02,137.76 120.25,136.86 122.13,136.17 C124,135.48 125.96,134.91 127.84,134.3 C129.72,133.69 131.94,132.97 133.88,132.35 C135.82,131.73 138.02,131.07 139.95,130.44 C141.88,129.8 144.09,129.11 145.93,128.38 C147.77,127.66 149.72,126.75 151.46,125.91 C153.2,125.07 155.09,124.07 156.8,123.13 C158.51,122.18 160.49,121.05 162.16,120 C163.83,118.96 165.63,117.71 167.23,116.61 C168.84,115.5 170.6,114.3 172.18,113.08 C173.76,111.85 175.53,110.28 177.11,108.96 C178.7,107.63 180.54,106.13 182.07,104.8 C183.6,103.48 185.14,102.03 186.65,100.69 C188.17,99.35 189.98,97.69 191.55,96.43 C193.11,95.16 194.78,93.9 196.45,92.78 C198.12,91.65 200.6,90.22 202,89.38 C203.4,88.54 204.69,87.82 205.2,87.52 L205.28,87.64 C204.8,87.98 203.57,88.8 202.26,89.77 C200.96,90.73 198.69,92.43 197.11,93.67 C195.54,94.91 193.95,96.21 192.42,97.5 C190.89,98.79 189.08,100.42 187.56,101.75 C186.04,103.08 184.44,104.46 182.92,105.8 C181.41,107.14 179.64,108.76 178.06,110.1 C176.49,111.45 174.64,112.95 173.06,114.21 C171.47,115.46 169.76,116.78 168.15,117.93 C166.54,119.08 164.68,120.33 162.98,121.38 C161.29,122.43 159.28,123.58 157.53,124.51 C155.78,125.44 153.83,126.38 152.05,127.19 C150.27,128 148.27,128.86 146.41,129.58 C144.54,130.3 142.33,131.04 140.41,131.7 C138.48,132.36 136.28,133.06 134.35,133.7 C132.42,134.34 130.2,135.06 128.33,135.69 C126.46,136.32 124.53,136.92 122.69,137.62 C120.84,138.31 118.65,139.23 116.77,140.06 C114.9,140.9 112.75,141.91 110.98,142.83 C109.22,143.75 107.49,144.8 105.77,145.81 C104.06,146.82 101.98,148.06 100.26,149.14 C98.53,150.22 95.82,152.02 94.98,152.57 Z" fill="#333"></path><path d="M109.39,151.52 C110.27,151 113.13,149.25 114.9,148.29 C116.67,147.33 118.63,146.35 120.46,145.52 C122.28,144.7 124.47,143.82 126.31,143.11 C128.16,142.4 130.16,141.75 131.99,141.09 C133.82,140.43 135.93,139.64 137.77,138.98 C139.62,138.33 141.65,137.65 143.54,136.97 C145.43,136.3 147.73,135.48 149.61,134.76 C151.48,134.04 153.49,133.24 155.26,132.46 C157.02,131.67 158.9,130.78 160.65,129.85 C162.4,128.91 164.52,127.7 166.2,126.63 C167.88,125.56 169.58,124.34 171.16,123.18 C172.75,122.02 174.53,120.66 176.11,119.4 C177.7,118.13 179.57,116.6 181.07,115.3 C182.57,114 184.01,112.56 185.49,111.27 C186.97,109.99 188.8,108.52 190.3,107.25 C191.8,105.98 193.35,104.56 194.86,103.36 C196.37,102.16 198.14,100.83 199.74,99.73 C201.33,98.63 204.01,96.99 204.82,96.47 L204.92,96.6 C204.16,97.2 201.67,99.09 200.19,100.33 C198.71,101.57 197.12,103.07 195.68,104.35 C194.24,105.62 192.67,107.01 191.19,108.29 C189.71,109.58 187.92,111.09 186.45,112.39 C184.98,113.69 183.5,115.09 181.99,116.4 C180.49,117.72 178.62,119.31 177.03,120.6 C175.44,121.88 173.65,123.29 172.04,124.45 C170.43,125.61 168.66,126.78 166.95,127.84 C165.23,128.91 163.09,130.15 161.31,131.09 C159.53,132.04 157.63,132.95 155.84,133.77 C154.06,134.58 152.06,135.45 150.18,136.2 C148.3,136.95 145.99,137.78 144.08,138.47 C142.18,139.15 140.14,139.82 138.29,140.46 C136.44,141.11 134.33,141.87 132.5,142.51 C130.67,143.16 128.7,143.81 126.86,144.5 C125.02,145.19 122.85,146.05 121.02,146.81 C119.19,147.58 117.22,148.46 115.4,149.3 C113.58,150.13 110.58,151.59 109.66,152.03 Z" fill="#333"></path><path d="M124.01,152.01 C124.9,151.61 127.71,150.32 129.53,149.53 C131.35,148.73 133.53,147.8 135.37,147.05 C137.21,146.3 139.2,145.52 141.02,144.82 C142.85,144.12 144.89,143.39 146.77,142.69 C148.65,141.99 150.91,141.15 152.76,140.43 C154.61,139.71 156.52,138.96 158.33,138.19 C160.14,137.42 162.31,136.48 164.08,135.62 C165.85,134.77 167.69,133.81 169.37,132.84 C171.05,131.88 172.92,130.7 174.55,129.59 C176.18,128.49 177.99,127.11 179.54,125.91 C181.09,124.72 182.71,123.39 184.24,122.13 C185.76,120.87 187.53,119.35 189.06,118.03 C190.59,116.72 192.27,115.18 193.81,113.9 C195.35,112.63 197.6,110.9 198.67,110.07 C199.75,109.24 200.23,108.92 200.53,108.7 L200.95,109.2 C200.69,109.46 200.29,109.88 199.3,110.81 C198.3,111.73 196.23,113.66 194.74,114.99 C193.25,116.32 191.53,117.8 190.01,119.13 C188.48,120.47 186.75,122.06 185.23,123.33 C183.7,124.61 182.03,125.9 180.46,127.11 C178.9,128.31 177.08,129.74 175.44,130.87 C173.79,132 171.88,133.2 170.17,134.18 C168.47,135.15 166.57,136.11 164.78,136.98 C162.99,137.85 160.81,138.83 158.98,139.62 C157.15,140.41 155.22,141.19 153.36,141.92 C151.49,142.66 149.22,143.52 147.32,144.22 C145.43,144.91 143.37,145.61 141.52,146.24 C139.67,146.87 137.64,147.51 135.77,148.15 C133.89,148.8 131.68,149.6 129.81,150.27 C127.95,150.93 125.04,151.98 124.13,152.31 Z" fill="#333"></path><path d="M140.17,153.93 C141.07,153.59 144,152.49 145.82,151.82 C147.63,151.14 149.67,150.41 151.51,149.69 C153.34,148.97 155.44,148.12 157.28,147.32 C159.12,146.53 161.21,145.6 163.01,144.73 C164.81,143.87 166.77,142.86 168.52,141.92 C170.27,140.98 172.27,139.87 173.94,138.84 C175.6,137.81 177.33,136.6 178.92,135.47 C180.5,134.34 182.28,132.99 183.84,131.78 C185.4,130.57 187.15,129.16 188.67,127.92 C190.19,126.68 191.81,125.27 193.34,124.02 C194.88,122.77 196.86,121.17 198.26,120.09 C199.66,119.01 201.49,117.72 202.1,117.27 L202.39,117.61 C201.84,118.13 200.23,119.66 198.93,120.87 C197.63,122.07 195.77,123.8 194.29,125.12 C192.81,126.44 191.17,127.83 189.66,129.11 C188.15,130.38 186.44,131.87 184.87,133.1 C183.3,134.33 181.46,135.67 179.85,136.8 C178.23,137.93 176.44,139.11 174.75,140.16 C173.06,141.2 171.06,142.39 169.28,143.34 C167.5,144.28 165.47,145.26 163.62,146.07 C161.76,146.87 159.6,147.69 157.69,148.37 C155.79,149.04 153.61,149.69 151.73,150.3 C149.85,150.9 147.78,151.57 145.94,152.16 C144.09,152.75 141.11,153.7 140.19,153.99 Z" fill="#333"></path><path d="M161.39,153.68 C162.31,153.24 165.39,151.83 167.17,150.9 C168.95,149.98 170.79,148.91 172.51,147.9 C174.24,146.89 176.25,145.67 177.94,144.59 C179.63,143.5 181.46,142.26 183.06,141.13 C184.65,140 186.32,138.73 187.9,137.53 C189.48,136.32 191.35,134.8 192.94,133.6 C194.53,132.4 196.24,131.22 197.83,130.01 C199.42,128.79 202.07,126.65 202.88,126.02 L203.15,126.32 C202.39,127.02 199.9,129.35 198.42,130.7 C196.94,132.05 195.42,133.45 193.9,134.75 C192.37,136.04 190.49,137.57 188.89,138.79 C187.3,140.01 185.56,141.23 183.93,142.35 C182.3,143.47 180.44,144.77 178.69,145.81 C176.95,146.84 174.82,147.95 173.01,148.83 C171.2,149.72 169.23,150.56 167.38,151.35 C165.53,152.15 162.39,153.42 161.44,153.81 Z" fill="#333"></path><path d="M176.27,155.07 C177.13,154.52 180.01,152.73 181.65,151.6 C183.29,150.46 184.95,149.19 186.52,147.99 C188.09,146.78 189.87,145.33 191.45,144.06 C193.03,142.79 194.84,141.28 196.39,140.04 C197.94,138.79 200.03,137.18 201.16,136.3 C202.28,135.41 203.06,134.8 203.42,134.52 L203.55,134.67 C203.23,135 202.55,135.72 201.53,136.73 C200.52,137.74 198.68,139.66 197.2,141 C195.72,142.34 193.91,143.88 192.29,145.13 C190.67,146.38 188.74,147.69 187.08,148.79 C185.42,149.9 183.65,151.01 181.92,152.03 C180.19,153.04 177.19,154.62 176.29,155.12 Z" fill="#333"></path><path d="M190.15,154.37 C190.93,153.77 193.44,151.89 195,150.64 C196.56,149.39 198.42,147.8 199.9,146.55 C201.38,145.31 203.55,143.44 204.25,142.85 L204.35,142.96 C203.66,143.57 201.54,145.5 200.07,146.76 C198.6,148.02 196.73,149.6 195.16,150.84 C193.58,152.07 191.03,153.91 190.24,154.49 Z" fill="#333"></path></g></svg>