<svg xmlns="http://www.w3.org/2000/svg" width="200" height="150" viewBox="0 0 200 150" preserveAspectRatio="xMidYMid meet" shape-rendering="auto"><defs><clipPath id="imageBounds"><rect x="0" y="0" width="200" height="150"></rect></clipPath></defs><g clip-path="url(#imageBounds)"><circle stroke="none" fill="#333" cx="-0.23" cy="135" r="0.37"></circle><circle stroke="none" fill="#333" cx="3.42" cy="141.32" r="0.7"></circle><circle stroke="none" fill="#333" cx="7.07" cy="147.65" r="0.63"></circle><circle stroke="none" fill="#333" cx="2.44" cy="125.03" r="0.64"></circle><circle stroke="none" fill="#333" cx="6.09" cy="131.35" r="0.76"></circle><circle stroke="none" fill="#333" cx="9.74" cy="137.67" r="0.76"></circle><circle stroke="none" fill="#333" cx="13.39" cy="144" r="0.73"></circle><circle stroke="none" fill="#333" cx="17.04" cy="150.32" r="0.38"></circle><circle stroke="none" fill="#333" cx="1.46" cy="108.74" r="0.58"></circle><circle stroke="none" fill="#333" cx="5.11" cy="115.06" r="0.72"></circle><circle stroke="none" fill="#333" cx="8.76" cy="121.38" r="0.71"></circle><circle stroke="none" fill="#333" cx="12.41" cy="127.7" r="0.76"></circle><circle stroke="none" fill="#333" cx="16.06" cy="134.02" r="0.75"></circle><circle stroke="none" fill="#333" cx="19.71" cy="140.35" r="0.72"></circle><circle stroke="none" fill="#333" cx="23.36" cy="146.67" r="0.64"></circle><circle stroke="none" fill="#333" cx="0.49" cy="92.44" r="0.39"></circle><circle stroke="none" fill="#333" cx="4.14" cy="98.76" r="0.76"></circle><circle stroke="none" fill="#333" cx="7.79" cy="105.09" r="0.73"></circle><circle stroke="none" fill="#333" cx="11.44" cy="111.41" r="0.71"></circle><circle stroke="none" fill="#333" cx="15.09" cy="117.73" r="0.53"></circle><circle stroke="none" fill="#333" cx="18.74" cy="124.05" r="0.67"></circle><circle stroke="none" fill="#333" cx="22.39" cy="130.37" r="0.63"></circle><circle stroke="none" fill="#333" cx="26.04" cy="136.7" r="0.72"></circle><circle stroke="none" fill="#333" cx="29.69" cy="143.02" r="0.67"></circle><circle stroke="none" fill="#333" cx="33.34" cy="149.34" r="0.45"></circle><circle stroke="none" fill="#333" cx="-0.49" cy="76.15" r="0.28"></circle><circle stroke="none" fill="#333" cx="3.16" cy="82.47" r="0.65"></circle><circle stroke="none" fill="#333" cx="6.81" cy="88.79" r="0.74"></circle><circle stroke="none" fill="#333" cx="10.46" cy="95.11" r="0.65"></circle><circle stroke="none" fill="#333" cx="14.11" cy="101.44" r="0.53"></circle><circle stroke="none" fill="#333" cx="17.76" cy="107.76" r="0.63"></circle><circle stroke="none" fill="#333" cx="21.41" cy="114.08" r="0.64"></circle><circle stroke="none" fill="#333" cx="25.06" cy="120.4" r="0.38"></circle><circle stroke="none" fill="#333" cx="28.71" cy="126.72" r="0.61"></circle><circle stroke="none" fill="#333" cx="32.36" cy="133.05" r="0.77"></circle><circle stroke="none" fill="#333" cx="36.01" cy="139.37" r="0.51"></circle><circle stroke="none" fill="#333" cx="39.66" cy="145.69" r="0.69"></circle><circle stroke="none" fill="#333" cx="2.18" cy="66.18" r="0.62"></circle><circle stroke="none" fill="#333" cx="5.83" cy="72.5" r="0.64"></circle><circle stroke="none" fill="#333" cx="9.48" cy="78.82" r="0.71"></circle><circle stroke="none" fill="#333" cx="13.13" cy="85.14" r="0.63"></circle><circle stroke="none" fill="#333" cx="16.78" cy="91.46" r="0.75"></circle><circle stroke="none" fill="#333" cx="20.43" cy="97.79" r="0.72"></circle><circle stroke="none" fill="#333" cx="24.08" cy="104.11" r="0.76"></circle><circle stroke="none" fill="#333" cx="27.73" cy="110.43" r="0.75"></circle><circle stroke="none" fill="#333" cx="31.38" cy="116.75" r="0.52"></circle><circle stroke="none" fill="#333" cx="35.03" cy="123.07" r="0.67"></circle><circle stroke="none" fill="#333" cx="38.68" cy="129.4" r="0.76"></circle><circle stroke="none" fill="#333" cx="42.33" cy="135.72" r="0.51"></circle><circle stroke="none" fill="#333" cx="45.98" cy="142.04" r="0.57"></circle><circle stroke="none" fill="#333" cx="49.63" cy="148.36" r="0.57"></circle><circle stroke="none" fill="#333" cx="1.2" cy="49.88" r="0.45"></circle><circle stroke="none" fill="#333" cx="4.85" cy="56.2" r="0.6"></circle><circle stroke="none" fill="#333" cx="8.5" cy="62.53" r="0.6"></circle><circle stroke="none" fill="#333" cx="12.15" cy="68.85" r="0.77"></circle><circle stroke="none" fill="#333" cx="15.8" cy="75.17" r="0.71"></circle><circle stroke="none" fill="#333" cx="19.45" cy="81.49" r="0.6"></circle><circle stroke="none" fill="#333" cx="23.1" cy="87.81" r="0.61"></circle><circle stroke="none" fill="#333" cx="26.75" cy="94.14" r="0.69"></circle><circle stroke="none" fill="#333" cx="30.4" cy="100.46" r="0.69"></circle><circle stroke="none" fill="#333" cx="34.05" cy="106.78" r="0.69"></circle><circle stroke="none" fill="#333" cx="37.7" cy="113.1" r="0.7"></circle><circle stroke="none" fill="#333" cx="41.35" cy="119.42" r="0.63"></circle><circle stroke="none" fill="#333" cx="45" cy="125.75" r="0.43"></circle><circle stroke="none" fill="#333" cx="48.65" cy="132.07" r="0.41"></circle><circle stroke="none" fill="#333" cx="52.3" cy="138.39" r="0.37"></circle><circle stroke="none" fill="#333" cx="55.95" cy="144.71" r="0.65"></circle><circle stroke="none" fill="#333" cx="59.6" cy="151.03" r="0.26"></circle><circle stroke="none" fill="#333" cx="0.22" cy="33.59" r="0.35"></circle><circle stroke="none" fill="#333" cx="3.87" cy="39.91" r="0.74"></circle><circle stroke="none" fill="#333" cx="7.52" cy="46.23" r="0.64"></circle><circle stroke="none" fill="#333" cx="11.17" cy="52.55" r="0.66"></circle><circle stroke="none" fill="#333" cx="14.82" cy="58.88" r="0.64"></circle><circle stroke="none" fill="#333" cx="18.47" cy="65.2" r="0.71"></circle><circle stroke="none" fill="#333" cx="22.12" cy="71.52" r="0.64"></circle><circle stroke="none" fill="#333" cx="25.77" cy="77.84" r="0.61"></circle><circle stroke="none" fill="#333" cx="29.42" cy="84.16" r="0.57"></circle><circle stroke="none" fill="#333" cx="33.07" cy="90.49" r="0.53"></circle><circle stroke="none" fill="#333" cx="36.72" cy="96.81" r="0.51"></circle><circle stroke="none" fill="#333" cx="40.37" cy="103.13" r="0.4"></circle><circle stroke="none" fill="#333" cx="44.02" cy="109.45" r="0.61"></circle><circle stroke="none" fill="#333" cx="47.67" cy="115.77" r="0.78"></circle><circle stroke="none" fill="#333" cx="51.32" cy="122.1" r="0.54"></circle><circle stroke="none" fill="#333" cx="54.97" cy="128.42" r="0.31"></circle><circle stroke="none" fill="#333" cx="58.62" cy="134.74" r="0.26"></circle><circle stroke="none" fill="#333" cx="62.27" cy="141.06" r="0.53"></circle><circle stroke="none" fill="#333" cx="65.92" cy="147.38" r="0.71"></circle><circle stroke="none" fill="#333" cx="-0.75" cy="17.29" r="0.26"></circle><circle stroke="none" fill="#333" cx="2.9" cy="23.62" r="0.68"></circle><circle stroke="none" fill="#333" cx="6.55" cy="29.94" r="0.67"></circle><circle stroke="none" fill="#333" cx="10.2" cy="36.26" r="0.62"></circle><circle stroke="none" fill="#333" cx="13.85" cy="42.58" r="0.74"></circle><circle stroke="none" fill="#333" cx="17.5" cy="48.9" r="0.65"></circle><circle stroke="none" fill="#333" cx="21.15" cy="55.23" r="0.65"></circle><circle stroke="none" fill="#333" cx="24.8" cy="61.55" r="0.68"></circle><circle stroke="none" fill="#333" cx="28.45" cy="67.87" r="0.59"></circle><circle stroke="none" fill="#333" cx="32.1" cy="74.19" r="0.58"></circle><circle stroke="none" fill="#333" cx="35.75" cy="80.51" r="0.39"></circle><circle stroke="none" fill="#333" cx="39.4" cy="86.84" r="0.37"></circle><circle stroke="none" fill="#333" cx="43.05" cy="93.16" r="0.47"></circle><circle stroke="none" fill="#333" cx="46.7" cy="99.48" r="0.71"></circle><circle stroke="none" fill="#333" cx="50.35" cy="105.8" r="0.75"></circle><circle stroke="none" fill="#333" cx="54" cy="112.12" r="0.71"></circle><circle stroke="none" fill="#333" cx="57.65" cy="118.45" r="0.75"></circle><circle stroke="none" fill="#333" cx="61.3" cy="124.77" r="0.54"></circle><circle stroke="none" fill="#333" cx="64.95" cy="131.09" r="0.36"></circle><circle stroke="none" fill="#333" cx="68.6" cy="137.41" r="0.46"></circle><circle stroke="none" fill="#333" cx="72.25" cy="143.73" r="0.67"></circle><circle stroke="none" fill="#333" cx="75.9" cy="150.06" r="0.39"></circle><circle stroke="none" fill="#333" cx="1.92" cy="7.32" r="0.56"></circle><circle stroke="none" fill="#333" cx="5.57" cy="13.64" r="0.7"></circle><circle stroke="none" fill="#333" cx="9.22" cy="19.97" r="0.65"></circle><circle stroke="none" fill="#333" cx="12.87" cy="26.29" r="0.72"></circle><circle stroke="none" fill="#333" cx="16.52" cy="32.61" r="0.64"></circle><circle stroke="none" fill="#333" cx="20.17" cy="38.93" r="0.61"></circle><circle stroke="none" fill="#333" cx="23.82" cy="45.25" r="0.69"></circle><circle stroke="none" fill="#333" cx="27.47" cy="51.58" r="0.68"></circle><circle stroke="none" fill="#333" cx="31.12" cy="57.9" r="0.64"></circle><circle stroke="none" fill="#333" cx="34.77" cy="64.22" r="0.73"></circle><circle stroke="none" fill="#333" cx="38.42" cy="70.54" r="0.63"></circle><circle stroke="none" fill="#333" cx="42.07" cy="76.86" r="0.49"></circle><circle stroke="none" fill="#333" cx="45.72" cy="83.19" r="0.6"></circle><circle stroke="none" fill="#333" cx="49.37" cy="89.51" r="0.75"></circle><circle stroke="none" fill="#333" cx="53.02" cy="95.83" r="0.61"></circle><circle stroke="none" fill="#333" cx="56.67" cy="102.15" r="0.45"></circle><circle stroke="none" fill="#333" cx="60.32" cy="108.47" r="0.72"></circle><circle stroke="none" fill="#333" cx="63.97" cy="114.8" r="0.76"></circle><circle stroke="none" fill="#333" cx="67.62" cy="121.12" r="0.73"></circle><circle stroke="none" fill="#333" cx="71.27" cy="127.44" r="0.59"></circle><circle stroke="none" fill="#333" cx="74.92" cy="133.76" r="0.45"></circle><circle stroke="none" fill="#333" cx="78.57" cy="140.08" r="0.57"></circle><circle stroke="none" fill="#333" cx="82.22" cy="146.41" r="0.76"></circle><circle stroke="none" fill="#333" cx="8.24" cy="3.67" r="0.69"></circle><circle stroke="none" fill="#333" cx="11.89" cy="9.99" r="0.71"></circle><circle stroke="none" fill="#333" cx="15.54" cy="16.32" r="0.63"></circle><circle stroke="none" fill="#333" cx="19.19" cy="22.64" r="0.58"></circle><circle stroke="none" fill="#333" cx="22.84" cy="28.96" r="0.67"></circle><circle stroke="none" fill="#333" cx="26.49" cy="35.28" r="0.71"></circle><circle stroke="none" fill="#333" cx="30.14" cy="41.6" r="0.68"></circle><circle stroke="none" fill="#333" cx="33.79" cy="47.93" r="0.71"></circle><circle stroke="none" fill="#333" cx="37.44" cy="54.25" r="0.77"></circle><circle stroke="none" fill="#333" cx="41.09" cy="60.57" r="0.72"></circle><circle stroke="none" fill="#333" cx="44.74" cy="66.89" r="0.72"></circle><circle stroke="none" fill="#333" cx="48.39" cy="73.21" r="0.73"></circle><circle stroke="none" fill="#333" cx="52.04" cy="79.54" r="0.76"></circle><circle stroke="none" fill="#333" cx="55.69" cy="85.86" r="0.76"></circle><circle stroke="none" fill="#333" cx="59.34" cy="92.18" r="0.72"></circle><circle stroke="none" fill="#333" cx="62.99" cy="98.5" r="0.64"></circle><circle stroke="none" fill="#333" cx="66.64" cy="104.82" r="0.61"></circle><circle stroke="none" fill="#333" cx="70.29" cy="111.15" r="0.71"></circle><circle stroke="none" fill="#333" cx="73.94" cy="117.47" r="0.74"></circle><circle stroke="none" fill="#333" cx="77.59" cy="123.79" r="0.68"></circle><circle stroke="none" fill="#333" cx="81.24" cy="130.11" r="0.61"></circle><circle stroke="none" fill="#333" cx="84.89" cy="136.43" r="0.57"></circle><circle stroke="none" fill="#333" cx="88.54" cy="142.76" r="0.73"></circle><circle stroke="none" fill="#333" cx="92.19" cy="149.08" r="0.5"></circle><circle stroke="none" fill="#333" cx="14.56" cy="0.02" r="0.37"></circle><circle stroke="none" fill="#333" cx="18.21" cy="6.34" r="0.7"></circle><circle stroke="none" fill="#333" cx="21.86" cy="12.67" r="0.72"></circle><circle stroke="none" fill="#333" cx="25.51" cy="18.99" r="0.76"></circle><circle stroke="none" fill="#333" cx="29.16" cy="25.31" r="0.69"></circle><circle stroke="none" fill="#333" cx="32.81" cy="31.63" r="0.7"></circle><circle stroke="none" fill="#333" cx="36.46" cy="37.95" r="0.75"></circle><circle stroke="none" fill="#333" cx="40.11" cy="44.28" r="0.76"></circle><circle stroke="none" fill="#333" cx="43.76" cy="50.6" r="0.73"></circle><circle stroke="none" fill="#333" cx="47.41" cy="56.92" r="0.74"></circle><circle stroke="none" fill="#333" cx="51.06" cy="63.24" r="0.75"></circle><circle stroke="none" fill="#333" cx="54.71" cy="69.56" r="0.75"></circle><circle stroke="none" fill="#333" cx="58.36" cy="75.89" r="0.77"></circle><circle stroke="none" fill="#333" cx="62.01" cy="82.21" r="0.74"></circle><circle stroke="none" fill="#333" cx="65.66" cy="88.53" r="0.51"></circle><circle stroke="none" fill="#333" cx="69.31" cy="94.85" r="0.77"></circle><circle stroke="none" fill="#333" cx="72.96" cy="101.17" r="0.56"></circle><circle stroke="none" fill="#333" cx="76.61" cy="107.5" r="0.77"></circle><circle stroke="none" fill="#333" cx="80.26" cy="113.82" r="0.77"></circle><circle stroke="none" fill="#333" cx="83.91" cy="120.14" r="0.76"></circle><circle stroke="none" fill="#333" cx="87.56" cy="126.46" r="0.61"></circle><circle stroke="none" fill="#333" cx="91.21" cy="132.78" r="0.6"></circle><circle stroke="none" fill="#333" cx="94.86" cy="139.11" r="0.68"></circle><circle stroke="none" fill="#333" cx="98.51" cy="145.43" r="0.76"></circle><circle stroke="none" fill="#333" cx="24.53" cy="2.69" r="0.7"></circle><circle stroke="none" fill="#333" cx="28.18" cy="9.02" r="0.73"></circle><circle stroke="none" fill="#333" cx="31.83" cy="15.34" r="0.75"></circle><circle stroke="none" fill="#333" cx="35.48" cy="21.66" r="0.76"></circle><circle stroke="none" fill="#333" cx="39.13" cy="27.98" r="0.76"></circle><circle stroke="none" fill="#333" cx="42.78" cy="34.3" r="0.76"></circle><circle stroke="none" fill="#333" cx="46.43" cy="40.63" r="0.77"></circle><circle stroke="none" fill="#333" cx="50.08" cy="46.95" r="0.77"></circle><circle stroke="none" fill="#333" cx="53.73" cy="53.27" r="0.75"></circle><circle stroke="none" fill="#333" cx="57.38" cy="59.59" r="0.75"></circle><circle stroke="none" fill="#333" cx="61.03" cy="65.91" r="0.75"></circle><circle stroke="none" fill="#333" cx="64.68" cy="72.24" r="0.75"></circle><circle stroke="none" fill="#333" cx="68.33" cy="78.56" r="0.56"></circle><circle stroke="none" fill="#333" cx="71.98" cy="84.88" r="0.65"></circle><circle stroke="none" fill="#333" cx="75.63" cy="91.2" r="0.77"></circle><circle stroke="none" fill="#333" cx="79.28" cy="97.52" r="0.57"></circle><circle stroke="none" fill="#333" cx="82.93" cy="103.85" r="0.68"></circle><circle stroke="none" fill="#333" cx="86.58" cy="110.17" r="0.76"></circle><circle stroke="none" fill="#333" cx="90.23" cy="116.49" r="0.77"></circle><circle stroke="none" fill="#333" cx="93.88" cy="122.81" r="0.71"></circle><circle stroke="none" fill="#333" cx="97.53" cy="129.13" r="0.63"></circle><circle stroke="none" fill="#333" cx="101.18" cy="135.46" r="0.6"></circle><circle stroke="none" fill="#333" cx="104.83" cy="141.78" r="0.76"></circle><circle stroke="none" fill="#333" cx="108.48" cy="148.1" r="0.58"></circle><circle stroke="none" fill="#333" cx="30.86" cy="-0.96" r="0.26"></circle><circle stroke="none" fill="#333" cx="34.51" cy="5.37" r="0.77"></circle><circle stroke="none" fill="#333" cx="38.16" cy="11.69" r="0.76"></circle><circle stroke="none" fill="#333" cx="41.81" cy="18.01" r="0.78"></circle><circle stroke="none" fill="#333" cx="45.46" cy="24.33" r="0.79"></circle><circle stroke="none" fill="#333" cx="49.11" cy="30.65" r="0.77"></circle><circle stroke="none" fill="#333" cx="52.76" cy="36.98" r="0.78"></circle><circle stroke="none" fill="#333" cx="56.41" cy="43.3" r="0.79"></circle><circle stroke="none" fill="#333" cx="60.06" cy="49.62" r="0.74"></circle><circle stroke="none" fill="#333" cx="63.71" cy="55.94" r="0.75"></circle><circle stroke="none" fill="#333" cx="67.36" cy="62.26" r="0.72"></circle><circle stroke="none" fill="#333" cx="71.01" cy="68.59" r="0.44"></circle><circle stroke="none" fill="#333" cx="74.66" cy="74.91" r="0.59"></circle><circle stroke="none" fill="#333" cx="78.31" cy="81.23" r="0.69"></circle><circle stroke="none" fill="#333" cx="81.96" cy="87.55" r="0.67"></circle><circle stroke="none" fill="#333" cx="85.61" cy="93.87" r="0.69"></circle><circle stroke="none" fill="#333" cx="89.26" cy="100.2" r="0.57"></circle><circle stroke="none" fill="#333" cx="92.91" cy="106.52" r="0.75"></circle><circle stroke="none" fill="#333" cx="96.56" cy="112.84" r="0.73"></circle><circle stroke="none" fill="#333" cx="100.21" cy="119.16" r="0.76"></circle><circle stroke="none" fill="#333" cx="103.86" cy="125.48" r="0.65"></circle><circle stroke="none" fill="#333" cx="107.51" cy="131.81" r="0.63"></circle><circle stroke="none" fill="#333" cx="111.16" cy="138.13" r="0.73"></circle><circle stroke="none" fill="#333" cx="114.81" cy="144.45" r="0.76"></circle><circle stroke="none" fill="#333" cx="118.46" cy="150.77" r="0.32"></circle><circle stroke="none" fill="#333" cx="40.83" cy="1.72" r="0.58"></circle><circle stroke="none" fill="#333" cx="44.48" cy="8.04" r="0.73"></circle><circle stroke="none" fill="#333" cx="48.13" cy="14.36" r="0.71"></circle><circle stroke="none" fill="#333" cx="51.78" cy="20.68" r="0.76"></circle><circle stroke="none" fill="#333" cx="55.43" cy="27" r="0.78"></circle><circle stroke="none" fill="#333" cx="59.08" cy="33.33" r="0.74"></circle><circle stroke="none" fill="#333" cx="62.73" cy="39.65" r="0.69"></circle><circle stroke="none" fill="#333" cx="66.38" cy="45.97" r="0.77"></circle><circle stroke="none" fill="#333" cx="70.03" cy="52.29" r="0.74"></circle><circle stroke="none" fill="#333" cx="73.68" cy="58.61" r="0.71"></circle><circle stroke="none" fill="#333" cx="77.33" cy="64.94" r="0.48"></circle><circle stroke="none" fill="#333" cx="80.98" cy="71.26" r="0.51"></circle><circle stroke="none" fill="#333" cx="84.63" cy="77.58" r="0.71"></circle><circle stroke="none" fill="#333" cx="88.28" cy="83.9" r="0.66"></circle><circle stroke="none" fill="#333" cx="91.93" cy="90.22" r="0.74"></circle><circle stroke="none" fill="#333" cx="95.58" cy="96.55" r="0.71"></circle><circle stroke="none" fill="#333" cx="99.23" cy="102.87" r="0.63"></circle><circle stroke="none" fill="#333" cx="102.88" cy="109.19" r="0.56"></circle><circle stroke="none" fill="#333" cx="106.53" cy="115.51" r="0.7"></circle><circle stroke="none" fill="#333" cx="110.18" cy="121.83" r="0.74"></circle><circle stroke="none" fill="#333" cx="113.83" cy="128.16" r="0.61"></circle><circle stroke="none" fill="#333" cx="117.48" cy="134.48" r="0.68"></circle><circle stroke="none" fill="#333" cx="121.13" cy="140.8" r="0.76"></circle><circle stroke="none" fill="#333" cx="124.78" cy="147.12" r="0.72"></circle><circle stroke="none" fill="#333" cx="50.8" cy="4.39" r="0.73"></circle><circle stroke="none" fill="#333" cx="54.45" cy="10.71" r="0.75"></circle><circle stroke="none" fill="#333" cx="58.1" cy="17.03" r="0.79"></circle><circle stroke="none" fill="#333" cx="61.75" cy="23.35" r="0.78"></circle><circle stroke="none" fill="#333" cx="65.4" cy="29.68" r="0.72"></circle><circle stroke="none" fill="#333" cx="69.05" cy="36" r="0.7"></circle><circle stroke="none" fill="#333" cx="72.7" cy="42.32" r="0.77"></circle><circle stroke="none" fill="#333" cx="76.35" cy="48.64" r="0.47"></circle><circle stroke="none" fill="#333" cx="80" cy="54.96" r="0.41"></circle><circle stroke="none" fill="#333" cx="87.3" cy="67.61" r="0.45"></circle><circle stroke="none" fill="#333" cx="90.95" cy="73.93" r="0.71"></circle><circle stroke="none" fill="#333" cx="94.6" cy="80.25" r="0.75"></circle><circle stroke="none" fill="#333" cx="98.25" cy="86.57" r="0.71"></circle><circle stroke="none" fill="#333" cx="101.9" cy="92.9" r="0.76"></circle><circle stroke="none" fill="#333" cx="105.55" cy="99.22" r="0.79"></circle><circle stroke="none" fill="#333" cx="109.2" cy="105.54" r="0.76"></circle><circle stroke="none" fill="#333" cx="112.85" cy="111.86" r="0.63"></circle><circle stroke="none" fill="#333" cx="116.5" cy="118.18" r="0.63"></circle><circle stroke="none" fill="#333" cx="120.15" cy="124.51" r="0.73"></circle><circle stroke="none" fill="#333" cx="123.8" cy="130.83" r="0.6"></circle><circle stroke="none" fill="#333" cx="127.45" cy="137.15" r="0.78"></circle><circle stroke="none" fill="#333" cx="131.1" cy="143.47" r="0.76"></circle><circle stroke="none" fill="#333" cx="134.75" cy="149.79" r="0.39"></circle><circle stroke="none" fill="#333" cx="57.12" cy="0.74" r="0.46"></circle><circle stroke="none" fill="#333" cx="60.77" cy="7.06" r="0.76"></circle><circle stroke="none" fill="#333" cx="64.42" cy="13.38" r="0.75"></circle><circle stroke="none" fill="#333" cx="68.07" cy="19.7" r="0.75"></circle><circle stroke="none" fill="#333" cx="71.72" cy="26.03" r="0.68"></circle><circle stroke="none" fill="#333" cx="75.37" cy="32.35" r="0.68"></circle><circle stroke="none" fill="#333" cx="79.02" cy="38.67" r="0.76"></circle><circle stroke="none" fill="#333" cx="82.67" cy="44.99" r="0.64"></circle><circle stroke="none" fill="#333" cx="86.32" cy="51.31" r="0.61"></circle><circle stroke="none" fill="#333" cx="89.97" cy="57.64" r="0.51"></circle><circle stroke="none" fill="#333" cx="93.62" cy="63.96" r="0.74"></circle><circle stroke="none" fill="#333" cx="97.27" cy="70.28" r="0.75"></circle><circle stroke="none" fill="#333" cx="100.92" cy="76.6" r="0.74"></circle><circle stroke="none" fill="#333" cx="104.57" cy="82.92" r="0.75"></circle><circle stroke="none" fill="#333" cx="108.22" cy="89.25" r="0.77"></circle><circle stroke="none" fill="#333" cx="111.87" cy="95.57" r="0.77"></circle><circle stroke="none" fill="#333" cx="115.52" cy="101.89" r="0.76"></circle><circle stroke="none" fill="#333" cx="119.17" cy="108.21" r="0.7"></circle><circle stroke="none" fill="#333" cx="122.82" cy="114.53" r="0.77"></circle><circle stroke="none" fill="#333" cx="126.47" cy="120.86" r="0.79"></circle><circle stroke="none" fill="#333" cx="130.12" cy="127.18" r="0.66"></circle><circle stroke="none" fill="#333" cx="133.77" cy="133.5" r="0.73"></circle><circle stroke="none" fill="#333" cx="137.42" cy="139.82" r="0.77"></circle><circle stroke="none" fill="#333" cx="141.07" cy="146.14" r="0.76"></circle><circle stroke="none" fill="#333" cx="67.09" cy="3.41" r="0.68"></circle><circle stroke="none" fill="#333" cx="70.74" cy="9.73" r="0.75"></circle><circle stroke="none" fill="#333" cx="74.39" cy="16.05" r="0.73"></circle><circle stroke="none" fill="#333" cx="78.04" cy="22.38" r="0.71"></circle><circle stroke="none" fill="#333" cx="81.69" cy="28.7" r="0.63"></circle><circle stroke="none" fill="#333" cx="85.34" cy="35.02" r="0.7"></circle><circle stroke="none" fill="#333" cx="88.99" cy="41.34" r="0.74"></circle><circle stroke="none" fill="#333" cx="92.64" cy="47.66" r="0.74"></circle><circle stroke="none" fill="#333" cx="96.29" cy="53.99" r="0.68"></circle><circle stroke="none" fill="#333" cx="99.94" cy="60.31" r="0.72"></circle><circle stroke="none" fill="#333" cx="103.59" cy="66.63" r="0.76"></circle><circle stroke="none" fill="#333" cx="107.24" cy="72.95" r="0.77"></circle><circle stroke="none" fill="#333" cx="110.89" cy="79.27" r="0.75"></circle><circle stroke="none" fill="#333" cx="114.54" cy="85.6" r="0.74"></circle><circle stroke="none" fill="#333" cx="118.19" cy="91.92" r="0.75"></circle><circle stroke="none" fill="#333" cx="121.84" cy="98.24" r="0.75"></circle><circle stroke="none" fill="#333" cx="125.49" cy="104.56" r="0.73"></circle><circle stroke="none" fill="#333" cx="129.14" cy="110.88" r="0.75"></circle><circle stroke="none" fill="#333" cx="132.79" cy="117.21" r="0.78"></circle><circle stroke="none" fill="#333" cx="136.44" cy="123.53" r="0.72"></circle><circle stroke="none" fill="#333" cx="140.09" cy="129.85" r="0.6"></circle><circle stroke="none" fill="#333" cx="143.74" cy="136.17" r="0.76"></circle><circle stroke="none" fill="#333" cx="147.39" cy="142.49" r="0.78"></circle><circle stroke="none" fill="#333" cx="151.04" cy="148.82" r="0.53"></circle><circle stroke="none" fill="#333" cx="73.42" cy="-0.24" r="0.39"></circle><circle stroke="none" fill="#333" cx="77.07" cy="6.08" r="0.78"></circle><circle stroke="none" fill="#333" cx="80.72" cy="12.4" r="0.74"></circle><circle stroke="none" fill="#333" cx="84.37" cy="18.73" r="0.71"></circle><circle stroke="none" fill="#333" cx="88.02" cy="25.05" r="0.73"></circle><circle stroke="none" fill="#333" cx="91.67" cy="31.37" r="0.71"></circle><circle stroke="none" fill="#333" cx="95.32" cy="37.69" r="0.75"></circle><circle stroke="none" fill="#333" cx="98.97" cy="44.01" r="0.71"></circle><circle stroke="none" fill="#333" cx="102.62" cy="50.34" r="0.7"></circle><circle stroke="none" fill="#333" cx="106.27" cy="56.66" r="0.72"></circle><circle stroke="none" fill="#333" cx="109.92" cy="62.98" r="0.73"></circle><circle stroke="none" fill="#333" cx="113.57" cy="69.3" r="0.74"></circle><circle stroke="none" fill="#333" cx="117.22" cy="75.62" r="0.68"></circle><circle stroke="none" fill="#333" cx="120.87" cy="81.95" r="0.71"></circle><circle stroke="none" fill="#333" cx="124.52" cy="88.27" r="0.7"></circle><circle stroke="none" fill="#333" cx="128.17" cy="94.59" r="0.71"></circle><circle stroke="none" fill="#333" cx="131.82" cy="100.91" r="0.72"></circle><circle stroke="none" fill="#333" cx="135.47" cy="107.23" r="0.75"></circle><circle stroke="none" fill="#333" cx="139.12" cy="113.56" r="0.77"></circle><circle stroke="none" fill="#333" cx="142.77" cy="119.88" r="0.78"></circle><circle stroke="none" fill="#333" cx="146.42" cy="126.2" r="0.63"></circle><circle stroke="none" fill="#333" cx="150.07" cy="132.52" r="0.74"></circle><circle stroke="none" fill="#333" cx="153.72" cy="138.84" r="0.75"></circle><circle stroke="none" fill="#333" cx="157.37" cy="145.17" r="0.75"></circle><circle stroke="none" fill="#333" cx="83.39" cy="2.43" r="0.64"></circle><circle stroke="none" fill="#333" cx="87.04" cy="8.75" r="0.76"></circle><circle stroke="none" fill="#333" cx="90.69" cy="15.08" r="0.78"></circle><circle stroke="none" fill="#333" cx="94.34" cy="21.4" r="0.71"></circle><circle stroke="none" fill="#333" cx="97.99" cy="27.72" r="0.74"></circle><circle stroke="none" fill="#333" cx="101.64" cy="34.04" r="0.79"></circle><circle stroke="none" fill="#333" cx="105.29" cy="40.36" r="0.78"></circle><circle stroke="none" fill="#333" cx="108.94" cy="46.69" r="0.77"></circle><circle stroke="none" fill="#333" cx="112.59" cy="53.01" r="0.77"></circle><circle stroke="none" fill="#333" cx="116.24" cy="59.33" r="0.77"></circle><circle stroke="none" fill="#333" cx="119.89" cy="65.65" r="0.74"></circle><circle stroke="none" fill="#333" cx="123.54" cy="71.97" r="0.67"></circle><circle stroke="none" fill="#333" cx="127.19" cy="78.3" r="0.73"></circle><circle stroke="none" fill="#333" cx="130.84" cy="84.62" r="0.76"></circle><circle stroke="none" fill="#333" cx="134.49" cy="90.94" r="0.71"></circle><circle stroke="none" fill="#333" cx="138.14" cy="97.26" r="0.75"></circle><circle stroke="none" fill="#333" cx="141.79" cy="103.58" r="0.77"></circle><circle stroke="none" fill="#333" cx="145.44" cy="109.91" r="0.79"></circle><circle stroke="none" fill="#333" cx="149.09" cy="116.23" r="0.79"></circle><circle stroke="none" fill="#333" cx="152.74" cy="122.55" r="0.78"></circle><circle stroke="none" fill="#333" cx="156.39" cy="128.87" r="0.58"></circle><circle stroke="none" fill="#333" cx="160.04" cy="135.19" r="0.75"></circle><circle stroke="none" fill="#333" cx="163.69" cy="141.52" r="0.78"></circle><circle stroke="none" fill="#333" cx="167.34" cy="147.84" r="0.61"></circle><circle stroke="none" fill="#333" cx="93.36" cy="5.1" r="0.74"></circle><circle stroke="none" fill="#333" cx="97.01" cy="11.43" r="0.77"></circle><circle stroke="none" fill="#333" cx="100.66" cy="17.75" r="0.73"></circle><circle stroke="none" fill="#333" cx="104.31" cy="24.07" r="0.69"></circle><circle stroke="none" fill="#333" cx="107.96" cy="30.39" r="0.79"></circle><circle stroke="none" fill="#333" cx="111.61" cy="36.71" r="0.79"></circle><circle stroke="none" fill="#333" cx="115.26" cy="43.04" r="0.79"></circle><circle stroke="none" fill="#333" cx="118.91" cy="49.36" r="0.79"></circle><circle stroke="none" fill="#333" cx="122.56" cy="55.68" r="0.75"></circle><circle stroke="none" fill="#333" cx="126.21" cy="62" r="0.69"></circle><circle stroke="none" fill="#333" cx="129.86" cy="68.32" r="0.66"></circle><circle stroke="none" fill="#333" cx="133.51" cy="74.65" r="0.73"></circle><circle stroke="none" fill="#333" cx="137.16" cy="80.97" r="0.55"></circle><circle stroke="none" fill="#333" cx="140.81" cy="87.29" r="0.62"></circle><circle stroke="none" fill="#333" cx="144.46" cy="93.61" r="0.76"></circle><circle stroke="none" fill="#333" cx="148.11" cy="99.93" r="0.76"></circle><circle stroke="none" fill="#333" cx="151.76" cy="106.26" r="0.73"></circle><circle stroke="none" fill="#333" cx="155.41" cy="112.58" r="0.78"></circle><circle stroke="none" fill="#333" cx="159.06" cy="118.9" r="0.79"></circle><circle stroke="none" fill="#333" cx="162.71" cy="125.22" r="0.73"></circle><circle stroke="none" fill="#333" cx="166.36" cy="131.54" r="0.73"></circle><circle stroke="none" fill="#333" cx="170.01" cy="137.87" r="0.77"></circle><circle stroke="none" fill="#333" cx="173.66" cy="144.19" r="0.77"></circle><circle stroke="none" fill="#333" cx="177.31" cy="150.51" r="0.26"></circle><circle stroke="none" fill="#333" cx="99.68" cy="1.45" r="0.56"></circle><circle stroke="none" fill="#333" cx="103.33" cy="7.78" r="0.75"></circle><circle stroke="none" fill="#333" cx="106.98" cy="14.1" r="0.74"></circle><circle stroke="none" fill="#333" cx="110.63" cy="20.42" r="0.79"></circle><circle stroke="none" fill="#333" cx="114.28" cy="26.74" r="0.78"></circle><circle stroke="none" fill="#333" cx="117.93" cy="33.06" r="0.79"></circle><circle stroke="none" fill="#333" cx="121.58" cy="39.39" r="0.75"></circle><circle stroke="none" fill="#333" cx="125.23" cy="45.71" r="0.76"></circle><circle stroke="none" fill="#333" cx="128.88" cy="52.03" r="0.77"></circle><circle stroke="none" fill="#333" cx="132.53" cy="58.35" r="0.75"></circle><circle stroke="none" fill="#333" cx="136.18" cy="64.67" r="0.7"></circle><circle stroke="none" fill="#333" cx="139.83" cy="71" r="0.66"></circle><circle stroke="none" fill="#333" cx="143.48" cy="77.32" r="0.66"></circle><circle stroke="none" fill="#333" cx="147.13" cy="83.64" r="0.64"></circle><circle stroke="none" fill="#333" cx="150.78" cy="89.96" r="0.65"></circle><circle stroke="none" fill="#333" cx="154.43" cy="96.28" r="0.64"></circle><circle stroke="none" fill="#333" cx="158.08" cy="102.61" r="0.75"></circle><circle stroke="none" fill="#333" cx="161.73" cy="108.93" r="0.78"></circle><circle stroke="none" fill="#333" cx="165.38" cy="115.25" r="0.76"></circle><circle stroke="none" fill="#333" cx="169.03" cy="121.57" r="0.78"></circle><circle stroke="none" fill="#333" cx="172.68" cy="127.89" r="0.79"></circle><circle stroke="none" fill="#333" cx="176.33" cy="134.22" r="0.78"></circle><circle stroke="none" fill="#333" cx="179.98" cy="140.54" r="0.8"></circle><circle stroke="none" fill="#333" cx="183.63" cy="146.86" r="0.67"></circle><circle stroke="none" fill="#333" cx="109.65" cy="4.13" r="0.75"></circle><circle stroke="none" fill="#333" cx="113.3" cy="10.45" r="0.76"></circle><circle stroke="none" fill="#333" cx="116.95" cy="16.77" r="0.76"></circle><circle stroke="none" fill="#333" cx="120.6" cy="23.09" r="0.75"></circle><circle stroke="none" fill="#333" cx="124.25" cy="29.41" r="0.76"></circle><circle stroke="none" fill="#333" cx="127.9" cy="35.74" r="0.67"></circle><circle stroke="none" fill="#333" cx="131.55" cy="42.06" r="0.69"></circle><circle stroke="none" fill="#333" cx="135.2" cy="48.38" r="0.76"></circle><circle stroke="none" fill="#333" cx="138.85" cy="54.7" r="0.77"></circle><circle stroke="none" fill="#333" cx="142.5" cy="61.02" r="0.76"></circle><circle stroke="none" fill="#333" cx="146.15" cy="67.35" r="0.76"></circle><circle stroke="none" fill="#333" cx="149.8" cy="73.67" r="0.73"></circle><circle stroke="none" fill="#333" cx="153.45" cy="79.99" r="0.69"></circle><circle stroke="none" fill="#333" cx="157.1" cy="86.31" r="0.61"></circle><circle stroke="none" fill="#333" cx="160.75" cy="92.63" r="0.64"></circle><circle stroke="none" fill="#333" cx="164.4" cy="98.96" r="0.7"></circle><circle stroke="none" fill="#333" cx="168.05" cy="105.28" r="0.65"></circle><circle stroke="none" fill="#333" cx="171.7" cy="111.6" r="0.75"></circle><circle stroke="none" fill="#333" cx="175.35" cy="117.92" r="0.76"></circle><circle stroke="none" fill="#333" cx="179" cy="124.24" r="0.78"></circle><circle stroke="none" fill="#333" cx="182.65" cy="130.57" r="0.78"></circle><circle stroke="none" fill="#333" cx="186.3" cy="136.89" r="0.78"></circle><circle stroke="none" fill="#333" cx="189.95" cy="143.21" r="0.76"></circle><circle stroke="none" fill="#333" cx="193.6" cy="149.53" r="0.4"></circle><circle stroke="none" fill="#333" cx="115.98" cy="0.48" r="0.45"></circle><circle stroke="none" fill="#333" cx="119.63" cy="6.8" r="0.72"></circle><circle stroke="none" fill="#333" cx="123.28" cy="13.12" r="0.69"></circle><circle stroke="none" fill="#333" cx="126.93" cy="19.44" r="0.76"></circle><circle stroke="none" fill="#333" cx="130.58" cy="25.76" r="0.75"></circle><circle stroke="none" fill="#333" cx="134.23" cy="32.09" r="0.7"></circle><circle stroke="none" fill="#333" cx="137.88" cy="38.41" r="0.74"></circle><circle stroke="none" fill="#333" cx="141.53" cy="44.73" r="0.73"></circle><circle stroke="none" fill="#333" cx="145.18" cy="51.05" r="0.73"></circle><circle stroke="none" fill="#333" cx="148.83" cy="57.37" r="0.77"></circle><circle stroke="none" fill="#333" cx="152.48" cy="63.7" r="0.75"></circle><circle stroke="none" fill="#333" cx="156.13" cy="70.02" r="0.76"></circle><circle stroke="none" fill="#333" cx="159.78" cy="76.34" r="0.75"></circle><circle stroke="none" fill="#333" cx="163.43" cy="82.66" r="0.75"></circle><circle stroke="none" fill="#333" cx="167.08" cy="88.98" r="0.6"></circle><circle stroke="none" fill="#333" cx="170.73" cy="95.31" r="0.58"></circle><circle stroke="none" fill="#333" cx="174.38" cy="101.63" r="0.59"></circle><circle stroke="none" fill="#333" cx="178.03" cy="107.95" r="0.68"></circle><circle stroke="none" fill="#333" cx="181.68" cy="114.27" r="0.75"></circle><circle stroke="none" fill="#333" cx="185.33" cy="120.59" r="0.73"></circle><circle stroke="none" fill="#333" cx="188.98" cy="126.92" r="0.75"></circle><circle stroke="none" fill="#333" cx="192.63" cy="133.24" r="0.76"></circle><circle stroke="none" fill="#333" cx="196.28" cy="139.56" r="0.72"></circle><circle stroke="none" fill="#333" cx="199.93" cy="145.88" r="0.29"></circle><circle stroke="none" fill="#333" cx="125.95" cy="3.15" r="0.65"></circle><circle stroke="none" fill="#333" cx="129.6" cy="9.47" r="0.73"></circle><circle stroke="none" fill="#333" cx="133.25" cy="15.79" r="0.77"></circle><circle stroke="none" fill="#333" cx="136.9" cy="22.11" r="0.71"></circle><circle stroke="none" fill="#333" cx="140.55" cy="28.44" r="0.68"></circle><circle stroke="none" fill="#333" cx="144.2" cy="34.76" r="0.71"></circle><circle stroke="none" fill="#333" cx="147.85" cy="41.08" r="0.57"></circle><circle stroke="none" fill="#333" cx="151.5" cy="47.4" r="0.65"></circle><circle stroke="none" fill="#333" cx="155.15" cy="53.72" r="0.53"></circle><circle stroke="none" fill="#333" cx="158.8" cy="60.05" r="0.67"></circle><circle stroke="none" fill="#333" cx="162.45" cy="66.37" r="0.68"></circle><circle stroke="none" fill="#333" cx="166.1" cy="72.69" r="0.74"></circle><circle stroke="none" fill="#333" cx="169.75" cy="79.01" r="0.76"></circle><circle stroke="none" fill="#333" cx="173.4" cy="85.33" r="0.76"></circle><circle stroke="none" fill="#333" cx="177.05" cy="91.66" r="0.7"></circle><circle stroke="none" fill="#333" cx="180.7" cy="97.98" r="0.69"></circle><circle stroke="none" fill="#333" cx="184.35" cy="104.3" r="0.69"></circle><circle stroke="none" fill="#333" cx="188" cy="110.62" r="0.69"></circle><circle stroke="none" fill="#333" cx="191.65" cy="116.94" r="0.74"></circle><circle stroke="none" fill="#333" cx="195.3" cy="123.27" r="0.74"></circle><circle stroke="none" fill="#333" cx="198.95" cy="129.59" r="0.48"></circle><circle stroke="none" fill="#333" cx="132.27" cy="-0.5" r="0.3"></circle><circle stroke="none" fill="#333" cx="135.92" cy="5.82" r="0.77"></circle><circle stroke="none" fill="#333" cx="139.57" cy="12.14" r="0.68"></circle><circle stroke="none" fill="#333" cx="143.22" cy="18.46" r="0.7"></circle><circle stroke="none" fill="#333" cx="146.87" cy="24.79" r="0.7"></circle><circle stroke="none" fill="#333" cx="150.52" cy="31.11" r="0.66"></circle><circle stroke="none" fill="#333" cx="154.17" cy="37.43" r="0.63"></circle><circle stroke="none" fill="#333" cx="157.82" cy="43.75" r="0.36"></circle><circle stroke="none" fill="#333" cx="161.47" cy="50.07" r="0.56"></circle><circle stroke="none" fill="#333" cx="165.12" cy="56.4" r="0.53"></circle><circle stroke="none" fill="#333" cx="168.77" cy="62.72" r="0.69"></circle><circle stroke="none" fill="#333" cx="172.42" cy="69.04" r="0.71"></circle><circle stroke="none" fill="#333" cx="176.07" cy="75.36" r="0.7"></circle><circle stroke="none" fill="#333" cx="179.72" cy="81.68" r="0.76"></circle><circle stroke="none" fill="#333" cx="183.37" cy="88.01" r="0.77"></circle><circle stroke="none" fill="#333" cx="187.02" cy="94.33" r="0.75"></circle><circle stroke="none" fill="#333" cx="190.67" cy="100.65" r="0.71"></circle><circle stroke="none" fill="#333" cx="194.32" cy="106.97" r="0.75"></circle><circle stroke="none" fill="#333" cx="197.97" cy="113.29" r="0.63"></circle><circle stroke="none" fill="#333" cx="142.24" cy="2.17" r="0.59"></circle><circle stroke="none" fill="#333" cx="145.89" cy="8.49" r="0.73"></circle><circle stroke="none" fill="#333" cx="149.54" cy="14.81" r="0.68"></circle><circle stroke="none" fill="#333" cx="153.19" cy="21.14" r="0.67"></circle><circle stroke="none" fill="#333" cx="156.84" cy="27.46" r="0.64"></circle><circle stroke="none" fill="#333" cx="160.49" cy="33.78" r="0.68"></circle><circle stroke="none" fill="#333" cx="164.14" cy="40.1" r="0.52"></circle><circle stroke="none" fill="#333" cx="167.79" cy="46.42" r="0.73"></circle><circle stroke="none" fill="#333" cx="171.44" cy="52.75" r="0.58"></circle><circle stroke="none" fill="#333" cx="175.09" cy="59.07" r="0.52"></circle><circle stroke="none" fill="#333" cx="178.74" cy="65.39" r="0.65"></circle><circle stroke="none" fill="#333" cx="182.39" cy="71.71" r="0.65"></circle><circle stroke="none" fill="#333" cx="186.04" cy="78.03" r="0.74"></circle><circle stroke="none" fill="#333" cx="189.69" cy="84.36" r="0.79"></circle><circle stroke="none" fill="#333" cx="193.34" cy="90.68" r="0.78"></circle><circle stroke="none" fill="#333" cx="196.99" cy="97" r="0.7"></circle><circle stroke="none" fill="#333" cx="200.64" cy="103.32" r="0.31"></circle><circle stroke="none" fill="#333" cx="152.21" cy="4.84" r="0.65"></circle><circle stroke="none" fill="#333" cx="155.86" cy="11.16" r="0.68"></circle><circle stroke="none" fill="#333" cx="159.51" cy="17.49" r="0.67"></circle><circle stroke="none" fill="#333" cx="163.16" cy="23.81" r="0.59"></circle><circle stroke="none" fill="#333" cx="166.81" cy="30.13" r="0.66"></circle><circle stroke="none" fill="#333" cx="170.46" cy="36.45" r="0.71"></circle><circle stroke="none" fill="#333" cx="174.11" cy="42.77" r="0.79"></circle><circle stroke="none" fill="#333" cx="177.76" cy="49.1" r="0.79"></circle><circle stroke="none" fill="#333" cx="181.41" cy="55.42" r="0.64"></circle><circle stroke="none" fill="#333" cx="185.06" cy="61.74" r="0.6"></circle><circle stroke="none" fill="#333" cx="188.71" cy="68.06" r="0.72"></circle><circle stroke="none" fill="#333" cx="192.36" cy="74.38" r="0.72"></circle><circle stroke="none" fill="#333" cx="196.01" cy="80.71" r="0.73"></circle><circle stroke="none" fill="#333" cx="199.66" cy="87.03" r="0.38"></circle><circle stroke="none" fill="#333" cx="158.54" cy="1.19" r="0.55"></circle><circle stroke="none" fill="#333" cx="162.19" cy="7.51" r="0.72"></circle><circle stroke="none" fill="#333" cx="165.84" cy="13.84" r="0.5"></circle><circle stroke="none" fill="#333" cx="169.49" cy="20.16" r="0.3"></circle><circle stroke="none" fill="#333" cx="173.14" cy="26.48" r="0.35"></circle><circle stroke="none" fill="#333" cx="176.79" cy="32.8" r="0.45"></circle><circle stroke="none" fill="#333" cx="180.44" cy="39.12" r="0.76"></circle><circle stroke="none" fill="#333" cx="184.09" cy="45.45" r="0.74"></circle><circle stroke="none" fill="#333" cx="187.74" cy="51.77" r="0.67"></circle><circle stroke="none" fill="#333" cx="191.39" cy="58.09" r="0.61"></circle><circle stroke="none" fill="#333" cx="195.04" cy="64.41" r="0.74"></circle><circle stroke="none" fill="#333" cx="198.69" cy="70.73" r="0.5"></circle><circle stroke="none" fill="#333" cx="168.51" cy="3.86" r="0.72"></circle><circle stroke="none" fill="#333" cx="172.16" cy="10.19" r="0.37"></circle><circle stroke="none" fill="#333" cx="175.81" cy="16.51" r="0.32"></circle><circle stroke="none" fill="#333" cx="179.46" cy="22.83" r="0.45"></circle><circle stroke="none" fill="#333" cx="183.11" cy="29.15" r="0.65"></circle><circle stroke="none" fill="#333" cx="186.76" cy="35.47" r="0.49"></circle><circle stroke="none" fill="#333" cx="190.41" cy="41.8" r="0.4"></circle><circle stroke="none" fill="#333" cx="194.06" cy="48.12" r="0.63"></circle><circle stroke="none" fill="#333" cx="197.71" cy="54.44" r="0.58"></circle><circle stroke="none" fill="#333" cx="201.36" cy="60.76" r="0.26"></circle><circle stroke="none" fill="#333" cx="174.83" cy="0.21" r="0.35"></circle><circle stroke="none" fill="#333" cx="178.48" cy="6.54" r="0.61"></circle><circle stroke="none" fill="#333" cx="182.13" cy="12.86" r="0.52"></circle><circle stroke="none" fill="#333" cx="185.78" cy="19.18" r="0.59"></circle><circle stroke="none" fill="#333" cx="189.43" cy="25.5" r="0.6"></circle><circle stroke="none" fill="#333" cx="193.08" cy="31.82" r="0.58"></circle><circle stroke="none" fill="#333" cx="196.73" cy="38.15" r="0.59"></circle><circle stroke="none" fill="#333" cx="200.38" cy="44.47" r="0.38"></circle><circle stroke="none" fill="#333" cx="184.8" cy="2.89" r="0.61"></circle><circle stroke="none" fill="#333" cx="188.45" cy="9.21" r="0.68"></circle><circle stroke="none" fill="#333" cx="192.1" cy="15.53" r="0.77"></circle><circle stroke="none" fill="#333" cx="195.75" cy="21.85" r="0.75"></circle><circle stroke="none" fill="#333" cx="199.4" cy="28.17" r="0.41"></circle><circle stroke="none" fill="#333" cx="191.12" cy="-0.76" r="0.3"></circle><circle stroke="none" fill="#333" cx="194.77" cy="5.56" r="0.65"></circle><circle stroke="none" fill="#333" cx="198.42" cy="11.88" r="0.56"></circle></g></svg>