<svg xmlns="http://www.w3.org/2000/svg" width="200" height="150" viewBox="0 0 200 150" preserveAspectRatio="xMidYMid meet" shape-rendering="auto"><defs><clipPath id="imageBounds"><rect x="0" y="0" width="200" height="150"></rect></clipPath></defs><g clip-path="url(#imageBounds)"><path d="M100.64,75.31 C100.67,75.34 100.77,75.41 100.82,75.49 C100.87,75.56 100.93,75.67 100.96,75.78 C100.98,75.9 101,76.05 100.99,76.2 C100.98,76.35 100.94,76.53 100.87,76.69 C100.79,76.86 100.68,77.06 100.55,77.21 C100.41,77.37 100.21,77.56 100,77.69 C99.8,77.82 99.52,77.95 99.25,78.03 C98.97,78.1 98.62,78.16 98.3,78.15 C97.99,78.13 97.58,78.07 97.26,77.94 C96.93,77.81 96.55,77.59 96.27,77.34 C95.98,77.08 95.68,76.72 95.47,76.37 C95.27,76.02 95.08,75.56 94.97,75.15 C94.86,74.73 94.8,74.21 94.82,73.75 C94.83,73.3 94.92,72.76 95.05,72.3 C95.19,71.83 95.41,71.3 95.67,70.86 C95.93,70.42 96.29,69.92 96.69,69.55 C97.08,69.18 97.61,68.8 98.11,68.54 C98.62,68.29 99.27,68.07 99.85,67.96 C100.44,67.84 101.15,67.77 101.77,67.82 C102.39,67.86 103.12,68.02 103.73,68.25 C104.34,68.47 105.03,68.83 105.57,69.22 C106.12,69.62 106.72,70.16 107.16,70.7 C107.59,71.25 108.01,71.97 108.31,72.63 C108.6,73.3 108.89,74.12 109,74.86 C109.11,75.6 109.09,76.5 108.98,77.27 C108.87,78.04 108.64,78.93 108.32,79.66 C107.99,80.39 107.47,81.18 106.96,81.81 C106.44,82.44 105.74,83.1 105.07,83.59 C104.39,84.08 103.53,84.57 102.74,84.87 C101.94,85.17 100.94,85.37 100.09,85.46 C99.23,85.55 98.23,85.58 97.39,85.45 C96.55,85.32 95.6,84.99 94.83,84.65 C94.06,84.3 93.23,83.79 92.56,83.28 C91.89,82.77 91.19,82.1 90.66,81.46 C90.12,80.82 89.56,80.03 89.19,79.29 C88.82,78.55 88.53,77.63 88.33,76.82 C88.13,76.02 87.98,75.08 87.95,74.25 C87.92,73.43 87.99,72.47 88.15,71.66 C88.31,70.86 88.67,69.98 88.98,69.21 C89.29,68.45 89.65,67.59 90.07,66.87 C90.49,66.15 91.03,65.34 91.59,64.72 C92.16,64.1 92.91,63.48 93.6,62.99 C94.28,62.5 95.12,61.99 95.9,61.64 C96.68,61.28 97.61,60.94 98.45,60.75 C99.28,60.57 100.27,60.48 101.13,60.47 C101.99,60.47 102.97,60.59 103.82,60.74 C104.67,60.89 105.63,61.11 106.44,61.41 C107.24,61.72 108.11,62.18 108.85,62.62 C109.58,63.07 110.38,63.64 111.03,64.2 C111.68,64.77 112.3,65.27 112.92,66.16 C113.55,67.04 114.43,68.52 114.93,69.74 C115.43,70.95 115.89,72.44 116.06,73.76 C116.22,75.09 116.14,76.66 115.96,78 C115.77,79.34 115.39,80.88 114.88,82.15 C114.37,83.42 113.59,84.84 112.75,85.96 C111.91,87.07 110.77,88.27 109.65,89.13 C108.53,90 107.06,90.82 105.73,91.37 C104.4,91.93 102.77,92.41 101.32,92.61 C99.87,92.8 98.14,92.8 96.67,92.59 C95.2,92.38 93.52,91.9 92.14,91.29 C90.77,90.69 89.26,89.77 88.08,88.82 C86.89,87.87 85.69,86.58 84.75,85.36 C83.81,84.14 82.83,82.63 82.21,81.2 C81.59,79.77 81.09,77.98 80.9,76.41 C80.7,74.83 80.75,72.95 81,71.37 C81.26,69.8 81.84,68.02 82.49,66.55 C83.13,65.09 84.07,63.52 85.01,62.23 C85.95,60.94 87.16,59.54 88.39,58.51 C89.61,57.47 91.19,56.48 92.64,55.76 C94.09,55.05 95.86,54.38 97.45,54.03 C99.04,53.69 100.95,53.53 102.58,53.61 C104.22,53.68 106.11,54.02 107.68,54.49 C109.26,54.96 111.03,55.71 112.45,56.55 C113.86,57.4 115.34,58.62 116.53,59.77 C117.71,60.92 118.93,62.38 119.85,63.76 C120.76,65.14 121.66,66.84 122.24,68.39 C122.82,69.94 123.27,71.82 123.5,73.47 C123.73,75.13 123.84,77.07 123.68,78.73 C123.53,80.39 123.06,82.28 122.52,83.87 C121.98,85.46 121.18,87.22 120.32,88.66 C119.45,90.09 118.28,91.64 117.12,92.84 C115.95,94.04 114.42,95.22 113.03,96.13 C111.63,97.05 109.95,97.96 108.4,98.56 C106.86,99.17 105,99.64 103.37,99.9 C101.74,100.16 99.84,100.26 98.2,100.18 C96.56,100.09 94.7,99.76 93.12,99.35 C91.53,98.95 89.79,98.3 88.29,97.64 C86.8,96.98 85.12,96.13 83.76,95.22 C82.39,94.31 80.91,93.11 79.76,91.92 C78.61,90.74 77.44,89.22 76.58,87.81 C75.71,86.39 74.9,84.66 74.37,83.09 C73.84,81.53 73.47,79.66 73.27,78.02 C73.07,76.39 73.02,74.51 73.1,72.88 C73.19,71.24 73.41,69.38 73.8,67.79 C74.19,66.21 74.85,64.45 75.54,62.98 C76.23,61.51 77.2,59.93 78.13,58.6 C79.06,57.27 80.22,55.84 81.35,54.67 C82.47,53.5 83.84,52.24 85.16,51.28 C86.47,50.32 88.09,49.37 89.57,48.68 C91.05,47.99 92.83,47.39 94.42,46.98 C96.01,46.57 97.86,46.25 99.5,46.13 C101.14,46 103.03,46.01 104.67,46.2 C106.3,46.39 108.14,46.83 109.71,47.32 C111.28,47.82 113.01,48.55 114.48,49.3 C115.94,50.05 117.55,51.03 118.86,52.02 C120.16,53.02 121.54,54.31 122.64,55.53 C123.73,56.75 124.84,58.26 125.7,59.65 C126.56,61.04 127.4,62.7 128.03,64.21 C128.65,65.71 129.21,67.48 129.59,69.06 C129.97,70.65 130.28,72.48 130.41,74.1 C130.54,75.72 130.55,77.59 130.4,79.21 C130.25,80.83 129.9,82.66 129.49,84.25 C129.09,85.83 128.52,87.62 127.85,89.11 C127.18,90.6 126.22,92.2 125.3,93.56 C124.38,94.92 123.24,96.4 122.12,97.59 C120.99,98.79 119.58,100.02 118.28,101.01 C116.98,102.01 115.43,103.07 113.98,103.83 C112.53,104.59 110.79,105.29 109.23,105.78 C107.67,106.26 105.84,106.63 104.23,106.88 C102.61,107.12 100.78,107.27 99.15,107.3 C97.52,107.34 95.65,107.31 94.04,107.1 C92.42,106.88 90.59,106.47 89.05,105.96 C87.5,105.45 85.8,104.67 84.37,103.9 C82.94,103.13 81.41,102.1 80.1,101.14 C78.79,100.19 77.37,99.03 76.18,97.94 C74.98,96.84 73.63,95.56 72.63,94.29 C71.63,93.01 70.65,91.41 69.93,89.96 C69.21,88.51 68.65,86.75 68.14,85.21 C67.63,83.67 67.1,81.93 66.77,80.35 C66.43,78.78 66.13,76.96 66.05,75.35 C65.98,73.74 66.12,71.9 66.31,70.3 C66.49,68.7 66.84,66.91 67.23,65.34 C67.61,63.77 68.1,62 68.7,60.51 C69.3,59.01 70.15,57.37 70.99,55.99 C71.83,54.61 72.93,53.13 73.97,51.9 C75.01,50.66 76.31,49.38 77.5,48.28 C78.68,47.18 80.06,45.98 81.38,45.04 C82.7,44.1 84.28,43.15 85.73,42.4 C87.17,41.65 88.86,40.88 90.41,40.37 C91.96,39.86 93.78,39.5 95.4,39.23 C97.01,38.97 98.85,38.79 100.48,38.73 C102.11,38.67 103.98,38.69 105.6,38.87 C107.23,39.05 109.06,39.42 110.63,39.85 C112.21,40.28 113.96,40.91 115.47,41.54 C116.98,42.18 118.65,42.99 120.06,43.81 C121.48,44.64 123.03,45.68 124.31,46.69 C125.6,47.71 126.96,48.98 128.11,50.15 C129.26,51.33 130.51,52.72 131.5,54.03 C132.49,55.35 133.51,56.93 134.27,58.39 C135.03,59.85 135.71,61.61 136.24,63.17 C136.77,64.72 137.28,66.52 137.59,68.13 C137.89,69.74 138.07,71.6 138.13,73.24 C138.19,74.87 138.12,76.72 137.96,78.34 C137.81,79.95 137.49,81.76 137.17,83.35 C136.86,84.94 136.48,86.73 136,88.28 C135.52,89.82 134.87,91.55 134.17,93.02 C133.48,94.48 132.54,96.07 131.67,97.45 C130.81,98.83 129.78,100.37 128.76,101.64 C127.74,102.92 126.48,104.3 125.28,105.41 C124.07,106.52 122.58,107.66 121.22,108.57 C119.85,109.48 118.22,110.38 116.74,111.09 C115.27,111.8 113.54,112.49 111.99,113.01 C110.44,113.54 108.65,114.01 107.06,114.36 C105.46,114.72 103.63,115.05 102,115.23 C100.37,115.41 98.51,115.52 96.87,115.46 C95.23,115.4 93.37,115.15 91.75,114.87 C90.13,114.59 88.3,114.19 86.73,113.71 C85.16,113.23 83.42,112.54 81.93,111.85 C80.43,111.17 78.76,110.33 77.37,109.45 C75.99,108.56 74.53,107.39 73.27,106.34 C72.01,105.29 70.63,104.06 69.49,102.88 C68.35,101.7 67.14,100.29 66.16,98.98 C65.18,97.67 64.16,96.12 63.35,94.7 C62.53,93.28 61.69,91.62 61.07,90.11 C60.45,88.59 59.91,86.82 59.47,85.25 C59.03,83.67 58.54,81.88 58.3,80.26 C58.07,78.65 58.03,76.79 58.01,75.16 C58,73.53 58.08,71.69 58.23,70.07 C58.38,68.45 58.64,66.63 58.97,65.03 C59.31,63.44 59.78,61.66 60.32,60.12 C60.85,58.59 61.61,56.91 62.33,55.45 C63.04,53.99 63.92,52.37 64.8,51.01 C65.69,49.65 66.81,48.19 67.87,46.96 C68.92,45.72 70.21,44.42 71.38,43.3 C72.55,42.18 73.91,40.95 75.19,39.95 C76.47,38.96 77.99,37.92 79.39,37.09 C80.78,36.26 82.43,35.43 83.91,34.76 C85.4,34.1 87.11,33.42 88.66,32.91 C90.21,32.41 92,31.9 93.6,31.59 C95.21,31.29 97.06,31.09 98.69,31.01 C100.32,30.92 102.18,30.95 103.81,31.06 C105.44,31.17 107.28,31.39 108.88,31.7 C110.48,32.02 112.26,32.52 113.81,33.02 C115.37,33.51 117.11,34.12 118.59,34.79 C120.07,35.46 121.66,36.39 123.06,37.22 C124.45,38.05 126.01,39.01 127.32,39.97 C128.63,40.92 130.04,42.1 131.24,43.19 C132.45,44.29 133.76,45.57 134.84,46.79 C135.92,48.01 137.05,49.47 137.99,50.8 C138.93,52.13 139.95,53.68 140.74,55.11 C141.52,56.55 142.31,58.23 142.91,59.75 C143.52,61.28 144.1,63.05 144.49,64.64 C144.88,66.23 145.16,68.06 145.35,69.69 C145.55,71.31 145.68,73.16 145.68,74.79 C145.68,76.42 145.54,78.25 145.37,79.87 C145.2,81.49 144.92,83.3 144.6,84.89 C144.27,86.48 143.81,88.25 143.34,89.81 C142.86,91.36 142.26,93.09 141.63,94.59 C141,96.08 140.19,97.74 139.4,99.16 C138.61,100.58 137.63,102.15 136.69,103.48 C135.74,104.8 134.57,106.23 133.48,107.45 C132.39,108.67 131.1,110 129.88,111.09 C128.66,112.17 127.19,113.31 125.84,114.23 C124.49,115.16 122.89,116.09 121.45,116.86 C120,117.62 118.33,118.4 116.81,119.01 C115.3,119.62 113.55,120.21 111.98,120.67 C110.41,121.12 108.62,121.58 107.01,121.85 C105.4,122.11 103.56,122.22 101.93,122.32 C100.3,122.41 98.45,122.5 96.83,122.43 C95.2,122.35 93.37,122.1 91.76,121.85 C90.15,121.6 88.34,121.27 86.76,120.88 C85.17,120.5 83.4,120 81.86,119.45 C80.32,118.9 78.61,118.18 77.14,117.46 C75.66,116.74 74.03,115.85 72.66,114.96 C71.29,114.06 69.8,112.95 68.56,111.88 C67.32,110.81 66.02,109.49 64.93,108.27 C63.85,107.05 62.74,105.58 61.79,104.27 C60.83,102.95 59.81,101.44 58.96,100.07 C58.11,98.7 57.2,97.12 56.47,95.68 C55.75,94.24 55.01,92.57 54.43,91.07 C53.85,89.56 53.29,87.82 52.86,86.27 C52.43,84.71 52.01,82.93 51.74,81.34 C51.47,79.74 51.32,77.92 51.19,76.3 C51.06,74.69 50.9,72.85 50.92,71.23 C50.95,69.6 51.14,67.76 51.35,66.14 C51.57,64.53 51.87,62.7 52.26,61.11 C52.66,59.53 53.22,57.75 53.81,56.23 C54.41,54.71 55.22,53.04 55.98,51.6 C56.75,50.15 57.68,48.56 58.59,47.21 C59.5,45.86 60.63,44.39 61.68,43.15 C62.72,41.91 63.98,40.58 65.15,39.45 C66.31,38.32 67.7,37.14 68.95,36.11 C70.2,35.08 71.62,33.93 72.96,33.02 C74.29,32.11 75.86,31.17 77.3,30.43 C78.73,29.69 80.43,29.01 81.93,28.41 C83.43,27.81 85.13,27.16 86.67,26.69 C88.21,26.22 89.98,25.78 91.56,25.46 C93.14,25.15 94.95,24.85 96.55,24.71 C98.16,24.58 99.98,24.62 101.6,24.63 C103.21,24.65 105.03,24.66 106.64,24.8 C108.25,24.94 110.05,25.22 111.64,25.52 C113.23,25.82 115.03,26.2 116.58,26.67 C118.13,27.14 119.84,27.81 121.33,28.44 C122.82,29.08 124.48,29.86 125.89,30.67 C127.3,31.47 128.8,32.52 130.12,33.45 C131.45,34.39 132.91,35.48 134.16,36.51 C135.41,37.54 136.82,38.73 137.96,39.88 C139.1,41.03 140.27,42.45 141.29,43.71 C142.31,44.97 143.45,46.41 144.33,47.77 C145.22,49.14 146.05,50.77 146.8,52.22 C147.54,53.67 148.37,55.31 148.96,56.82 C149.56,58.32 150.11,60.08 150.54,61.65 C150.97,63.21 151.38,65 151.65,66.6 C151.92,68.2 152.13,70.02 152.23,71.63 C152.32,73.25 152.31,75.08 152.25,76.69 C152.18,78.3 152.01,80.11 151.83,81.71 C151.64,83.31 151.38,85.11 151.07,86.69 C150.77,88.27 150.36,90.04 149.92,91.59 C149.47,93.14 148.86,94.86 148.29,96.37 C147.72,97.88 147.05,99.59 146.33,101.04 C145.6,102.49 144.65,104.07 143.76,105.42 C142.88,106.78 141.81,108.28 140.78,109.54 C139.75,110.79 138.48,112.11 137.34,113.26 C136.19,114.41 134.87,115.68 133.63,116.72 C132.38,117.76 130.9,118.85 129.56,119.75 C128.22,120.66 126.65,121.6 125.23,122.38 C123.81,123.16 122.18,123.97 120.69,124.61 C119.21,125.26 117.5,125.89 115.96,126.39 C114.43,126.89 112.67,127.41 111.1,127.75 C109.52,128.1 107.72,128.34 106.12,128.56 C104.52,128.77 102.71,129.01 101.1,129.1 C99.49,129.19 97.66,129.2 96.05,129.12 C94.44,129.05 92.62,128.85 91.02,128.62 C89.42,128.4 87.62,128.1 86.05,127.73 C84.47,127.36 82.72,126.83 81.2,126.3 C79.67,125.77 77.98,125.08 76.51,124.41 C75.04,123.73 73.42,122.89 72.02,122.09 C70.62,121.29 69.08,120.31 67.76,119.39 C66.43,118.47 64.97,117.38 63.73,116.35 C62.49,115.31 61.15,114.07 60.01,112.93 C58.87,111.78 57.65,110.43 56.62,109.19 C55.58,107.95 54.44,106.52 53.53,105.18 C52.63,103.85 51.76,102.24 50.97,100.83 C50.18,99.42 49.27,97.83 48.6,96.37 C47.92,94.9 47.26,93.19 46.74,91.66 C46.22,90.12 45.71,88.36 45.35,86.79 C44.98,85.21 44.67,83.41 44.44,81.81 C44.22,80.21 44.07,78.39 43.95,76.78 C43.82,75.16 43.63,73.33 43.66,71.71 C43.69,70.09 43.94,68.27 44.13,66.65 C44.33,65.04 44.54,63.21 44.87,61.62 C45.2,60.03 45.73,58.27 46.21,56.72 C46.7,55.16 47.29,53.43 47.9,51.92 C48.51,50.4 49.26,48.72 50.01,47.28 C50.76,45.83 51.71,44.25 52.58,42.88 C53.45,41.5 54.47,39.96 55.47,38.67 C56.48,37.39 57.73,36.03 58.86,34.86 C59.99,33.68 61.29,32.37 62.53,31.32 C63.77,30.27 65.28,29.22 66.62,28.3 C67.96,27.38 69.5,26.39 70.89,25.58 C72.29,24.76 73.89,23.87 75.35,23.18 C76.81,22.49 78.51,21.84 80.01,21.26 C81.52,20.68 83.22,20.04 84.75,19.55 C86.29,19.06 88.05,18.58 89.62,18.21 C91.2,17.83 92.99,17.46 94.59,17.22 C96.19,16.97 98.02,16.76 99.64,16.68 C101.27,16.59 103.11,16.62 104.74,16.69 C106.36,16.76 108.2,16.9 109.82,17.12 C111.43,17.34 113.25,17.65 114.83,18.05 C116.42,18.44 118.17,19.03 119.7,19.59 C121.23,20.15 122.91,20.87 124.4,21.54 C125.88,22.21 127.53,23 128.95,23.78 C130.38,24.56 131.96,25.49 133.3,26.4 C134.64,27.31 136.08,28.44 137.33,29.47 C138.58,30.51 139.94,31.72 141.11,32.84 C142.27,33.96 143.56,35.26 144.62,36.47 C145.69,37.68 146.82,39.12 147.77,40.42 C148.71,41.73 149.7,43.26 150.54,44.63 C151.37,46.01 152.27,47.59 153,49.02 C153.73,50.46 154.47,52.11 155.11,53.59 C155.75,55.07 156.5,56.73 157.02,58.26 C157.54,59.78 157.98,61.55 158.36,63.12 C158.75,64.7 159.15,66.48 159.41,68.07 C159.67,69.67 159.91,71.49 160.01,73.11 C160.11,74.73 160.12,76.56 160.05,78.18 C159.99,79.8 159.79,81.62 159.59,83.23 C159.39,84.84 159.13,86.65 158.81,88.24 C158.49,89.83 158.05,91.61 157.6,93.17 C157.16,94.72 156.58,96.46 156.02,97.98 C155.45,99.51 154.79,101.22 154.1,102.69 C153.41,104.16 152.53,105.77 151.7,107.17 C150.87,108.57 149.84,110.09 148.9,111.42 C147.96,112.75 146.87,114.22 145.82,115.47 C144.77,116.71 143.52,118.06 142.36,119.2 C141.2,120.34 139.83,121.56 138.57,122.6 C137.32,123.64 135.88,124.77 134.54,125.7 C133.21,126.62 131.65,127.58 130.24,128.4 C128.84,129.21 127.23,130.08 125.77,130.79 C124.31,131.51 122.64,132.27 121.13,132.86 C119.62,133.46 117.88,134.03 116.32,134.48 C114.76,134.93 112.98,135.35 111.39,135.68 C109.79,136 107.99,136.32 106.38,136.51 C104.77,136.7 102.94,136.8 101.32,136.86 C99.7,136.92 97.87,136.97 96.25,136.87 C94.63,136.77 92.82,136.49 91.22,136.24 C89.63,135.99 87.83,135.69 86.26,135.31 C84.69,134.94 82.96,134.39 81.43,133.89 C79.9,133.38 78.19,132.78 76.7,132.18 C75.21,131.58 73.56,130.83 72.13,130.11 C70.69,129.4 69.11,128.52 67.73,127.72 C66.34,126.91 64.81,125.96 63.47,125.08 C62.13,124.19 60.61,123.19 59.34,122.2 C58.07,121.21 56.72,119.99 55.55,118.88 C54.39,117.77 53.12,116.46 52.06,115.25 C50.99,114.04 49.83,112.64 48.87,111.34 C47.92,110.04 46.93,108.51 46.08,107.14 C45.23,105.77 44.28,104.22 43.54,102.78 C42.81,101.34 42.13,99.66 41.5,98.17 C40.88,96.68 40.16,95.01 39.64,93.48 C39.12,91.96 38.63,90.2 38.26,88.63 C37.89,87.06 37.59,85.26 37.33,83.67 C37.08,82.07 36.82,80.27 36.67,78.67 C36.52,77.06 36.39,75.23 36.39,73.62 C36.4,72.01 36.54,70.18 36.69,68.57 C36.84,66.97 37.05,65.15 37.33,63.57 C37.62,61.98 38.05,60.21 38.46,58.65 C38.87,57.09 39.44,55.37 39.92,53.83 C40.41,52.29 40.91,50.54 41.49,49.04 C42.08,47.53 42.84,45.87 43.56,44.42 C44.27,42.97 45.13,41.35 45.96,39.96 C46.79,38.57 47.79,37.04 48.73,35.71 C49.67,34.39 50.8,32.94 51.85,31.71 C52.91,30.48 54.17,29.15 55.34,28.02 C56.5,26.88 57.88,25.67 59.12,24.63 C60.37,23.59 61.78,22.42 63.12,21.5 C64.45,20.58 66.04,19.67 67.45,18.86 C68.86,18.06 70.46,17.2 71.91,16.48 C73.36,15.76 75.01,14.96 76.51,14.36 C78.01,13.76 79.75,13.21 81.29,12.71 C82.83,12.22 84.56,11.65 86.13,11.27 C87.7,10.89 89.51,10.58 91.11,10.35 C92.71,10.12 94.52,9.93 96.13,9.83 C97.75,9.73 99.57,9.71 101.18,9.74 C102.79,9.76 104.61,9.86 106.22,9.98 C107.82,10.1 109.64,10.26 111.23,10.5 C112.82,10.74 114.61,11.11 116.17,11.51 C117.73,11.9 119.46,12.47 120.99,12.97 C122.52,13.48 124.24,14.07 125.74,14.66 C127.23,15.25 128.91,15.95 130.35,16.67 C131.79,17.39 133.35,18.34 134.73,19.16 C136.11,19.99 137.67,20.93 138.99,21.85 C140.31,22.78 141.73,23.91 142.97,24.93 C144.22,25.95 145.62,27.11 146.78,28.23 C147.94,29.35 149.18,30.69 150.23,31.91 C151.28,33.13 152.4,34.56 153.34,35.87 C154.29,37.17 155.27,38.69 156.13,40.05 C156.98,41.41 157.9,42.97 158.69,44.37 C159.48,45.77 160.35,47.36 161.06,48.8 C161.77,50.25 162.52,51.91 163.12,53.4 C163.73,54.9 164.37,56.61 164.85,58.16 C165.33,59.7 165.77,61.48 166.12,63.06 C166.46,64.64 166.79,66.45 167.01,68.05 C167.22,69.66 167.36,71.49 167.46,73.11 C167.56,74.73 167.65,76.57 167.61,78.19 C167.58,79.82 167.43,81.65 167.24,83.26 C167.04,84.88 166.73,86.68 166.41,88.28 C166.1,89.87 165.68,91.65 165.29,93.23 C164.89,94.8 164.45,96.58 163.95,98.13 C163.45,99.67 162.81,101.4 162.17,102.89 C161.53,104.39 160.73,106.04 159.96,107.47 C159.19,108.91 158.25,110.48 157.38,111.85 C156.51,113.22 155.47,114.73 154.52,116.05 C153.57,117.37 152.48,118.84 151.43,120.08 C150.38,121.32 149.15,122.68 147.97,123.8 C146.79,124.91 145.33,126.03 144.07,127.05 C142.81,128.07 141.4,129.21 140.1,130.17 C138.8,131.13 137.31,132.18 135.95,133.04 C134.58,133.89 132.99,134.78 131.57,135.54 C130.14,136.29 128.52,137.11 127.05,137.77 C125.58,138.43 123.9,139.12 122.38,139.68 C120.87,140.24 119.15,140.81 117.59,141.25 C116.04,141.69 114.27,142.1 112.69,142.43 C111.11,142.76 109.33,143.11 107.73,143.33 C106.13,143.55 104.32,143.72 102.71,143.82 C101.1,143.93 99.27,144.01 97.66,143.97 C96.05,143.93 94.23,143.72 92.63,143.57 C91.02,143.42 89.2,143.28 87.61,143.01 C86.02,142.75 84.25,142.32 82.69,141.9 C81.13,141.48 79.4,140.94 77.88,140.41 C76.36,139.88 74.67,139.23 73.18,138.62 C71.7,138 70.05,137.26 68.61,136.54 C67.17,135.83 65.6,134.94 64.21,134.12 C62.83,133.31 61.3,132.35 59.96,131.47 C58.62,130.58 57.12,129.56 55.83,128.6 C54.54,127.63 53.14,126.49 51.9,125.44 C50.67,124.4 49.28,123.22 48.12,122.08 C46.97,120.95 45.73,119.6 44.7,118.35 C43.66,117.11 42.56,115.64 41.65,114.3 C40.74,112.96 39.81,111.39 39,109.98 C38.19,108.58 37.33,106.97 36.6,105.52 C35.87,104.08 35.07,102.44 34.43,100.95 C33.79,99.46 33.1,97.77 32.61,96.22 C32.12,94.68 31.72,92.89 31.36,91.32 C30.99,89.74 30.57,87.97 30.32,86.37 C30.06,84.78 29.88,82.96 29.76,81.35 C29.63,79.74 29.59,77.93 29.56,76.32 C29.53,74.71 29.51,72.9 29.56,71.29 C29.61,69.68 29.69,67.87 29.85,66.26 C30.01,64.66 30.28,62.87 30.57,61.28 C30.86,59.7 31.25,57.93 31.65,56.36 C32.04,54.8 32.51,53.04 33.01,51.51 C33.52,49.99 34.19,48.3 34.81,46.81 C35.43,45.32 36.17,43.66 36.88,42.22 C37.6,40.78 38.45,39.17 39.27,37.78 C40.08,36.39 41.07,34.86 41.97,33.53 C42.88,32.2 43.96,30.73 44.94,29.46 C45.93,28.18 47.07,26.77 48.15,25.56 C49.22,24.35 50.47,23.02 51.63,21.9 C52.8,20.77 54.17,19.56 55.41,18.53 C56.66,17.5 58.1,16.38 59.42,15.44 C60.74,14.5 62.27,13.51 63.66,12.67 C65.04,11.82 66.62,10.91 68.06,10.16 C69.49,9.4 71.13,8.6 72.62,7.94 C74.1,7.29 75.8,6.61 77.32,6.05 C78.85,5.49 80.58,4.87 82.14,4.44 C83.71,4 85.51,3.63 87.11,3.33 C88.7,3.03 90.51,2.76 92.13,2.56 C93.74,2.36 95.56,2.17 97.18,2.07 C98.81,1.98 100.64,1.96 102.26,1.97 C103.89,1.99 105.72,2.04 107.34,2.18 C108.96,2.31 110.78,2.56 112.39,2.82 C113.99,3.08 115.8,3.4 117.37,3.79 C118.95,4.17 120.7,4.72 122.25,5.22 C123.79,5.72 125.52,6.31 127.02,6.91 C128.53,7.51 130.19,8.27 131.65,8.96 C133.11,9.66 134.74,10.48 136.15,11.27 C137.57,12.06 139.11,13.02 140.48,13.89 C141.84,14.76 143.38,15.74 144.69,16.69 C146,17.64 147.42,18.78 148.65,19.83 C149.89,20.88 151.25,22.1 152.39,23.25 C153.52,24.4 154.71,25.79 155.76,27.01 C156.82,28.24 158,29.62 158.98,30.9 C159.96,32.18 161,33.68 161.88,35.03 C162.75,36.39 163.64,37.97 164.45,39.37 C165.26,40.77 166.2,42.33 166.93,43.76 C167.66,45.2 168.41,46.86 169.01,48.36 C169.6,49.86 170.14,51.6 170.63,53.14 C171.11,54.68 171.6,56.43 172.04,57.98 C172.47,59.54 172.99,61.29 173.34,62.87 C173.68,64.45 174.01,66.25 174.19,67.86 C174.36,69.47 174.4,71.3 174.45,72.91 C174.49,74.53 174.54,76.36 174.48,77.97 C174.42,79.58 174.27,81.4 174.07,83.01 C173.87,84.61 173.53,86.4 173.23,87.98 C172.93,89.56 172.57,91.34 172.18,92.9 C171.79,94.46 171.26,96.19 170.8,97.73 C170.34,99.27 169.82,101.01 169.29,102.53 C168.77,104.05 168.14,105.75 167.52,107.24 C166.9,108.73 166.17,110.41 165.41,111.83 C164.65,113.26 163.65,114.78 162.78,116.15 C161.91,117.51 160.95,119.06 159.99,120.36 C159.04,121.66 157.88,123.07 156.8,124.27 C155.73,125.47 154.41,126.73 153.26,127.86 C152.11,128.99 150.82,130.25 149.62,131.33 C148.43,132.41 147.07,133.61 145.81,134.61 C144.55,135.61 143.07,136.66 141.75,137.58 C140.43,138.49 138.93,139.52 137.55,140.35 C136.17,141.18 134.56,142.01 133.13,142.75 C131.7,143.49 130.09,144.32 128.62,144.98 C127.14,145.63 125.45,146.29 123.93,146.83 C122.41,147.36 120.68,147.91 119.12,148.33 C117.57,148.75 115.79,149.14 114.21,149.42 C112.62,149.71 110.82,149.9 109.23,150.11 C107.63,150.32 105.84,150.57 104.24,150.73 C102.64,150.88 100.83,151.02 99.22,151.06 C97.61,151.11 95.79,151.1 94.18,151.02 C92.57,150.94 90.76,150.73 89.15,150.56 C87.55,150.39 85.73,150.24 84.13,149.98 C82.54,149.71 80.75,149.33 79.18,148.91 C77.62,148.5 75.87,147.96 74.35,147.4 C72.83,146.84 71.15,146.13 69.69,145.44 C68.23,144.75 66.63,143.88 65.23,143.09 C63.82,142.31 62.25,141.4 60.9,140.53 C59.55,139.67 58.08,138.62 56.78,137.69 C55.48,136.76 54.03,135.69 52.76,134.72 C51.49,133.75 50.06,132.66 48.83,131.64 C47.6,130.62 46.23,129.44 45.06,128.34 C43.9,127.24 42.63,125.95 41.54,124.77 C40.45,123.6 39.26,122.23 38.26,120.97 C37.26,119.72 36.18,118.26 35.28,116.92 C34.37,115.59 33.44,114.04 32.63,112.65 C31.82,111.26 30.96,109.66 30.22,108.23 C29.49,106.8 28.69,105.17 28.06,103.69 C27.42,102.21 26.77,100.51 26.26,98.98 C25.75,97.45 25.27,95.7 24.88,94.14 C24.49,92.58 24.14,90.8 23.84,89.22 C23.54,87.64 23.21,85.86 23,84.27 C22.8,82.67 22.67,80.87 22.54,79.27 C22.42,77.66 22.24,75.86 22.22,74.25 C22.2,72.65 22.32,70.83 22.42,69.23 C22.53,67.63 22.67,65.82 22.87,64.23 C23.07,62.63 23.4,60.85 23.68,59.27 C23.96,57.68 24.28,55.9 24.63,54.33 C24.99,52.76 25.44,51 25.89,49.45 C26.34,47.9 26.9,46.16 27.44,44.64 C27.98,43.11 28.61,41.39 29.26,39.91 C29.92,38.43 30.73,36.78 31.51,35.36 C32.3,33.94 33.28,32.4 34.17,31.04 C35.06,29.68 36.07,28.16 37.05,26.86 C38.03,25.57 39.23,24.19 40.3,22.97 C41.36,21.75 42.58,20.38 43.71,19.23 C44.85,18.07 46.16,16.81 47.38,15.73 C48.59,14.66 50.02,13.54 51.29,12.53 C52.56,11.52 53.98,10.38 55.29,9.44 C56.6,8.5 58.13,7.5 59.5,6.64 C60.88,5.79 62.45,4.87 63.88,4.1 C65.3,3.34 66.93,2.5 68.41,1.85 C69.9,1.21 71.61,0.58 73.15,0.07 C74.68,-0.44 76.44,-0.94 78,-1.35 C79.56,-1.76 81.32,-2.18 82.9,-2.49 C84.48,-2.79 86.27,-3.07 87.87,-3.28 C89.46,-3.48 92.05,-3.71 92.85,-3.8 L92.85,-3.75 C92.06,-3.66 89.46,-3.44 87.88,-3.18 C86.3,-2.93 84.53,-2.54 82.98,-2.16 C81.43,-1.77 79.69,-1.27 78.17,-0.76 C76.66,-0.25 74.98,0.42 73.51,1.04 C72.04,1.67 70.41,2.43 68.99,3.14 C67.57,3.85 66.01,4.73 64.62,5.5 C63.23,6.28 61.67,7.14 60.32,7.98 C58.97,8.82 57.49,9.82 56.2,10.74 C54.91,11.65 53.47,12.72 52.24,13.71 C51.01,14.71 49.67,15.89 48.49,16.95 C47.31,18.02 46.01,19.23 44.88,20.35 C43.76,21.47 42.52,22.76 41.47,23.96 C40.42,25.15 39.3,26.55 38.33,27.81 C37.37,29.08 36.3,30.52 35.43,31.86 C34.57,33.19 33.68,34.75 32.91,36.14 C32.15,37.54 31.32,39.13 30.66,40.58 C30,42.02 29.3,43.68 28.76,45.17 C28.21,46.66 27.71,48.38 27.26,49.9 C26.82,51.42 26.35,53.14 25.98,54.68 C25.61,56.21 25.22,57.95 24.93,59.51 C24.65,61.06 24.36,62.82 24.18,64.39 C24,65.96 23.88,67.73 23.81,69.31 C23.73,70.89 23.71,72.66 23.71,74.24 C23.7,75.82 23.67,77.61 23.76,79.18 C23.85,80.76 24.06,82.53 24.27,84.1 C24.48,85.66 24.75,87.43 25.07,88.97 C25.4,90.52 25.86,92.24 26.3,93.76 C26.73,95.27 27.3,96.96 27.81,98.45 C28.32,99.95 28.9,101.63 29.49,103.09 C30.09,104.55 30.82,106.17 31.5,107.6 C32.19,109.02 32.99,110.61 33.78,111.98 C34.57,113.35 35.53,114.85 36.41,116.16 C37.29,117.47 38.35,118.91 39.29,120.18 C40.24,121.45 41.3,122.88 42.31,124.1 C43.32,125.32 44.52,126.64 45.61,127.8 C46.69,128.95 47.94,130.24 49.11,131.32 C50.28,132.4 51.65,133.56 52.91,134.53 C54.16,135.51 55.61,136.58 56.95,137.43 C58.29,138.29 59.87,139.14 61.27,139.89 C62.67,140.65 64.27,141.43 65.7,142.13 C67.12,142.83 68.73,143.61 70.18,144.25 C71.64,144.88 73.31,145.53 74.8,146.08 C76.29,146.63 77.98,147.24 79.5,147.7 C81.03,148.16 82.77,148.63 84.33,148.96 C85.89,149.29 87.67,149.58 89.26,149.77 C90.84,149.96 92.64,150.06 94.23,150.13 C95.82,150.21 97.62,150.28 99.21,150.24 C100.8,150.21 102.6,150.07 104.18,149.92 C105.77,149.77 107.55,149.56 109.12,149.31 C110.68,149.06 112.44,148.73 113.99,148.37 C115.53,148 117.26,147.53 118.77,147.05 C120.28,146.56 121.94,145.9 123.41,145.33 C124.88,144.76 126.53,144.11 127.97,143.47 C129.42,142.83 131.03,142.09 132.42,141.36 C133.82,140.62 135.33,139.7 136.68,138.89 C138.03,138.07 139.54,137.15 140.85,136.27 C142.15,135.39 143.57,134.33 144.84,133.39 C146.1,132.44 147.54,131.39 148.76,130.38 C149.97,129.37 151.33,128.2 152.44,127.07 C153.56,125.95 154.71,124.58 155.72,123.36 C156.73,122.14 157.83,120.74 158.76,119.45 C159.68,118.17 160.67,116.68 161.5,115.33 C162.33,113.99 163.18,112.42 163.94,111.03 C164.69,109.64 165.52,108.07 166.21,106.64 C166.89,105.21 167.62,103.58 168.2,102.11 C168.78,100.64 169.42,98.96 169.86,97.44 C170.3,95.93 170.64,94.17 170.95,92.62 C171.27,91.07 171.59,89.32 171.84,87.76 C172.09,86.2 172.34,84.43 172.52,82.86 C172.7,81.29 172.88,79.51 172.96,77.93 C173.04,76.35 173.03,74.56 173.01,72.98 C172.98,71.39 172.92,69.6 172.8,68.01 C172.68,66.43 172.49,64.64 172.26,63.06 C172.03,61.49 171.73,59.7 171.34,58.16 C170.95,56.61 170.36,54.91 169.82,53.41 C169.27,51.91 168.56,50.26 167.94,48.79 C167.32,47.33 166.62,45.68 165.94,44.24 C165.25,42.81 164.45,41.2 163.65,39.83 C162.85,38.46 161.86,36.96 160.95,35.65 C160.04,34.35 158.96,32.92 157.98,31.68 C156.99,30.43 155.87,29.04 154.79,27.87 C153.72,26.7 152.43,25.47 151.28,24.37 C150.14,23.28 148.84,22.05 147.64,21.02 C146.44,19.99 145.04,18.87 143.77,17.93 C142.5,16.98 141.02,15.98 139.68,15.13 C138.35,14.28 136.81,13.37 135.43,12.6 C134.05,11.82 132.49,10.95 131.06,10.26 C129.63,9.57 127.98,8.87 126.5,8.29 C125.02,7.72 123.32,7.15 121.81,6.67 C120.29,6.2 118.57,5.69 117.02,5.34 C115.47,4.98 113.71,4.67 112.13,4.44 C110.56,4.21 108.78,4.01 107.2,3.87 C105.62,3.74 103.83,3.65 102.24,3.62 C100.65,3.59 98.86,3.61 97.27,3.68 C95.68,3.75 93.9,3.89 92.31,4.07 C90.73,4.24 88.95,4.47 87.39,4.77 C85.83,5.07 84.07,5.49 82.55,5.94 C81.02,6.38 79.34,7.01 77.85,7.56 C76.36,8.11 74.68,8.75 73.23,9.39 C71.78,10.03 70.18,10.82 68.77,11.56 C67.37,12.3 65.81,13.17 64.47,14.02 C63.13,14.86 61.69,15.91 60.4,16.83 C59.12,17.76 57.66,18.79 56.44,19.79 C55.21,20.79 53.89,21.99 52.75,23.08 C51.61,24.18 50.39,25.48 49.34,26.66 C48.28,27.83 47.15,29.2 46.18,30.45 C45.2,31.69 44.14,33.11 43.26,34.42 C42.38,35.73 41.48,37.26 40.67,38.61 C39.87,39.97 38.98,41.5 38.25,42.9 C37.53,44.3 36.75,45.91 36.14,47.36 C35.54,48.82 34.97,50.5 34.45,51.99 C33.93,53.49 33.32,55.16 32.91,56.69 C32.5,58.21 32.18,59.97 31.9,61.52 C31.61,63.08 31.33,64.83 31.13,66.4 C30.93,67.97 30.75,69.75 30.65,71.33 C30.56,72.91 30.52,74.7 30.52,76.29 C30.52,77.87 30.55,79.67 30.67,81.26 C30.8,82.84 31.05,84.62 31.32,86.19 C31.59,87.76 31.94,89.53 32.35,91.06 C32.77,92.6 33.37,94.29 33.89,95.8 C34.4,97.31 34.96,99.01 35.55,100.49 C36.13,101.97 36.83,103.63 37.54,105.05 C38.24,106.48 39.11,108.06 39.94,109.42 C40.76,110.78 41.77,112.27 42.69,113.57 C43.61,114.87 44.69,116.3 45.68,117.55 C46.67,118.8 47.81,120.19 48.86,121.39 C49.91,122.59 51.1,123.96 52.26,125.06 C53.42,126.16 54.82,127.3 56.09,128.28 C57.35,129.25 58.83,130.29 60.16,131.17 C61.49,132.05 63.01,133.02 64.41,133.79 C65.8,134.56 67.44,135.32 68.89,135.98 C70.34,136.64 71.98,137.35 73.46,137.92 C74.95,138.48 76.64,139.08 78.17,139.52 C79.69,139.96 81.44,140.35 82.99,140.67 C84.54,140.99 86.29,141.31 87.86,141.54 C89.42,141.76 91.19,141.96 92.76,142.08 C94.34,142.2 96.11,142.27 97.69,142.29 C99.27,142.31 101.04,142.3 102.62,142.21 C104.19,142.12 105.96,141.93 107.52,141.72 C109.08,141.5 110.83,141.2 112.38,140.89 C113.92,140.57 115.66,140.19 117.17,139.75 C118.68,139.31 120.35,138.71 121.83,138.15 C123.3,137.59 124.92,136.88 126.36,136.25 C127.8,135.61 129.43,134.9 130.84,134.2 C132.25,133.5 133.82,132.65 135.18,131.85 C136.54,131.04 138.04,130.07 139.34,129.15 C140.63,128.24 142.08,127.17 143.28,126.15 C144.49,125.12 145.8,123.88 146.9,122.74 C148,121.6 149.15,120.23 150.18,119.02 C151.2,117.8 152.34,116.42 153.28,115.15 C154.23,113.88 155.25,112.4 156.09,111.05 C156.92,109.7 157.77,108.13 158.51,106.72 C159.24,105.31 160.03,103.7 160.68,102.25 C161.32,100.8 161.99,99.14 162.55,97.65 C163.11,96.16 163.76,94.47 164.16,92.93 C164.57,91.39 164.86,89.61 165.1,88.04 C165.34,86.46 165.53,84.68 165.67,83.1 C165.81,81.51 165.93,79.73 165.99,78.14 C166.05,76.56 166.11,74.76 166.04,73.17 C165.97,71.59 165.75,69.81 165.56,68.23 C165.36,66.65 165.12,64.88 164.84,63.32 C164.55,61.75 164.21,59.98 163.79,58.45 C163.37,56.92 162.77,55.22 162.2,53.74 C161.64,52.25 160.91,50.61 160.25,49.17 C159.6,47.72 158.87,46.08 158.1,44.69 C157.33,43.3 156.36,41.79 155.46,40.48 C154.56,39.18 153.45,37.77 152.45,36.55 C151.45,35.32 150.28,33.97 149.2,32.82 C148.12,31.67 146.86,30.42 145.7,29.35 C144.54,28.28 143.19,27.14 141.96,26.15 C140.74,25.16 139.36,24.05 138.07,23.15 C136.79,22.24 135.28,21.31 133.93,20.5 C132.58,19.69 131.05,18.8 129.65,18.09 C128.25,17.38 126.63,16.64 125.18,16.04 C123.72,15.44 122.05,14.83 120.55,14.35 C119.05,13.87 117.34,13.42 115.81,13.05 C114.28,12.68 112.54,12.3 110.99,12.05 C109.44,11.8 107.67,11.6 106.1,11.48 C104.53,11.36 102.75,11.32 101.18,11.31 C99.6,11.3 97.83,11.3 96.26,11.42 C94.69,11.53 92.93,11.79 91.37,12.03 C89.81,12.26 88.05,12.54 86.51,12.88 C84.97,13.22 83.25,13.68 81.75,14.15 C80.24,14.62 78.56,15.22 77.1,15.81 C75.63,16.4 74.01,17.15 72.6,17.84 C71.18,18.54 69.6,19.37 68.24,20.18 C66.88,20.98 65.4,21.97 64.1,22.87 C62.8,23.77 61.34,24.81 60.12,25.82 C58.9,26.82 57.6,28.05 56.47,29.16 C55.34,30.27 54.09,31.56 53.05,32.75 C52.02,33.95 50.91,35.35 49.99,36.64 C49.07,37.94 48.13,39.45 47.33,40.82 C46.54,42.18 45.7,43.76 45.01,45.18 C44.33,46.6 43.63,48.23 43.05,49.69 C42.47,51.16 41.89,52.83 41.4,54.32 C40.9,55.81 40.35,57.5 39.95,59.02 C39.55,60.54 39.22,62.28 38.9,63.82 C38.58,65.37 38.18,67.11 37.95,68.68 C37.72,70.25 37.56,72.03 37.45,73.62 C37.34,75.21 37.24,77.02 37.27,78.62 C37.3,80.22 37.44,82.03 37.65,83.62 C37.85,85.21 38.17,87 38.57,88.55 C38.98,90.1 39.6,91.81 40.18,93.31 C40.75,94.8 41.44,96.47 42.15,97.9 C42.85,99.33 43.76,100.89 44.58,102.24 C45.41,103.6 46.41,105.07 47.3,106.38 C48.18,107.69 49.17,109.16 50.12,110.42 C51.06,111.68 52.18,113.06 53.21,114.24 C54.25,115.42 55.49,116.69 56.6,117.81 C57.71,118.92 58.98,120.16 60.16,121.21 C61.34,122.26 62.69,123.44 63.96,124.37 C65.23,125.31 66.75,126.26 68.12,127.06 C69.48,127.85 71.06,128.68 72.49,129.37 C73.92,130.05 75.56,130.74 77.03,131.33 C78.5,131.92 80.16,132.58 81.67,133.06 C83.18,133.54 84.92,133.97 86.47,134.32 C88.02,134.66 89.78,135 91.35,135.21 C92.92,135.43 94.71,135.59 96.3,135.67 C97.89,135.75 99.69,135.8 101.27,135.73 C102.86,135.67 104.65,135.48 106.23,135.27 C107.8,135.06 109.57,134.76 111.13,134.44 C112.68,134.11 114.43,133.68 115.95,133.24 C117.48,132.79 119.18,132.23 120.66,131.65 C122.15,131.08 123.8,130.37 125.22,129.67 C126.65,128.96 128.21,128.09 129.57,127.27 C130.93,126.44 132.43,125.46 133.71,124.53 C135,123.6 136.41,122.49 137.61,121.45 C138.81,120.41 140.1,119.17 141.21,118.05 C142.33,116.92 143.55,115.62 144.57,114.41 C145.59,113.2 146.67,111.77 147.59,110.48 C148.5,109.19 149.47,107.69 150.29,106.34 C151.12,104.98 152.01,103.44 152.73,102.02 C153.45,100.61 154.19,98.98 154.78,97.5 C155.37,96.03 155.96,94.34 156.42,92.82 C156.87,91.29 157.3,89.55 157.6,87.99 C157.9,86.44 158.15,84.66 158.31,83.08 C158.47,81.5 158.57,79.72 158.59,78.13 C158.61,76.55 158.56,74.77 158.45,73.19 C158.34,71.61 158.13,69.84 157.9,68.28 C157.67,66.72 157.35,64.97 156.99,63.43 C156.62,61.9 156.11,60.2 155.63,58.69 C155.16,57.19 154.61,55.5 154.03,54.03 C153.45,52.57 152.7,50.95 151.98,49.55 C151.26,48.15 150.35,46.61 149.52,45.27 C148.68,43.94 147.7,42.45 146.77,41.18 C145.83,39.91 144.73,38.5 143.68,37.32 C142.63,36.14 141.37,34.88 140.21,33.81 C139.04,32.74 137.66,31.61 136.42,30.63 C135.18,29.65 133.77,28.57 132.45,27.7 C131.13,26.83 129.58,25.95 128.2,25.18 C126.82,24.4 125.27,23.51 123.83,22.86 C122.39,22.2 120.7,21.6 119.2,21.08 C117.7,20.57 115.99,20.02 114.46,19.63 C112.92,19.25 111.15,18.9 109.58,18.68 C108.01,18.45 106.22,18.31 104.64,18.25 C103.06,18.19 101.27,18.21 99.69,18.28 C98.11,18.36 96.33,18.5 94.76,18.72 C93.2,18.93 91.45,19.27 89.91,19.63 C88.38,19.99 86.67,20.49 85.17,20.95 C83.67,21.42 81.99,21.98 80.52,22.54 C79.05,23.1 77.41,23.78 75.98,24.45 C74.56,25.12 72.96,25.91 71.6,26.71 C70.23,27.51 68.75,28.51 67.47,29.44 C66.19,30.36 64.79,31.47 63.59,32.51 C62.39,33.54 61.05,34.74 59.95,35.88 C58.86,37.03 57.72,38.42 56.75,39.67 C55.78,40.93 54.73,42.38 53.88,43.71 C53.02,45.05 52.16,46.62 51.43,48.03 C50.71,49.44 49.94,51.05 49.34,52.52 C48.73,53.98 48.12,55.66 47.66,57.17 C47.2,58.69 46.77,60.42 46.44,61.97 C46.11,63.52 45.79,65.27 45.59,66.84 C45.39,68.41 45.26,70.19 45.19,71.77 C45.11,73.35 45.06,75.13 45.12,76.71 C45.19,78.29 45.34,80.08 45.57,81.65 C45.8,83.21 46.2,84.96 46.59,86.49 C46.97,88.03 47.47,89.74 47.98,91.24 C48.48,92.74 49.09,94.42 49.73,95.86 C50.38,97.31 51.21,98.89 52,100.26 C52.79,101.63 53.74,103.14 54.68,104.41 C55.61,105.67 56.81,106.99 57.84,108.18 C58.87,109.37 59.99,110.74 61.11,111.84 C62.22,112.94 63.6,114.07 64.8,115.07 C66.01,116.07 67.38,117.19 68.65,118.1 C69.92,119.02 71.4,119.99 72.75,120.79 C74.11,121.59 75.67,122.43 77.1,123.1 C78.52,123.77 80.16,124.46 81.65,124.98 C83.13,125.5 84.84,126.01 86.37,126.38 C87.9,126.75 89.66,127.03 91.22,127.28 C92.78,127.52 94.54,127.79 96.11,127.9 C97.69,128.01 99.48,128.02 101.05,127.94 C102.63,127.87 104.4,127.67 105.96,127.45 C107.53,127.22 109.28,126.9 110.81,126.52 C112.34,126.14 114.04,125.61 115.53,125.09 C117.01,124.57 118.66,123.91 120.1,123.27 C121.53,122.63 123.13,121.84 124.5,121.07 C125.87,120.3 127.37,119.35 128.66,118.45 C129.96,117.56 131.38,116.5 132.59,115.5 C133.81,114.49 135.13,113.3 136.24,112.19 C137.34,111.07 138.53,109.74 139.52,108.51 C140.5,107.28 141.54,105.84 142.41,104.53 C143.27,103.21 144.19,101.68 144.92,100.29 C145.65,98.9 146.39,97.28 146.99,95.83 C147.58,94.37 148.18,92.7 148.63,91.19 C149.07,89.69 149.48,87.96 149.79,86.42 C150.09,84.88 150.36,83.13 150.52,81.57 C150.67,80.01 150.75,78.24 150.76,76.67 C150.77,75.11 150.68,73.34 150.56,71.78 C150.44,70.21 150.26,68.45 150.01,66.9 C149.76,65.35 149.39,63.62 149,62.09 C148.61,60.57 148.13,58.84 147.58,57.36 C147.04,55.88 146.29,54.26 145.59,52.84 C144.88,51.43 144.02,49.86 143.16,48.53 C142.31,47.2 141.26,45.75 140.26,44.52 C139.27,43.29 138.05,41.98 136.94,40.86 C135.82,39.75 134.5,38.55 133.29,37.54 C132.07,36.53 130.67,35.43 129.37,34.55 C128.06,33.67 126.51,32.79 125.12,32.05 C123.74,31.31 122.14,30.52 120.7,29.91 C119.25,29.3 117.57,28.71 116.07,28.26 C114.57,27.8 112.85,27.36 111.32,27.04 C109.78,26.72 108.04,26.44 106.48,26.27 C104.92,26.09 103.15,25.94 101.58,25.94 C100.02,25.93 98.25,26.09 96.69,26.25 C95.13,26.4 93.38,26.62 91.84,26.91 C90.3,27.2 88.58,27.62 87.08,28.05 C85.57,28.48 83.87,29.01 82.42,29.6 C80.98,30.2 79.4,31.03 78.03,31.78 C76.65,32.53 75.13,33.44 73.83,34.31 C72.53,35.18 71.09,36.23 69.88,37.22 C68.66,38.21 67.34,39.4 66.23,40.51 C65.12,41.62 63.93,42.94 62.93,44.15 C61.93,45.36 60.85,46.78 59.96,48.08 C59.07,49.38 58.1,50.89 57.36,52.29 C56.62,53.69 55.91,55.33 55.33,56.81 C54.76,58.28 54.16,59.98 53.76,61.51 C53.37,63.04 53.08,64.82 52.87,66.39 C52.66,67.95 52.47,69.73 52.44,71.31 C52.42,72.88 52.56,74.67 52.71,76.23 C52.87,77.79 53.14,79.54 53.43,81.07 C53.72,82.61 54.11,84.32 54.51,85.83 C54.9,87.34 55.4,89.03 55.89,90.51 C56.38,92 56.97,93.67 57.58,95.12 C58.19,96.58 58.92,98.22 59.71,99.59 C60.49,100.96 61.51,102.45 62.49,103.7 C63.47,104.95 64.7,106.27 65.82,107.39 C66.95,108.5 68.29,109.7 69.53,110.68 C70.77,111.67 72.24,112.7 73.57,113.56 C74.9,114.42 76.43,115.36 77.85,116.07 C79.26,116.77 80.93,117.43 82.42,117.97 C83.91,118.51 85.61,119.04 87.14,119.43 C88.67,119.82 90.42,120.18 91.98,120.4 C93.54,120.63 95.32,120.78 96.9,120.83 C98.47,120.88 100.25,120.83 101.83,120.74 C103.4,120.64 105.17,120.48 106.73,120.24 C108.29,120 110.05,119.66 111.57,119.24 C113.09,118.82 114.78,118.22 116.25,117.64 C117.72,117.05 119.36,116.32 120.75,115.57 C122.14,114.82 123.64,113.84 124.93,112.92 C126.22,112.01 127.62,110.89 128.81,109.85 C129.99,108.81 131.33,107.6 132.37,106.42 C133.41,105.24 134.4,103.75 135.31,102.46 C136.23,101.18 137.28,99.74 138.06,98.38 C138.84,97.02 139.55,95.39 140.19,93.95 C140.83,92.52 141.55,90.89 142.04,89.4 C142.54,87.91 142.98,86.18 143.29,84.63 C143.61,83.09 143.85,81.33 144.01,79.76 C144.17,78.19 144.3,76.4 144.28,74.83 C144.26,73.25 144.09,71.46 143.88,69.9 C143.67,68.33 143.36,66.56 142.97,65.03 C142.58,63.5 142.01,61.79 141.43,60.32 C140.86,58.85 140.12,57.21 139.36,55.83 C138.59,54.45 137.57,52.98 136.65,51.7 C135.73,50.42 134.66,49.01 133.63,47.82 C132.6,46.64 131.37,45.36 130.21,44.3 C129.05,43.25 127.66,42.14 126.39,41.22 C125.13,40.3 123.64,39.34 122.29,38.56 C120.93,37.78 119.34,37 117.91,36.36 C116.49,35.71 114.86,34.99 113.37,34.51 C111.87,34.02 110.13,33.65 108.59,33.35 C107.04,33.05 105.28,32.76 103.71,32.64 C102.14,32.52 100.35,32.51 98.78,32.61 C97.21,32.71 95.44,32.97 93.89,33.24 C92.34,33.52 90.59,33.87 89.09,34.34 C87.59,34.82 85.95,35.52 84.53,36.19 C83.1,36.86 81.55,37.7 80.21,38.51 C78.87,39.32 77.4,40.3 76.16,41.25 C74.92,42.19 73.58,43.35 72.45,44.43 C71.33,45.5 70.11,46.78 69.11,47.98 C68.11,49.18 67.09,50.62 66.23,51.92 C65.37,53.23 64.46,54.74 63.75,56.14 C63.04,57.53 62.33,59.16 61.81,60.64 C61.29,62.11 60.86,63.83 60.52,65.37 C60.19,66.9 59.88,68.64 59.72,70.2 C59.56,71.76 59.49,73.54 59.52,75.11 C59.56,76.68 59.75,78.45 59.96,80.01 C60.17,81.57 60.46,83.33 60.84,84.86 C61.22,86.39 61.75,88.11 62.33,89.58 C62.92,91.04 63.71,92.66 64.51,94.03 C65.3,95.4 66.35,96.85 67.29,98.14 C68.22,99.42 69.24,100.91 70.32,102.08 C71.4,103.24 72.78,104.42 74.04,105.39 C75.29,106.37 76.79,107.37 78.16,108.17 C79.52,108.98 81.12,109.8 82.57,110.45 C84.02,111.09 85.7,111.71 87.21,112.18 C88.72,112.65 90.45,113.11 92.01,113.4 C93.57,113.68 95.35,113.85 96.94,113.96 C98.52,114.06 100.33,114.16 101.91,114.05 C103.49,113.94 105.28,113.63 106.83,113.28 C108.38,112.94 110.11,112.43 111.6,111.89 C113.09,111.36 114.75,110.66 116.17,109.94 C117.58,109.23 119.14,108.32 120.43,107.4 C121.72,106.48 123.06,105.28 124.2,104.2 C125.35,103.11 126.59,101.83 127.59,100.62 C128.59,99.42 129.62,97.96 130.46,96.64 C131.29,95.32 132.13,93.76 132.82,92.36 C133.51,90.95 134.25,89.34 134.77,87.87 C135.29,86.39 135.74,84.67 136.07,83.14 C136.39,81.6 136.69,79.84 136.8,78.27 C136.91,76.7 136.87,74.91 136.76,73.34 C136.66,71.77 136.44,70 136.12,68.45 C135.81,66.9 135.33,65.17 134.81,63.68 C134.28,62.2 133.58,60.54 132.84,59.14 C132.1,57.75 131.12,56.25 130.19,54.97 C129.26,53.69 128.13,52.3 127.04,51.16 C125.96,50.02 124.62,48.82 123.39,47.84 C122.15,46.87 120.69,45.83 119.33,45.05 C117.97,44.27 116.32,43.56 114.87,42.97 C113.41,42.38 111.74,41.77 110.23,41.38 C108.71,40.99 106.95,40.72 105.4,40.55 C103.84,40.37 102.07,40.26 100.51,40.29 C98.95,40.32 97.18,40.46 95.64,40.72 C94.1,40.98 92.38,41.43 90.89,41.89 C89.4,42.36 87.74,42.98 86.32,43.64 C84.9,44.29 83.34,45.14 82.02,45.99 C80.7,46.84 79.24,47.88 78.08,48.93 C76.92,49.98 75.7,51.31 74.76,52.55 C73.82,53.8 72.94,55.35 72.18,56.71 C71.42,58.07 70.6,59.62 70,61.05 C69.4,62.48 68.83,64.15 68.43,65.65 C68.03,67.15 67.67,68.88 67.5,70.42 C67.32,71.97 67.3,73.73 67.34,75.29 C67.38,76.85 67.5,78.62 67.76,80.16 C68.02,81.7 68.43,83.44 68.96,84.91 C69.48,86.39 70.28,87.99 71.05,89.35 C71.82,90.71 72.83,92.17 73.76,93.42 C74.69,94.68 75.77,96.1 76.87,97.22 C77.97,98.34 79.33,99.51 80.62,100.41 C81.9,101.31 83.48,102.16 84.9,102.84 C86.31,103.51 87.97,104.16 89.46,104.63 C90.96,105.09 92.69,105.47 94.24,105.74 C95.79,106 97.57,106.25 99.14,106.27 C100.71,106.28 102.52,106.16 104.05,105.85 C105.59,105.55 107.28,104.92 108.75,104.37 C110.22,103.82 111.85,103.14 113.23,102.41 C114.61,101.68 116.13,100.76 117.37,99.81 C118.6,98.86 119.88,97.62 120.94,96.48 C122,95.34 123.12,93.96 123.98,92.67 C124.85,91.38 125.69,89.82 126.35,88.42 C127.01,87.01 127.71,85.37 128.11,83.87 C128.52,82.37 128.71,80.6 128.86,79.05 C129.01,77.51 129.14,75.74 129.05,74.19 C128.95,72.64 128.65,70.89 128.27,69.38 C127.89,67.88 127.28,66.22 126.67,64.79 C126.05,63.37 125.25,61.79 124.41,60.49 C123.57,59.19 122.48,57.79 121.43,56.65 C120.37,55.52 119.05,54.34 117.82,53.39 C116.59,52.44 115.12,51.46 113.74,50.73 C112.37,50.01 110.72,49.33 109.24,48.85 C107.76,48.38 106.02,47.96 104.48,47.76 C102.93,47.56 101.14,47.49 99.59,47.59 C98.03,47.7 96.28,48.04 94.77,48.42 C93.26,48.81 91.57,49.35 90.15,49.98 C88.72,50.6 87.16,51.45 85.86,52.31 C84.56,53.17 83.14,54.26 82.01,55.34 C80.89,56.42 79.72,57.79 78.82,59.08 C77.93,60.36 77.05,61.93 76.4,63.36 C75.76,64.79 75.17,66.49 74.8,68.02 C74.43,69.55 74.14,71.34 74.08,72.91 C74.01,74.48 74.15,76.29 74.41,77.84 C74.66,79.4 75.12,81.15 75.68,82.61 C76.24,84.08 77.07,85.67 77.9,87.01 C78.73,88.34 79.79,89.78 80.84,90.93 C81.9,92.09 83.23,93.3 84.48,94.24 C85.73,95.18 87.25,96.16 88.67,96.82 C90.09,97.47 91.83,98 93.36,98.31 C94.89,98.62 96.68,98.74 98.24,98.74 C99.79,98.75 101.56,98.63 103.09,98.35 C104.61,98.08 106.31,97.57 107.76,97.01 C109.21,96.44 110.82,95.67 112.13,94.82 C113.44,93.98 114.84,92.84 115.94,91.72 C117.04,90.61 118.18,89.19 118.99,87.85 C119.8,86.52 120.52,84.85 121.01,83.36 C121.5,81.87 121.9,80.11 122.06,78.55 C122.22,77 122.23,75.18 122.03,73.64 C121.82,72.1 121.33,70.36 120.77,68.91 C120.21,67.46 119.39,65.88 118.53,64.6 C117.68,63.31 116.53,61.96 115.43,60.89 C114.32,59.83 112.93,58.72 111.62,57.93 C110.31,57.14 108.68,56.43 107.22,55.97 C105.76,55.52 104.01,55.18 102.49,55.08 C100.96,54.98 99.2,55.11 97.68,55.35 C96.17,55.6 94.45,56.04 93.02,56.61 C91.58,57.18 89.97,58.01 88.72,58.93 C87.47,59.85 86.11,61.11 85.19,62.36 C84.26,63.61 83.44,65.27 82.93,66.73 C82.41,68.19 82.07,69.97 81.94,71.49 C81.8,73.02 81.86,74.77 82.08,76.25 C82.3,77.73 82.74,79.39 83.31,80.74 C83.88,82.08 84.76,83.54 85.65,84.67 C86.54,85.79 87.75,86.92 88.88,87.76 C90.01,88.6 91.43,89.38 92.71,89.9 C93.98,90.42 95.52,90.83 96.86,91.01 C98.21,91.2 99.78,91.24 101.1,91.06 C102.42,90.89 103.91,90.44 105.12,89.93 C106.33,89.42 107.66,88.68 108.66,87.88 C109.67,87.09 110.65,85.97 111.42,84.96 C112.18,83.95 112.98,82.73 113.46,81.59 C113.94,80.45 114.25,79.04 114.41,77.82 C114.57,76.61 114.59,75.2 114.44,74.01 C114.28,72.82 113.92,71.47 113.47,70.38 C113.01,69.28 112.16,67.97 111.6,67.17 C111.04,66.38 110.55,65.92 109.98,65.41 C109.41,64.9 108.69,64.37 108.03,63.97 C107.38,63.57 106.58,63.19 105.86,62.91 C105.14,62.64 104.3,62.38 103.54,62.24 C102.79,62.1 101.9,62.04 101.14,62.06 C100.37,62.09 99.51,62.22 98.76,62.38 C98.01,62.54 97.18,62.79 96.48,63.07 C95.77,63.35 94.99,63.74 94.35,64.16 C93.72,64.57 93.07,65.15 92.52,65.67 C91.97,66.2 91.37,66.83 90.94,67.45 C90.51,68.08 90.12,68.87 89.86,69.57 C89.59,70.28 89.39,71.13 89.3,71.87 C89.21,72.61 89.23,73.47 89.29,74.2 C89.35,74.94 89.47,75.77 89.67,76.47 C89.87,77.18 90.21,77.94 90.55,78.58 C90.9,79.22 91.36,79.9 91.82,80.46 C92.29,81.02 92.87,81.62 93.44,82.07 C94.01,82.51 94.73,82.97 95.39,83.25 C96.06,83.54 96.89,83.74 97.61,83.85 C98.33,83.95 99.18,83.98 99.9,83.91 C100.62,83.83 101.46,83.63 102.14,83.38 C102.82,83.14 103.58,82.79 104.16,82.39 C104.74,81.99 105.32,81.41 105.75,80.87 C106.17,80.34 106.55,79.65 106.81,79.04 C107.07,78.43 107.3,77.7 107.39,77.07 C107.49,76.44 107.48,75.7 107.41,75.09 C107.33,74.47 107.16,73.78 106.92,73.23 C106.69,72.68 106.32,72.11 105.95,71.67 C105.59,71.23 105.1,70.81 104.65,70.49 C104.21,70.18 103.66,69.9 103.18,69.71 C102.69,69.53 102.12,69.38 101.63,69.34 C101.14,69.3 100.57,69.35 100.12,69.45 C99.67,69.55 99.19,69.78 98.81,69.99 C98.43,70.19 98.04,70.48 97.74,70.75 C97.44,71.02 97.12,71.36 96.92,71.68 C96.71,71.99 96.54,72.4 96.45,72.74 C96.36,73.08 96.34,73.48 96.35,73.8 C96.37,74.12 96.44,74.47 96.52,74.75 C96.61,75.03 96.75,75.33 96.89,75.55 C97.02,75.78 97.21,76 97.38,76.17 C97.55,76.34 97.76,76.5 97.95,76.62 C98.13,76.74 98.35,76.86 98.54,76.92 C98.73,76.99 98.96,77.03 99.15,77.04 C99.33,77.05 99.54,77.03 99.71,76.99 C99.88,76.95 100.05,76.87 100.19,76.79 C100.32,76.72 100.45,76.6 100.55,76.5 C100.64,76.4 100.72,76.26 100.77,76.15 C100.82,76.04 100.84,75.9 100.85,75.8 C100.85,75.7 100.82,75.58 100.79,75.5 C100.76,75.42 100.66,75.34 100.64,75.31 Z" fill="#333"></path><path d="M112.79,-3.23 C113.58,-3.1 116.15,-2.7 117.72,-2.4 C119.29,-2.1 121.06,-1.74 122.61,-1.35 C124.17,-0.96 125.9,-0.45 127.43,0.03 C128.97,0.51 130.69,1.06 132.19,1.64 C133.69,2.22 135.36,2.94 136.81,3.65 C138.26,4.35 139.84,5.24 141.23,6.05 C142.62,6.87 144.15,7.85 145.49,8.74 C146.83,9.62 148.33,10.65 149.62,11.61 C150.91,12.58 152.33,13.71 153.55,14.76 C154.78,15.81 156.13,17.03 157.28,18.15 C158.43,19.28 159.69,20.59 160.75,21.8 C161.81,23.02 162.91,24.46 163.88,25.75 C164.85,27.03 165.9,28.51 166.81,29.83 C167.72,31.15 168.75,32.65 169.59,34.02 C170.43,35.38 171.31,36.97 172.06,38.39 C172.82,39.81 173.64,41.42 174.31,42.88 C174.98,44.34 175.67,46.02 176.23,47.53 C176.8,49.03 177.39,50.75 177.84,52.29 C178.28,53.83 178.66,55.61 179.01,57.18 C179.35,58.75 179.69,60.52 179.98,62.1 C180.27,63.67 180.63,65.45 180.84,67.04 C181.06,68.63 181.2,70.44 181.31,72.04 C181.42,73.65 181.55,75.46 181.55,77.07 C181.55,78.68 181.41,80.49 181.3,82.1 C181.19,83.7 181.06,85.51 180.87,87.11 C180.67,88.71 180.41,90.51 180.1,92.09 C179.79,93.67 179.33,95.43 178.93,97 C178.53,98.56 178.09,100.32 177.6,101.86 C177.11,103.4 176.47,105.1 175.87,106.6 C175.28,108.1 174.56,109.77 173.88,111.24 C173.2,112.7 172.41,114.34 171.63,115.76 C170.85,117.17 169.87,118.7 168.99,120.06 C168.11,121.41 167.08,122.91 166.12,124.21 C165.17,125.51 164.06,126.95 163.04,128.2 C162.01,129.44 160.81,130.81 159.72,131.99 C158.63,133.18 157.35,134.47 156.2,135.6 C155.05,136.73 153.76,138.02 152.54,139.08 C151.32,140.13 149.86,141.23 148.56,142.19 C147.26,143.15 145.77,144.19 144.41,145.07 C143.05,145.94 141.5,146.89 140.08,147.65 C138.65,148.41 137,149.19 135.52,149.81 C134.04,150.44 132.33,151.05 130.81,151.58 C129.29,152.11 127.57,152.65 126.04,153.13 C124.52,153.6 122.02,154.32 121.26,154.55 L121.25,154.51 C122,154.26 124.49,153.52 125.99,152.97 C127.48,152.41 129.13,151.71 130.59,151.06 C132.04,150.41 133.68,149.66 135.08,148.92 C136.49,148.18 138.02,147.25 139.38,146.43 C140.74,145.6 142.25,144.66 143.57,143.78 C144.89,142.91 146.38,141.91 147.63,140.94 C148.89,139.98 150.23,138.8 151.43,137.76 C152.63,136.73 153.98,135.57 155.14,134.49 C156.3,133.41 157.56,132.15 158.65,131 C159.74,129.85 160.96,128.54 161.97,127.32 C162.97,126.09 164.01,124.64 164.92,123.34 C165.84,122.05 166.83,120.57 167.68,119.23 C168.53,117.89 169.46,116.37 170.23,114.98 C170.99,113.6 171.79,112 172.47,110.57 C173.16,109.15 173.91,107.53 174.54,106.07 C175.16,104.61 175.86,102.95 176.36,101.45 C176.87,99.95 177.35,98.22 177.71,96.67 C178.08,95.13 178.4,93.37 178.65,91.81 C178.91,90.24 179.14,88.47 179.32,86.9 C179.5,85.33 179.69,83.56 179.8,81.99 C179.9,80.41 179.93,78.63 179.96,77.05 C180,75.47 180.06,73.69 180,72.11 C179.94,70.53 179.77,68.75 179.6,67.18 C179.42,65.61 179.18,63.84 178.9,62.29 C178.61,60.73 178.23,58.99 177.84,57.46 C177.45,55.93 176.93,54.22 176.44,52.72 C175.95,51.22 175.35,49.55 174.77,48.08 C174.2,46.61 173.5,44.97 172.85,43.54 C172.21,42.1 171.45,40.49 170.74,39.09 C170.03,37.68 169.2,36.1 168.42,34.73 C167.63,33.36 166.71,31.83 165.82,30.52 C164.94,29.21 163.87,27.77 162.89,26.53 C161.91,25.29 160.75,23.93 159.68,22.77 C158.61,21.6 157.33,20.36 156.2,19.25 C155.08,18.14 153.83,16.85 152.64,15.82 C151.44,14.79 149.99,13.74 148.72,12.8 C147.46,11.85 146.02,10.79 144.71,9.91 C143.4,9.03 141.88,8.1 140.51,7.31 C139.14,6.52 137.56,5.68 136.15,4.96 C134.75,4.25 133.14,3.48 131.7,2.81 C130.26,2.14 128.64,1.37 127.17,0.79 C125.69,0.21 123.98,-0.34 122.46,-0.81 C120.94,-1.28 119.21,-1.75 117.66,-2.12 C116.11,-2.49 113.56,-2.98 112.78,-3.14 Z" fill="#333"></path><path d="M76.85,154.87 C76.08,154.64 73.59,153.91 72.06,153.41 C70.54,152.92 68.83,152.34 67.33,151.79 C65.82,151.24 64.11,150.63 62.64,149.98 C61.17,149.33 59.55,148.51 58.14,147.73 C56.73,146.96 55.17,146.03 53.83,145.14 C52.49,144.26 51.03,143.18 49.76,142.2 C48.49,141.21 47.13,140.02 45.91,138.98 C44.69,137.94 43.32,136.77 42.12,135.7 C40.93,134.63 39.56,133.44 38.43,132.3 C37.3,131.16 36.1,129.81 35.06,128.58 C34.02,127.36 32.89,125.94 31.95,124.64 C31.01,123.34 30.08,121.79 29.19,120.45 C28.31,119.11 27.32,117.6 26.45,116.25 C25.57,114.91 24.51,113.42 23.71,112.02 C22.92,110.61 22.15,108.96 21.49,107.49 C20.83,106.02 20.15,104.33 19.61,102.81 C19.06,101.29 18.54,99.54 18.09,97.99 C17.64,96.44 17.17,94.69 16.8,93.12 C16.43,91.55 16.07,89.77 15.79,88.18 C15.5,86.59 15.22,84.79 15.01,83.19 C14.81,81.59 14.6,79.77 14.51,78.16 C14.41,76.55 14.41,74.72 14.42,73.11 C14.43,71.49 14.43,69.66 14.56,68.05 C14.68,66.44 14.92,64.63 15.21,63.04 C15.49,61.45 15.95,59.68 16.33,58.12 C16.72,56.55 17.19,54.81 17.61,53.26 C18.04,51.71 18.48,49.96 18.96,48.43 C19.44,46.9 20.05,45.2 20.61,43.7 C21.17,42.19 21.84,40.51 22.47,39.04 C23.11,37.56 23.85,35.91 24.56,34.47 C25.28,33.04 26.15,31.45 26.95,30.05 C27.75,28.66 28.67,27.09 29.56,25.75 C30.44,24.41 31.5,22.93 32.49,21.66 C33.47,20.39 34.68,19.03 35.71,17.79 C36.75,16.56 37.86,15.12 38.97,13.94 C40.07,12.77 41.43,11.56 42.59,10.44 C43.76,9.32 45.01,7.99 46.24,6.94 C47.47,5.89 48.94,4.8 50.25,3.86 C51.57,2.92 53.09,1.9 54.48,1.08 C55.86,0.25 57.48,-0.6 58.93,-1.31 C60.38,-2.02 62.05,-2.74 63.53,-3.38 C65,-4.02 67.42,-4.99 68.16,-5.3 L68.18,-5.27 C67.45,-4.93 65.05,-3.91 63.62,-3.17 C62.2,-2.44 60.64,-1.53 59.27,-0.69 C57.91,0.15 56.4,1.14 55.09,2.05 C53.79,2.97 52.34,4.04 51.09,5.02 C49.84,6.01 48.47,7.16 47.27,8.2 C46.06,9.24 44.7,10.4 43.57,11.51 C42.44,12.62 41.26,13.97 40.19,15.14 C39.13,16.31 37.93,17.63 36.91,18.83 C35.88,20.03 34.75,21.4 33.78,22.65 C32.81,23.9 31.74,25.32 30.85,26.63 C29.97,27.94 29.05,29.46 28.24,30.82 C27.43,32.18 26.55,33.73 25.81,35.12 C25.07,36.52 24.28,38.12 23.61,39.55 C22.95,40.98 22.22,42.61 21.64,44.08 C21.06,45.56 20.49,47.25 20,48.75 C19.5,50.26 18.96,51.96 18.54,53.49 C18.13,55.02 17.71,56.76 17.41,58.32 C17.11,59.88 16.86,61.65 16.66,63.22 C16.45,64.8 16.25,66.58 16.12,68.16 C15.99,69.74 15.89,71.53 15.86,73.12 C15.83,74.71 15.86,76.5 15.93,78.09 C15.99,79.68 16.08,81.47 16.27,83.05 C16.46,84.63 16.8,86.39 17.1,87.95 C17.4,89.51 17.76,91.27 18.15,92.8 C18.54,94.34 19.05,96.05 19.52,97.57 C19.98,99.09 20.48,100.81 21.04,102.29 C21.59,103.77 22.37,105.39 23,106.84 C23.63,108.3 24.3,109.95 24.98,111.38 C25.66,112.81 26.45,114.42 27.25,115.79 C28.04,117.16 29.02,118.66 29.93,119.96 C30.83,121.27 31.92,122.69 32.9,123.93 C33.89,125.16 35.06,126.51 36.09,127.7 C37.13,128.9 38.32,130.22 39.38,131.39 C40.45,132.56 41.63,133.91 42.75,135.02 C43.87,136.14 45.19,137.36 46.4,138.38 C47.61,139.41 49.01,140.52 50.31,141.44 C51.6,142.36 53.14,143.29 54.48,144.12 C55.83,144.96 57.37,145.86 58.74,146.66 C60.11,147.46 61.66,148.36 63.06,149.1 C64.47,149.85 66.07,150.65 67.52,151.32 C68.97,151.98 70.62,152.69 72.12,153.25 C73.61,153.81 76.1,154.57 76.86,154.82 Z" fill="#333"></path><path d="M136.25,-3.8 C136.98,-3.48 139.36,-2.45 140.81,-1.78 C142.26,-1.12 143.9,-0.36 145.33,0.36 C146.77,1.08 148.39,1.9 149.78,2.71 C151.17,3.52 152.69,4.52 154.02,5.43 C155.36,6.34 156.85,7.4 158.1,8.41 C159.36,9.42 160.73,10.63 161.89,11.76 C163.04,12.89 164.29,14.23 165.33,15.47 C166.37,16.7 167.43,18.19 168.41,19.47 C169.39,20.75 170.52,22.16 171.45,23.47 C172.37,24.78 173.33,26.32 174.19,27.67 C175.06,29.02 176.03,30.54 176.86,31.92 C177.68,33.3 178.58,34.87 179.33,36.29 C180.08,37.71 180.89,39.33 181.55,40.79 C182.21,42.26 182.9,43.93 183.48,45.44 C184.06,46.94 184.68,48.64 185.17,50.18 C185.66,51.71 186.16,53.46 186.54,55.02 C186.92,56.58 187.22,58.37 187.55,59.95 C187.88,61.53 188.35,63.29 188.61,64.89 C188.88,66.48 189.08,68.29 189.22,69.9 C189.36,71.51 189.48,73.34 189.49,74.95 C189.51,76.57 189.4,78.39 189.32,80.01 C189.24,81.62 189.14,83.44 188.98,85.05 C188.83,86.66 188.61,88.46 188.36,90.06 C188.11,91.66 187.79,93.45 187.43,95.03 C187.07,96.6 186.55,98.35 186.11,99.9 C185.67,101.46 185.17,103.21 184.68,104.74 C184.18,106.28 183.57,108 183,109.51 C182.43,111.02 181.76,112.72 181.11,114.2 C180.46,115.68 179.69,117.34 178.93,118.77 C178.17,120.2 177.22,121.76 176.36,123.13 C175.5,124.51 174.51,126.04 173.57,127.36 C172.63,128.67 171.51,130.12 170.5,131.38 C169.48,132.64 168.31,134.03 167.23,135.23 C166.16,136.44 164.9,137.75 163.75,138.89 C162.61,140.03 161.29,141.28 160.09,142.35 C158.88,143.43 157.53,144.64 156.25,145.62 C154.96,146.6 153.43,147.58 152.08,148.46 C150.73,149.33 149.19,150.29 147.81,151.1 C146.43,151.92 144.85,152.79 143.44,153.55 C142.03,154.31 139.71,155.48 139,155.84 L138.98,155.8 C139.68,155.42 141.99,154.23 143.36,153.41 C144.73,152.58 146.22,151.57 147.51,150.64 C148.81,149.72 150.23,148.62 151.47,147.62 C152.71,146.63 154.06,145.45 155.27,144.42 C156.47,143.39 157.83,142.24 159.01,141.18 C160.18,140.11 161.49,138.9 162.61,137.78 C163.74,136.66 164.96,135.36 166.03,134.19 C167.1,133.01 168.3,131.68 169.3,130.45 C170.31,129.22 171.42,127.8 172.32,126.5 C173.23,125.19 174.15,123.65 174.97,122.28 C175.79,120.92 176.7,119.38 177.45,117.98 C178.21,116.58 179,114.97 179.69,113.54 C180.37,112.1 181.14,110.48 181.74,109 C182.34,107.53 182.96,105.84 183.44,104.33 C183.93,102.82 184.39,101.08 184.77,99.54 C185.16,98 185.52,96.24 185.84,94.69 C186.17,93.13 186.55,91.39 186.82,89.82 C187.08,88.25 187.31,86.48 187.48,84.9 C187.64,83.32 187.78,81.53 187.83,79.94 C187.89,78.35 187.84,76.56 187.81,74.98 C187.79,73.39 187.76,71.6 187.69,70.01 C187.62,68.42 187.54,66.63 187.38,65.04 C187.21,63.46 186.98,61.68 186.66,60.12 C186.34,58.56 185.83,56.83 185.38,55.31 C184.92,53.78 184.33,52.09 183.81,50.59 C183.29,49.09 182.71,47.41 182.12,45.94 C181.53,44.47 180.75,42.87 180.12,41.41 C179.5,39.96 178.83,38.31 178.19,36.86 C177.54,35.42 176.8,33.79 176.09,32.37 C175.37,30.94 174.54,29.35 173.74,27.97 C172.94,26.59 171.97,25.07 171.06,23.76 C170.15,22.45 169.05,21.01 168.03,19.78 C167.01,18.55 165.8,17.21 164.68,16.07 C163.56,14.94 162.23,13.72 161.03,12.67 C159.83,11.62 158.42,10.5 157.17,9.52 C155.91,8.54 154.47,7.48 153.18,6.55 C151.9,5.62 150.44,4.58 149.12,3.7 C147.8,2.82 146.28,1.88 144.93,1.05 C143.57,0.22 142.04,-0.71 140.65,-1.48 C139.26,-2.26 136.95,-3.43 136.25,-3.8 Z" fill="#333"></path><path d="M57.18,155.15 C56.47,154.78 54.16,153.59 52.76,152.82 C51.36,152.05 49.78,151.17 48.41,150.34 C47.04,149.5 45.5,148.55 44.19,147.61 C42.89,146.67 41.49,145.52 40.28,144.47 C39.06,143.42 37.79,142.14 36.62,141.03 C35.46,139.93 34.11,138.72 33,137.56 C31.89,136.41 30.72,135.03 29.67,133.81 C28.63,132.6 27.43,131.24 26.46,129.96 C25.48,128.69 24.49,127.18 23.58,125.86 C22.67,124.54 21.63,123.06 20.79,121.69 C19.94,120.33 19.07,118.74 18.29,117.34 C17.5,115.94 16.57,114.38 15.86,112.94 C15.15,111.5 14.46,109.82 13.84,108.33 C13.22,106.85 12.54,105.17 11.99,103.66 C11.44,102.14 10.87,100.42 10.41,98.87 C9.95,97.33 9.48,95.57 9.12,94 C8.76,92.42 8.42,90.64 8.16,89.04 C7.89,87.45 7.66,85.65 7.48,84.05 C7.29,82.44 7.1,80.64 7.01,79.02 C6.92,77.41 6.89,75.59 6.92,73.98 C6.94,72.37 7.08,70.56 7.19,68.95 C7.3,67.34 7.43,65.53 7.6,63.93 C7.77,62.33 8.02,60.53 8.28,58.94 C8.54,57.35 8.91,55.58 9.23,54 C9.56,52.42 9.92,50.64 10.32,49.08 C10.71,47.52 11.19,45.76 11.71,44.23 C12.23,42.71 12.94,41.03 13.57,39.55 C14.2,38.07 14.96,36.42 15.66,34.97 C16.37,33.52 17.21,31.92 17.97,30.5 C18.74,29.09 19.63,27.51 20.45,26.14 C21.28,24.76 22.27,23.24 23.16,21.91 C24.05,20.57 25.08,19.08 26.02,17.78 C26.97,16.48 28.04,15.02 29.06,13.77 C30.08,12.53 31.28,11.17 32.38,9.99 C33.47,8.8 34.73,7.5 35.89,6.38 C37.06,5.27 38.4,4.05 39.66,3.04 C40.91,2.03 42.4,1 43.73,0.08 C45.05,-0.83 46.57,-1.8 47.92,-2.67 C49.27,-3.53 51.49,-4.89 52.17,-5.31 L52.23,-5.2 C51.57,-4.76 49.37,-3.37 48.09,-2.42 C46.81,-1.48 45.42,-0.32 44.22,0.72 C43.02,1.77 41.73,3.02 40.58,4.11 C39.42,5.2 38.12,6.42 36.99,7.53 C35.86,8.65 34.61,9.91 33.52,11.06 C32.44,12.22 31.22,13.53 30.22,14.74 C29.21,15.96 28.16,17.41 27.21,18.68 C26.26,19.94 25.19,21.36 24.29,22.66 C23.38,23.96 22.4,25.46 21.56,26.8 C20.71,28.14 19.76,29.65 19,31.05 C18.25,32.44 17.5,34.07 16.83,35.51 C16.17,36.95 15.44,38.58 14.84,40.05 C14.24,41.52 13.6,43.19 13.09,44.69 C12.57,46.2 12.07,47.91 11.63,49.44 C11.18,50.97 10.67,52.69 10.3,54.23 C9.94,55.78 9.61,57.55 9.34,59.11 C9.08,60.68 8.82,62.46 8.64,64.04 C8.46,65.62 8.3,67.41 8.23,69 C8.17,70.59 8.19,72.39 8.22,73.98 C8.26,75.57 8.36,77.36 8.46,78.94 C8.57,80.53 8.69,82.31 8.86,83.89 C9.03,85.47 9.26,87.25 9.52,88.82 C9.79,90.38 10.2,92.13 10.52,93.68 C10.85,95.24 11.17,97.01 11.56,98.55 C11.96,100.09 12.5,101.8 13,103.31 C13.5,104.82 14.09,106.52 14.7,107.99 C15.32,109.46 16.14,111.06 16.83,112.49 C17.53,113.92 18.31,115.53 19.07,116.93 C19.83,118.32 20.72,119.88 21.58,121.21 C22.45,122.54 23.55,123.96 24.48,125.24 C25.4,126.53 26.41,128.01 27.38,129.26 C28.35,130.51 29.53,131.85 30.56,133.06 C31.58,134.26 32.71,135.65 33.79,136.81 C34.86,137.98 36.11,139.25 37.27,140.34 C38.42,141.43 39.78,142.6 41,143.61 C42.22,144.62 43.64,145.7 44.9,146.66 C46.16,147.63 47.59,148.71 48.87,149.65 C50.15,150.59 51.59,151.66 52.92,152.55 C54.25,153.43 56.5,154.74 57.18,155.15 Z" fill="#333"></path><path d="M151.91,-4.6 C152.6,-4.18 154.82,-2.82 156.19,-1.96 C157.55,-1.11 159.13,-0.19 160.44,0.75 C161.75,1.69 163.16,2.85 164.38,3.91 C165.59,4.97 166.93,6.22 168.04,7.39 C169.15,8.55 170.29,9.98 171.34,11.2 C172.38,12.43 173.54,13.82 174.56,15.06 C175.58,16.31 176.74,17.7 177.73,18.97 C178.72,20.24 179.81,21.69 180.73,23.01 C181.66,24.33 182.68,25.84 183.51,27.22 C184.34,28.6 185.2,30.21 185.92,31.66 C186.64,33.1 187.37,34.77 188,36.25 C188.62,37.73 189.25,39.44 189.85,40.93 C190.44,42.43 191.17,44.09 191.73,45.6 C192.29,47.12 192.9,48.83 193.35,50.38 C193.8,51.93 194.17,53.71 194.54,55.29 C194.91,56.86 195.35,58.63 195.63,60.22 C195.92,61.81 196.15,63.62 196.32,65.22 C196.49,66.83 196.6,68.65 196.7,70.26 C196.79,71.87 196.89,73.69 196.89,75.3 C196.89,76.92 196.81,78.74 196.69,80.35 C196.57,81.96 196.35,83.76 196.15,85.36 C195.95,86.96 195.71,88.76 195.45,90.34 C195.19,91.93 194.83,93.71 194.5,95.28 C194.18,96.86 193.82,98.63 193.42,100.19 C193.02,101.75 192.49,103.48 191.99,105.01 C191.5,106.54 190.9,108.25 190.33,109.75 C189.77,111.25 189.09,112.93 188.46,114.41 C187.82,115.89 187.08,117.54 186.37,118.98 C185.66,120.42 184.78,122 184,123.41 C183.23,124.82 182.36,126.41 181.54,127.79 C180.71,129.17 179.73,130.69 178.82,132.03 C177.92,133.36 176.85,134.83 175.89,136.12 C174.92,137.41 173.82,138.86 172.8,140.11 C171.77,141.36 170.6,142.75 169.49,143.93 C168.38,145.1 167.06,146.37 165.86,147.44 C164.65,148.52 163.24,149.67 161.95,150.64 C160.66,151.62 159.13,152.61 157.81,153.52 C156.48,154.43 154.32,155.9 153.65,156.35 L153.6,156.27 C154.25,155.8 156.42,154.34 157.67,153.34 C158.92,152.34 160.26,151.11 161.43,150.02 C162.6,148.92 163.87,147.65 164.98,146.5 C166.1,145.36 167.33,144.05 168.39,142.86 C169.45,141.67 170.59,140.29 171.59,139.05 C172.59,137.81 173.7,136.42 174.64,135.14 C175.57,133.86 176.56,132.37 177.44,131.05 C178.32,129.73 179.28,128.23 180.12,126.89 C180.96,125.55 181.91,124.05 182.69,122.67 C183.48,121.3 184.33,119.73 185.02,118.31 C185.72,116.89 186.42,115.25 187.03,113.8 C187.65,112.34 188.33,110.69 188.88,109.21 C189.44,107.73 190.03,106.05 190.5,104.54 C190.98,103.03 191.45,101.32 191.85,99.79 C192.25,98.26 192.65,96.52 192.99,94.98 C193.33,93.43 193.69,91.68 193.96,90.12 C194.23,88.56 194.48,86.79 194.66,85.22 C194.84,83.64 194.97,81.86 195.07,80.28 C195.17,78.69 195.29,76.91 195.3,75.32 C195.32,73.73 195.23,71.94 195.15,70.35 C195.07,68.76 194.95,66.98 194.79,65.4 C194.62,63.81 194.37,62.04 194.15,60.46 C193.92,58.89 193.67,57.11 193.36,55.55 C193.06,53.98 192.62,52.24 192.24,50.69 C191.87,49.13 191.48,47.37 191.02,45.84 C190.57,44.31 189.99,42.59 189.4,41.11 C188.81,39.62 188.01,38 187.32,36.56 C186.63,35.11 185.85,33.49 185.09,32.09 C184.32,30.68 183.37,29.16 182.56,27.78 C181.76,26.4 180.9,24.82 180.06,23.46 C179.22,22.1 178.25,20.57 177.32,19.27 C176.39,17.97 175.27,16.56 174.23,15.34 C173.2,14.11 171.98,12.78 170.86,11.64 C169.74,10.5 168.41,9.29 167.24,8.2 C166.07,7.12 164.75,5.9 163.55,4.85 C162.34,3.8 160.95,2.68 159.73,1.65 C158.51,0.62 157.18,-0.6 155.92,-1.59 C154.66,-2.58 152.52,-4.07 151.88,-4.54 Z" fill="#333"></path><path d="M44.91,156.55 C44.25,156.1 42.1,154.64 40.79,153.72 C39.47,152.81 37.96,151.81 36.68,150.84 C35.4,149.88 33.99,148.73 32.77,147.68 C31.55,146.64 30.2,145.43 29.04,144.31 C27.89,143.19 26.64,141.87 25.55,140.69 C24.46,139.5 23.26,138.14 22.24,136.89 C21.22,135.65 20.13,134.2 19.18,132.9 C18.22,131.6 17.16,130.13 16.27,128.79 C15.37,127.45 14.4,125.92 13.59,124.53 C12.78,123.13 11.95,121.52 11.2,120.09 C10.45,118.66 9.63,117.05 8.9,115.61 C8.18,114.17 7.3,112.56 6.67,111.08 C6.04,109.59 5.48,107.85 4.97,106.32 C4.46,104.79 3.91,103.05 3.48,101.5 C3.05,99.94 2.62,98.17 2.27,96.6 C1.92,95.02 1.54,93.24 1.28,91.65 C1.02,90.06 0.81,88.25 0.64,86.65 C0.47,85.05 0.31,83.24 0.21,81.63 C0.11,80.03 0.03,78.22 0,76.61 C-0.03,75 -0.01,73.19 0.03,71.58 C0.06,69.97 0.11,68.16 0.21,66.55 C0.31,64.95 0.47,63.14 0.66,61.54 C0.86,59.94 1.15,58.15 1.4,56.56 C1.66,54.97 1.96,53.18 2.28,51.6 C2.6,50.02 2.98,48.24 3.4,46.68 C3.82,45.13 4.38,43.4 4.89,41.86 C5.39,40.33 5.97,38.6 6.54,37.09 C7.12,35.58 7.82,33.91 8.47,32.43 C9.13,30.95 9.88,29.29 10.63,27.86 C11.37,26.42 12.28,24.84 13.12,23.46 C13.95,22.08 14.97,20.57 15.85,19.22 C16.72,17.86 17.68,16.31 18.6,14.98 C19.52,13.65 20.58,12.17 21.58,10.9 C22.57,9.63 23.74,8.23 24.83,7.04 C25.92,5.84 27.2,4.54 28.39,3.45 C29.58,2.36 31.02,1.23 32.28,0.22 C33.54,-0.79 34.98,-1.88 36.26,-2.84 C37.55,-3.8 39.67,-5.32 40.31,-5.79 L40.35,-5.75 C39.73,-5.24 37.66,-3.66 36.46,-2.6 C35.27,-1.55 34,-0.26 32.86,0.85 C31.72,1.97 30.44,3.22 29.34,4.38 C28.25,5.54 27.1,6.91 26.03,8.1 C24.96,9.28 23.71,10.57 22.68,11.78 C21.65,13 20.53,14.41 19.58,15.69 C18.63,16.97 17.62,18.46 16.76,19.81 C15.9,21.15 14.98,22.7 14.2,24.09 C13.42,25.48 12.61,27.08 11.88,28.5 C11.16,29.92 10.33,31.52 9.67,32.97 C9,34.41 8.32,36.08 7.72,37.56 C7.12,39.04 6.43,40.7 5.93,42.21 C5.42,43.73 4.99,45.47 4.57,47.01 C4.15,48.55 3.66,50.28 3.3,51.83 C2.94,53.39 2.58,55.15 2.31,56.72 C2.04,58.29 1.8,60.08 1.62,61.66 C1.44,63.24 1.33,65.04 1.2,66.62 C1.07,68.21 0.85,70 0.8,71.6 C0.74,73.19 0.78,74.99 0.83,76.58 C0.88,78.18 0.98,79.97 1.12,81.56 C1.26,83.15 1.46,84.94 1.67,86.52 C1.89,88.1 2.15,89.88 2.44,91.44 C2.74,93.01 3.11,94.77 3.5,96.31 C3.9,97.85 4.44,99.57 4.91,101.09 C5.39,102.61 5.95,104.31 6.47,105.81 C7,107.31 7.62,108.99 8.21,110.46 C8.8,111.94 9.5,113.58 10.15,115.04 C10.79,116.49 11.49,118.15 12.23,119.56 C12.96,120.97 13.89,122.5 14.72,123.86 C15.55,125.22 16.53,126.72 17.4,128.04 C18.28,129.37 19.26,130.87 20.21,132.14 C21.16,133.42 22.3,134.8 23.33,136.01 C24.36,137.22 25.58,138.53 26.65,139.7 C27.72,140.87 28.92,142.19 30.02,143.33 C31.13,144.47 32.41,145.72 33.55,146.83 C34.69,147.94 35.98,149.18 37.16,150.25 C38.34,151.32 39.7,152.51 40.94,153.52 C42.18,154.52 44.28,156.06 44.92,156.54 Z" fill="#333"></path><path d="M161.43,-6.07 C162.07,-5.59 164.14,-4.03 165.4,-3.04 C166.66,-2.06 168.09,-0.96 169.31,0.07 C170.54,1.1 171.9,2.29 173.05,3.4 C174.2,4.52 175.43,5.85 176.5,7.04 C177.57,8.23 178.71,9.63 179.74,10.86 C180.76,12.09 181.91,13.48 182.9,14.74 C183.9,16 185.04,17.41 185.96,18.72 C186.88,20.04 187.82,21.59 188.66,22.96 C189.5,24.33 190.44,25.87 191.21,27.29 C191.98,28.7 192.76,30.33 193.45,31.79 C194.14,33.24 194.91,34.88 195.52,36.36 C196.13,37.85 196.74,39.56 197.27,41.07 C197.8,42.59 198.38,44.3 198.82,45.85 C199.26,47.39 199.67,49.16 200.02,50.72 C200.37,52.29 200.73,54.06 201.02,55.63 C201.32,57.2 201.62,58.98 201.86,60.56 C202.11,62.15 202.37,63.93 202.55,65.52 C202.72,67.11 202.87,68.91 202.97,70.51 C203.07,72.11 203.13,73.91 203.16,75.52 C203.18,77.12 203.17,78.92 203.14,80.53 C203.11,82.13 203.09,83.94 202.99,85.55 C202.89,87.15 202.7,88.95 202.49,90.55 C202.29,92.14 202.01,93.93 201.72,95.51 C201.43,97.1 201.05,98.87 200.69,100.44 C200.33,102.01 199.9,103.77 199.48,105.32 C199.06,106.88 198.56,108.62 198.07,110.16 C197.57,111.69 196.97,113.41 196.38,114.91 C195.8,116.41 195.07,118.08 194.41,119.55 C193.74,121.02 192.96,122.66 192.24,124.11 C191.52,125.55 190.66,127.16 189.89,128.58 C189.11,129.99 188.24,131.6 187.37,132.96 C186.5,134.33 185.38,135.77 184.44,137.09 C183.5,138.41 182.48,139.92 181.49,141.2 C180.49,142.47 179.32,143.87 178.22,145.06 C177.12,146.24 175.8,147.5 174.61,148.6 C173.41,149.69 172,150.84 170.77,151.88 C169.54,152.92 167.51,154.57 166.89,155.08 L166.81,154.99 C167.4,154.44 169.35,152.71 170.47,151.56 C171.59,150.42 172.74,149.02 173.8,147.82 C174.86,146.62 176.07,145.29 177.1,144.07 C178.12,142.85 179.24,141.45 180.22,140.18 C181.19,138.92 182.27,137.49 183.19,136.19 C184.11,134.89 185.13,133.41 185.98,132.06 C186.83,130.72 187.73,129.17 188.51,127.78 C189.29,126.39 190.14,124.81 190.85,123.39 C191.57,121.97 192.33,120.35 192.98,118.9 C193.63,117.45 194.31,115.79 194.91,114.32 C195.51,112.85 196.18,111.19 196.75,109.7 C197.32,108.22 197.97,106.54 198.49,105.03 C199.01,103.52 199.56,101.81 199.99,100.27 C200.42,98.73 200.87,96.98 201.2,95.42 C201.53,93.85 201.83,92.07 202.07,90.49 C202.32,88.91 202.59,87.12 202.75,85.52 C202.91,83.93 203.02,82.13 203.09,80.53 C203.15,78.92 203.19,77.12 203.14,75.52 C203.1,73.92 202.95,72.11 202.79,70.52 C202.63,68.93 202.37,67.15 202.15,65.56 C201.93,63.98 201.68,62.2 201.41,60.63 C201.14,59.06 200.81,57.3 200.46,55.74 C200.11,54.19 199.68,52.45 199.25,50.92 C198.82,49.39 198.26,47.68 197.79,46.17 C197.31,44.65 196.78,42.94 196.25,41.44 C195.73,39.94 195.11,38.26 194.52,36.78 C193.93,35.31 193.23,33.65 192.55,32.21 C191.87,30.78 191.01,29.2 190.25,27.81 C189.48,26.41 188.62,24.84 187.79,23.48 C186.95,22.13 185.91,20.67 185.01,19.36 C184.11,18.05 183.09,16.58 182.16,15.3 C181.22,14.01 180.16,12.57 179.16,11.33 C178.15,10.1 176.96,8.76 175.88,7.6 C174.79,6.44 173.5,5.2 172.38,4.07 C171.27,2.94 170.04,1.64 168.9,0.53 C167.75,-0.58 166.45,-1.81 165.25,-2.86 C164.06,-3.92 162.04,-5.56 161.43,-6.07 Z" fill="#333"></path><path d="M32.83,156.7 C32.2,156.2 30.13,154.62 28.87,153.61 C27.62,152.61 26.2,151.48 24.98,150.42 C23.77,149.35 22.44,148.12 21.3,146.98 C20.16,145.84 18.91,144.51 17.85,143.29 C16.8,142.07 15.68,140.63 14.7,139.35 C13.71,138.07 12.61,136.62 11.69,135.29 C10.77,133.97 9.8,132.43 8.95,131.06 C8.1,129.69 7.16,128.13 6.38,126.72 C5.6,125.3 4.77,123.69 4.06,122.24 C3.35,120.79 2.57,119.15 1.95,117.66 C1.33,116.18 0.72,114.47 0.18,112.95 C-0.36,111.43 -0.95,109.72 -1.42,108.18 C-1.9,106.65 -2.37,104.9 -2.78,103.35 C-3.19,101.8 -3.79,99.26 -3.99,98.48 L-3.92,98.47 C-3.71,99.24 -3.06,101.77 -2.58,103.29 C-2.1,104.82 -1.5,106.52 -0.93,108.02 C-0.36,109.51 0.34,111.17 0.97,112.64 C1.61,114.1 2.34,115.74 3.03,117.18 C3.73,118.61 4.58,120.19 5.33,121.6 C6.08,123 6.9,124.59 7.7,125.97 C8.49,127.35 9.44,128.87 10.29,130.21 C11.15,131.55 12.14,133.04 13.04,134.35 C13.94,135.67 14.93,137.16 15.89,138.43 C16.85,139.7 18.01,141.07 19.02,142.3 C20.03,143.53 21.18,144.9 22.22,146.12 C23.25,147.33 24.39,148.73 25.48,149.9 C26.57,151.07 27.86,152.35 29.03,153.43 C30.21,154.52 32.23,156.17 32.83,156.69 Z" fill="#333"></path><path d="M-4.16,48.77 C-3.97,47.99 -3.4,45.43 -2.98,43.88 C-2.55,42.33 -2.01,40.6 -1.52,39.07 C-1.03,37.53 -0.48,35.8 0.07,34.29 C0.63,32.78 1.32,31.1 1.94,29.61 C2.57,28.12 3.26,26.43 3.99,24.99 C4.72,23.56 5.69,22.01 6.52,20.62 C7.34,19.24 8.31,17.71 9.16,16.33 C10.01,14.96 10.91,13.38 11.82,12.04 C12.72,10.71 13.83,9.26 14.84,8.01 C15.86,6.75 17.04,5.37 18.15,4.2 C19.25,3.03 20.59,1.79 21.76,0.69 C22.94,-0.41 24.29,-1.61 25.49,-2.67 C26.69,-3.73 28.67,-5.42 29.28,-5.94 L29.32,-5.89 C28.75,-5.33 26.84,-3.57 25.74,-2.42 C24.65,-1.26 23.53,0.16 22.48,1.36 C21.44,2.56 20.23,3.88 19.2,5.09 C18.17,6.3 17.05,7.7 16.07,8.95 C15.08,10.2 13.97,11.6 13.03,12.89 C12.09,14.17 11.05,15.64 10.19,16.98 C9.32,18.32 8.4,19.86 7.62,21.25 C6.85,22.64 6.06,24.26 5.33,25.67 C4.6,27.09 3.79,28.69 3.08,30.12 C2.37,31.55 1.54,33.15 0.88,34.61 C0.22,36.07 -0.45,37.74 -1.04,39.23 C-1.62,40.73 -2.26,42.42 -2.75,43.95 C-3.24,45.48 -3.88,48.01 -4.1,48.78 Z" fill="#333"></path><path d="M175.12,-4.64 C175.72,-4.11 177.67,-2.38 178.85,-1.3 C180.04,-0.21 181.39,1 182.52,2.14 C183.65,3.28 184.87,4.63 185.92,5.85 C186.98,7.06 188.14,8.46 189.12,9.74 C190.09,11.02 191.12,12.52 192.04,13.84 C192.96,15.17 194.02,16.65 194.87,18.01 C195.73,19.38 196.65,20.95 197.41,22.37 C198.16,23.8 198.96,25.43 199.62,26.9 C200.27,28.38 200.91,30.08 201.5,31.58 C202.08,33.07 202.75,34.75 203.29,36.27 C203.82,37.78 204.59,40.27 204.84,41.04 L204.78,41.06 C204.5,40.3 203.66,37.84 203.07,36.35 C202.47,34.87 201.75,33.21 201.05,31.77 C200.35,30.33 199.46,28.76 198.69,27.36 C197.91,25.97 197.05,24.39 196.22,23.03 C195.39,21.67 194.37,20.19 193.51,18.85 C192.65,17.51 191.72,15.99 190.83,14.67 C189.94,13.35 188.92,11.88 187.97,10.6 C187.02,9.33 185.89,7.93 184.9,6.69 C183.91,5.44 182.78,4.05 181.75,2.83 C180.72,1.62 179.54,0.26 178.47,-0.92 C177.4,-2.11 175.62,-4.01 175.07,-4.59 Z" fill="#333"></path><path d="M203.21,114.56 C202.94,115.31 202.1,117.76 201.56,119.27 C201.03,120.78 200.43,122.49 199.85,123.99 C199.27,125.49 198.6,127.18 197.94,128.65 C197.28,130.12 196.49,131.77 195.74,133.19 C194.98,134.62 194.07,136.2 193.21,137.57 C192.34,138.93 191.27,140.4 190.31,141.71 C189.35,143.01 188.27,144.47 187.22,145.7 C186.17,146.93 184.91,148.24 183.77,149.38 C182.63,150.52 181.27,151.74 180.09,152.84 C178.92,153.94 177.01,155.71 176.42,156.26 L176.39,156.22 C176.94,155.64 178.81,153.82 179.87,152.62 C180.92,151.42 182.01,149.97 183.01,148.72 C184,147.47 185.12,146.07 186.09,144.81 C187.07,143.54 188.17,142.12 189.09,140.82 C190,139.52 190.98,138.01 191.82,136.66 C192.67,135.31 193.54,133.74 194.35,132.37 C195.15,130.99 196.08,129.46 196.84,128.06 C197.6,126.67 198.41,125.07 199.11,123.64 C199.82,122.21 200.6,120.6 201.26,119.14 C201.91,117.69 202.9,115.29 203.21,114.56 Z" fill="#333"></path><path d="M22.2,156.92 C21.61,156.38 19.71,154.61 18.54,153.52 C17.38,152.42 16.04,151.21 14.89,150.08 C13.75,148.95 12.48,147.67 11.41,146.46 C10.35,145.26 9.24,143.83 8.26,142.55 C7.28,141.27 6.21,139.81 5.31,138.48 C4.42,137.15 3.47,135.6 2.66,134.21 C1.85,132.83 0.99,131.24 0.25,129.81 C-0.49,128.39 -1.27,126.76 -1.95,125.31 C-2.62,123.85 -3.64,121.46 -3.97,120.73 L-3.86,120.68 C-3.48,121.39 -2.31,123.7 -1.52,125.09 C-0.74,126.48 0.2,128.01 1.05,129.36 C1.9,130.71 2.91,132.19 3.79,133.51 C4.68,134.83 5.67,136.32 6.58,137.61 C7.49,138.91 8.56,140.34 9.5,141.62 C10.45,142.89 11.53,144.31 12.49,145.58 C13.45,146.84 14.51,148.29 15.51,149.53 C16.51,150.77 17.67,152.15 18.74,153.33 C19.81,154.51 21.65,156.34 22.21,156.91 Z" fill="#333"></path><path d="M-4.59,28.53 C-4.28,27.79 -3.3,25.39 -2.67,23.91 C-2.05,22.44 -1.37,20.75 -0.68,19.3 C0.01,17.85 0.87,16.26 1.64,14.85 C2.42,13.44 3.31,11.86 4.16,10.5 C5.01,9.13 6,7.61 6.97,6.32 C7.93,5.03 9.11,3.65 10.19,2.45 C11.27,1.26 12.58,-0.01 13.72,-1.14 C14.86,-2.27 16.74,-4.07 17.31,-4.62 L17.43,-4.51 C16.91,-3.91 15.17,-1.99 14.16,-0.76 C13.15,0.48 12.09,1.93 11.13,3.19 C10.16,4.46 9.07,5.87 8.12,7.15 C7.17,8.43 6.11,9.87 5.21,11.19 C4.31,12.5 3.32,14 2.48,15.35 C1.64,16.71 0.73,18.26 -0.05,19.64 C-0.84,21.03 -1.73,22.6 -2.44,24.02 C-3.15,25.45 -4.16,27.84 -4.49,28.57 Z" fill="#333"></path><path d="M183.13,-7.11 C183.7,-6.55 185.56,-4.74 186.69,-3.6 C187.82,-2.45 189.09,-1.17 190.16,0.02 C191.24,1.21 192.38,2.61 193.4,3.86 C194.41,5.1 195.59,6.48 196.5,7.8 C197.41,9.12 198.27,10.73 199.09,12.11 C199.9,13.5 200.82,15.05 201.59,16.46 C202.35,17.87 203.49,20.2 203.86,20.92 L203.75,20.97 C203.33,20.29 202,18.06 201.12,16.73 C200.24,15.4 199.15,13.97 198.24,12.66 C197.32,11.36 196.32,9.89 195.4,8.59 C194.49,7.29 193.46,5.82 192.52,4.54 C191.58,3.26 190.49,1.83 189.53,0.56 C188.56,-0.71 187.5,-2.17 186.46,-3.39 C185.43,-4.6 183.61,-6.47 183.07,-7.05 Z" fill="#333"></path><path d="M203.85,131.29 C203.51,132.01 202.4,134.36 201.69,135.8 C200.98,137.25 200.19,138.88 199.42,140.3 C198.65,141.71 197.75,143.29 196.86,144.63 C195.97,145.97 194.88,147.43 193.86,148.68 C192.83,149.92 191.56,151.22 190.46,152.4 C189.36,153.58 187.56,155.46 187,156.04 L186.95,155.99 C187.46,155.38 189.18,153.41 190.16,152.14 C191.13,150.87 192.15,149.38 193.06,148.06 C193.97,146.75 194.95,145.24 195.83,143.91 C196.72,142.58 197.73,141.1 198.6,139.77 C199.48,138.44 200.47,136.94 201.3,135.58 C202.13,134.21 203.39,131.94 203.79,131.25 Z" fill="#333"></path><path d="M9.13,154.42 C8.58,153.83 6.78,151.94 5.71,150.75 C4.64,149.55 3.42,148.2 2.45,146.92 C1.48,145.64 0.5,144.11 -0.36,142.76 C-1.22,141.4 -2.11,139.82 -2.92,138.43 C-3.74,137.05 -5.05,134.81 -5.46,134.11 L-5.41,134.09 C-4.99,134.77 -3.66,137.01 -2.75,138.32 C-1.83,139.64 -0.67,141.03 0.3,142.3 C1.26,143.57 2.35,145 3.3,146.28 C4.26,147.56 5.3,149.02 6.26,150.3 C7.21,151.58 8.81,153.64 9.29,154.27 Z" fill="#333"></path><path d="M-3.28,10.12 C-2.88,9.43 -1.61,7.15 -0.76,5.79 C0.09,4.43 1.08,2.92 2.03,1.63 C2.98,0.33 4.13,-1.06 5.17,-2.29 C6.21,-3.51 7.99,-5.41 8.53,-6 L8.56,-5.97 C8.07,-5.34 6.45,-3.31 5.51,-2.02 C4.56,-0.73 3.59,0.79 2.66,2.09 C1.73,3.38 0.63,4.81 -0.3,6.1 C-1.24,7.4 -2.73,9.53 -3.19,10.18 Z" fill="#333"></path><path d="M193.89,-5.75 C194.42,-5.15 196.19,-3.24 197.22,-2.02 C198.24,-0.8 199.35,0.63 200.31,1.9 C201.28,3.18 202.34,4.64 203.23,5.96 C204.13,7.29 205.48,9.51 205.9,10.19 L205.9,10.19 C205.44,9.54 203.97,7.4 203.04,6.1 C202.11,4.8 201.05,3.34 200.09,2.07 C199.12,0.8 198.01,-0.61 197.01,-1.85 C196.01,-3.1 194.34,-5.08 193.84,-5.7 Z" fill="#333"></path><path d="M202.82,147.14 C202.36,147.79 200.38,150.56 199.92,151.21 L199.87,151.18 C200.33,150.53 202.32,147.77 202.78,147.12 Z" fill="#333"></path></g></svg>